<?xml version="1.0" encoding="UTF-8" standalone="no"?><svg xmlns:svg="http://www.w3.org/2000/svg" xmlns="http://www.w3.org/2000/svg" version="1.2" width="50" height="100" ><path d="M 50,50 C 50,36.19375 38.806876,25 25,25 11.193126,25 0,36.19375 0,50 0,63.80622 11.193126,75 25,75 38.806876,75 50,63.80622 50,50" style="fill:#ffffff;stroke:#3b4449;stroke-width:2;stroke-linecap:round;stroke-miterlimit:6"/><path d="M 25,0 25,25" style="fill:none;stroke:#3b4449;stroke-width:2;stroke-linecap:round;stroke-miterlimit:6"/><path d="M 25,100 25,75" style="fill:none;stroke:#3b4449;stroke-width:2;stroke-linecap:round;stroke-miterlimit:6"/><path d="M 38.867085,66.69792 C 34.760834,63.96252 29.935001,62.50002 25,62.50002 20.065001,62.50002 15.239167,63.96252 11.132917,66.69792" style="fill:none;stroke:#3b4449;stroke-width:1.20000005;stroke-linecap:round;stroke-miterlimit:6"/><path d="M 45.801668,56.29792 C 39.641876,52.19162 32.403126,50 25,50 17.596876,50 10.358126,52.19162 4.1983338,56.29792" style="fill:none;stroke:#3b4449;stroke-width:1.20000005;stroke-linecap:round;stroke-miterlimit:6"/><path d="M 12.5,50 25,71.87502" style="fill:none;stroke:#3b4449;stroke-width:1.20000005;stroke-linecap:round;stroke-miterlimit:6"/><path d="M 28.481445,45.22069 27.436523,42.3203 22.534179,42.3203 21.538086,45.22069 18.71582,45.22069 24.418945,30.71873 25.532226,30.71873 31.284179,45.22069 28.481445,45.22069 M 24.975586,35.09373 23.256836,40.37694 26.694336,40.37694 24.975586,35.09373" style="fill:#3b4449;stroke:none"/></svg>