<?xml version="1.0" encoding="UTF-8" standalone="no"?><svg xmlns:svg="http://www.w3.org/2000/svg" xmlns="http://www.w3.org/2000/svg" version="1.1" width="50" height="100" ><path d="M 50,25 0,25" style="fill:none;stroke:#3b4449;stroke-width:2;stroke-linecap:round;stroke-miterlimit:4"/><path d="M 25,24.5 25,0" style="fill:none;stroke:#3b4449;stroke-width:2;stroke-linecap:round;stroke-miterlimit:4"/><path d="M 37.5,35 12.5,35" style="fill:none;stroke:#3b4449;stroke-width:2;stroke-linecap:round;stroke-miterlimit:4"/><path d="M 37.5,75 12.5,75" style="fill:none;stroke:#3b4449;stroke-width:2;stroke-linecap:round;stroke-miterlimit:4"/><path d="M 50,65 0,65" style="fill:none;stroke:#3b4449;stroke-width:2;stroke-linecap:round;stroke-miterlimit:4"/><path d="M 25,75.5 25,100" style="fill:none;stroke:#3b4449;stroke-width:2;stroke-linecap:round;stroke-miterlimit:4"/><path d="M 37.5,55 12.5,55" style="fill:none;stroke:#3b4449;stroke-width:2;stroke-linecap:round;stroke-miterlimit:4"/><path d="M 50,45 0,45" style="fill:none;stroke:#3b4449;stroke-width:2;stroke-linecap:round;stroke-miterlimit:4"/><path d="M 12.239297,9.99656 10.99166,9.99656 10.99166,15.41811 5.6154788,15.41811 5.6154788,16.66575 10.99166,16.66575 10.99166,22.0873 12.239297,22.0873 12.239297,16.66575 17.615479,16.66575 17.615479,15.41811 12.239297,15.41811 12.239297,9.99656" style="fill:#3b4449;fill-rule:nonzero;stroke:none"/><path d="M 2,20 48,20 48,80 2,80 z" style="opacity:0;fill:#ffffff;stroke:#ffffff;stroke-width:1"/></svg>