<?xml version="1.0" encoding="UTF-8" standalone="no"?><svg xmlns:svg="http://www.w3.org/2000/svg" xmlns="http://www.w3.org/2000/svg" version="1.1" width="50" height="100" ><path d="M 50,35 0,35" style="fill:none;stroke:#3b4449;stroke-width:2;stroke-linecap:round;stroke-miterlimit:4"/><path d="M 25,34.5 25,0" style="fill:none;stroke:#3b4449;stroke-width:2;stroke-linecap:round;stroke-miterlimit:4"/><path d="M 37.5,45 12.5,45" style="fill:none;stroke:#3b4449;stroke-width:2;stroke-linecap:round;stroke-miterlimit:4"/><path d="M 37.5,65 12.5,65" style="fill:none;stroke:#3b4449;stroke-width:2;stroke-linecap:round;stroke-miterlimit:4"/><path d="M 50,55 0,55" style="fill:none;stroke:#3b4449;stroke-width:2;stroke-linecap:round;stroke-miterlimit:4"/><path d="M 25,65.5 25,100" style="fill:none;stroke:#3b4449;stroke-width:2;stroke-linecap:round;stroke-miterlimit:4"/><path d="M 12.239297,19.99626 10.99166,19.99626 10.99166,25.41781 5.6154788,25.41781 5.6154788,26.66545 10.99166,26.66545 10.99166,32.087 12.239297,32.087 12.239297,26.66545 17.615479,26.66545 17.615479,25.41781 12.239297,25.41781 12.239297,19.99626" style="fill:#3b4449;fill-rule:nonzero;stroke:none"/><path d="M 2,20 48,20 48,80 2,80 z" style="opacity:0;fill:#ffffff;stroke:#ffffff;stroke-width:1"/></svg>