<?xml version="1.0" encoding="UTF-8" standalone="no"?><svg xmlns:svg="http://www.w3.org/2000/svg" xmlns="http://www.w3.org/2000/svg" version="1.1" width="100" height="100" ><path d="M 95.312,50 C 95.312,75.02492 75.024605,95.31252 49.999737,95.31252 24.974868,95.31252 4.6874753,75.02492 4.6874753,50 4.6874753,24.975 24.974868,4.68751 49.999737,4.68751 75.024605,4.68751 95.312,24.975 95.312,50" style="fill:#ffffff;stroke:#3b4449;stroke-width:2;stroke-linecap:round;stroke-miterlimit:6"/><path d="M 56.25,17.1875 56.25,45.31248" style="fill:none;stroke:#3b4449;stroke-width:3;stroke-linecap:round;stroke-miterlimit:6"/><path d="M 75,50 56.25,42.18748" style="fill:none;stroke:#3b4449;stroke-width:2;stroke-linecap:round;stroke-miterlimit:6"/><path d="M 75,12.5 56.25,20.3125" style="fill:none;stroke:#3b4449;stroke-width:2;stroke-linecap:round;stroke-miterlimit:6"/><path d="M 75,68.75 37.5,68.75" style="fill:none;stroke:#3b4449;stroke-width:2;stroke-linecap:round;stroke-miterlimit:6"/><path d="M 56.25,31.25 37.5,31.25" style="fill:none;stroke:#3b4449;stroke-width:2;stroke-linecap:round;stroke-miterlimit:6"/><path d="M 18.75,39.06249 37.5,31.25" style="fill:none;stroke:#3b4449;stroke-width:2;stroke-linecap:round;stroke-miterlimit:6"/><path d="M 18.75,64.06242 18.75,35.93749" style="fill:none;stroke:#3b4449;stroke-width:3;stroke-linecap:round;stroke-miterlimit:6"/><path d="M 37.5,68.75 18.75,60.93742" style="fill:none;stroke:#3b4449;stroke-width:2;stroke-linecap:round;stroke-miterlimit:6"/><path d="M 37.5,31.25 18.75,39.06249" style="fill:none;stroke:#3b4449;stroke-width:2;stroke-linecap:round;stroke-miterlimit:6"/><path d="M 75,100 75,50" style="fill:none;stroke:#3b4449;stroke-width:2;stroke-linecap:round;stroke-miterlimit:6"/><path d="M 0,50 18.75,50" style="fill:none;stroke:#3b4449;stroke-width:2;stroke-linecap:round;stroke-miterlimit:6"/><path d="M 75,0 75,12.5" style="fill:none;stroke:#3b4449;stroke-width:2;stroke-linecap:round;stroke-miterlimit:6"/><path d="M 70.256171,18.98986 61.202051,18.26694 67.214519,11.45653" style="fill:#3b4449;fill-rule:evenodd;stroke:none"/><path d="M 33.604583,37.33806 24.550464,36.61515 30.562933,29.80474" style="fill:#3b4449;fill-rule:evenodd;stroke:none"/></svg>