<?xml version="1.0" encoding="UTF-8" standalone="no"?><svg xmlns:svg="http://www.w3.org/2000/svg" xmlns="http://www.w3.org/2000/svg" version="1.1" width="100" height="100" ><path d="M 95.312998,50 C 95.312998,24.97458 75.025391,4.68701 50.000261,4.68701 24.97513,4.68701 4.6875243,24.97458 4.6875243,50 4.6875243,75.02482 24.97513,95.31242 50.000261,95.31242 75.025391,95.31242 95.312998,75.02482 95.312998,50" style="fill:#ffffff;stroke:#3b4449;stroke-width:2;stroke-linecap:round;stroke-miterlimit:6"/><path d="M 56.250294,82.81242 56.250294,54.68722" style="fill:none;stroke:#3b4449;stroke-width:3;stroke-linecap:round;stroke-miterlimit:6"/><path d="M 75,50 56.250294,57.81232" style="fill:none;stroke:#3b4449;stroke-width:2;stroke-linecap:round;stroke-miterlimit:6"/><path d="M 75,87.5 56.250294,79.68742" style="fill:none;stroke:#3b4449;stroke-width:2;stroke-linecap:round;stroke-miterlimit:6"/><path d="M 75,31.24962 37.5,31.24962" style="fill:none;stroke:#3b4449;stroke-width:2;stroke-linecap:round;stroke-miterlimit:6"/><path d="M 56.250294,68.74982 37.5,68.74982" style="fill:none;stroke:#3b4449;stroke-width:2;stroke-linecap:round;stroke-miterlimit:6"/><path d="M 18.75,60.93732 37.5,68.74982" style="fill:none;stroke:#3b4449;stroke-width:2;stroke-linecap:round;stroke-miterlimit:6"/><path d="M 18.75,35.93714 18.75,64.06232" style="fill:none;stroke:#3b4449;stroke-width:3;stroke-linecap:round;stroke-miterlimit:6"/><path d="M 37.5,31.24962 18.75,39.06216" style="fill:none;stroke:#3b4449;stroke-width:2;stroke-linecap:round;stroke-miterlimit:6"/><path d="M 37.5,68.74982 18.75,60.93732" style="fill:none;stroke:#3b4449;stroke-width:2;stroke-linecap:round;stroke-miterlimit:6"/><path d="M 75,0 75,50" style="fill:none;stroke:#3b4449;stroke-width:2;stroke-linecap:round;stroke-miterlimit:6"/><path d="M 0,50 18.75,50" style="fill:none;stroke:#3b4449;stroke-width:2;stroke-linecap:round;stroke-miterlimit:6"/><path d="M 75,100 75,87.5" style="fill:none;stroke:#3b4449;stroke-width:2;stroke-linecap:round;stroke-miterlimit:6"/><path d="M 62.541994,86.57912 71.596207,85.85612 65.583676,79.04572" style="fill:#3b4449;fill-rule:evenodd;stroke:none"/><path d="M 25.041798,67.82902 34.096012,67.10602 28.083481,60.29562" style="fill:#3b4449;fill-rule:evenodd;stroke:none"/></svg>