<?xml version="1.0" encoding="UTF-8" standalone="no"?><svg xmlns:svg="http://www.w3.org/2000/svg" xmlns="http://www.w3.org/2000/svg" version="1.1" width="100" height="100" ><path d="M 50,12.5 50,0" style="fill:none;stroke:#3b4449;stroke-width:2;stroke-linecap:round;stroke-miterlimit:6"/><path d="M 12.5,50 0,50" style="fill:none;stroke:#3b4449;stroke-width:2;stroke-linecap:round;stroke-miterlimit:6"/><path d="M 50,87.5 50,100" style="fill:none;stroke:#3b4449;stroke-width:2;stroke-linecap:round;stroke-miterlimit:6"/><path d="M 87.5,50 100,50" style="fill:none;stroke:#3b4449;stroke-width:2;stroke-linecap:round;stroke-miterlimit:6"/><path d="M 50,12.5 87.5,50 50,87.5 12.5,50 50,12.5" style="fill:#ffffff;stroke:#3b4449;stroke-width:2;stroke-linecap:round;stroke-miterlimit:6"/><path d="M 50.623818,22.00026 49.376181,22.00026 49.376181,27.42181 44,27.42181 44,28.66945 49.376181,28.66945 49.376181,34.091 50.623818,34.091 50.623818,28.66945 56,28.66945 56,27.42181 50.623818,27.42181 50.623818,22.00026" style="font-size:15px;font-variant:normal;font-weight:normal;writing-mode:lr-tb;fill:#3b4449;fill-rule:nonzero;stroke:none"/><path d="M 44.05671,71.32982 44.05671,72.57752 55.943289,72.57752 55.943289,71.32982 44.05671,71.32982" style="font-size:15px;font-variant:normal;font-weight:normal;writing-mode:lr-tb;fill:#3b4449;fill-rule:nonzero;stroke:none"/><path d="M 33.375,50 C 28.000001,65.86932 28.000001,34.13069 22.625,50" style="fill:none;stroke:#3b4449;stroke-width:1.25;stroke-linecap:round;stroke-miterlimit:6"/><path d="M 77.375,50 C 72.000001,65.86942 72.000001,34.13067 66.625,50" style="fill:none;stroke:#3b4449;stroke-width:1.25;stroke-linecap:round;stroke-miterlimit:6"/></svg>