<?xml version="1.0" encoding="UTF-8" standalone="no"?><svg xmlns:svg="http://www.w3.org/2000/svg" xmlns="http://www.w3.org/2000/svg" version="1.1" width="50" height="100" ><path d="M 25,54.68752 25,100" style="fill:none;stroke:#3b4449;stroke-width:2;stroke-linecap:round;stroke-miterlimit:6"/><path d="M 25,45.31248 25,0" style="fill:none;stroke:#3b4449;stroke-width:2;stroke-linecap:round;stroke-miterlimit:6"/><path d="M 50,45.31248 0,45.31248" style="fill:none;stroke:#3b4449;stroke-width:2;stroke-linecap:round;stroke-miterlimit:6"/><path d="M 48.514615,59.68552 C 41.112527,56.39162 33.102105,54.68752 25,54.68752 16.897927,54.68752 8.8875054,56.39162 1.4854176,59.68552" style="fill:none;stroke:#3b4449;stroke-width:2;stroke-linecap:round;stroke-miterlimit:6"/><path d="M 0.5,25.5 49.5,25.5 49.5,74.5 0.5,74.5 z" style="opacity:0;fill:#ffffff;stroke:#ffffff;stroke-width:1"/><path d="M 12.239297,29.99626 10.99166,29.99626 10.99166,35.41781 5.6154788,35.41781 5.6154788,36.66545 10.99166,36.66545 10.99166,42.087 12.239297,42.087 12.239297,36.66545 17.615479,36.66545 17.615479,35.41781 12.239297,35.41781 12.239297,29.99626" style="fill:#3b4449;fill-rule:nonzero;stroke:none"/></svg>