<?xml version="1.0" encoding="UTF-8" standalone="no"?><svg xmlns:svg="http://www.w3.org/2000/svg" xmlns="http://www.w3.org/2000/svg" version="1.1" width="50" height="100" ><path d="M 50,50 C 50,36.19373 38.806233,25 25,25 11.193742,25 0,36.19373 0,50 0,63.80632 11.193742,75 25,75 38.806233,75 50,63.80632 50,50" style="fill:#ffffff;stroke:#3b4449;stroke-width:2;stroke-linecap:round;stroke-miterlimit:6"/><path d="M 25,2e-5 25,25" style="fill:none;stroke:#3b4449;stroke-width:2;stroke-linecap:round;stroke-miterlimit:6"/><path d="M 25,100 25,75" style="fill:none;stroke:#3b4449;stroke-width:2;stroke-linecap:round;stroke-miterlimit:6"/><path d="M 25,56.49892 25,35.05936" style="fill:none;stroke:#3b4449;stroke-width:1.49310875;stroke-linecap:round;stroke-miterlimit:6"/><path d="M 20.099545,48.53562 C 23.162335,54.66122 23.162335,56.49892 25,65.68722 26.837665,56.49892 26.837665,54.66122 29.900455,48.53562 26.225105,49.76072 23.774885,49.76072 20.099545,48.53562" style="fill:#3b4449;fill-rule:evenodd;stroke:none"/></svg>