<?xml version="1.0" encoding="UTF-8" standalone="no"?><svg xmlns:svg="http://www.w3.org/2000/svg" xmlns="http://www.w3.org/2000/svg" version="1.1" width="50" height="100" ><path d="M 50,50 C 50,36.1937 38.806847,25 25,25 11.193111,25 0,36.1937 0,50 0,63.80622 11.193111,75 25,75 38.806847,75 50,63.80622 50,50" style="fill:#ffffff;stroke:#3b4449;stroke-width:2;stroke-linecap:round;stroke-miterlimit:6"/><path d="M 25,0 25,25" style="fill:none;stroke:#3b4449;stroke-width:2;stroke-linecap:round;stroke-miterlimit:6"/><path d="M 25,100 25,75" style="fill:none;stroke:#3b4449;stroke-width:2;stroke-linecap:round;stroke-miterlimit:6"/><path d="M 21.5,62.43343 C 23.687504,65.73837 23.687504,66.729863 25,71.68722 26.312496,66.729863 26.312496,65.73837 28.5,62.43343 25.874994,63.094407 24.124999,63.094407 21.5,62.43343" style="fill:#3b4449;fill-rule:evenodd;stroke:none"/><path d="M 25,63.033204 25,31.786389" style="fill:none;stroke:#3b4449;stroke-width:1.80241489;stroke-linecap:round;stroke-miterlimit:6"/><path d="M 35.775862,50 C 25,82.327587 25,17.672414 14.224138,50" style="fill:none;stroke:#ffffff;stroke-width:5;stroke-linecap:round;stroke-miterlimit:6"/><path d="M 35.775862,50 C 25,82.327587 25,17.672414 14.224138,50" style="fill:none;stroke:#3b4449;stroke-width:1.7241379;stroke-linecap:round;stroke-miterlimit:6"/></svg>