<?xml version="1.0" encoding="UTF-8" standalone="no"?><svg xmlns:svg="http://www.w3.org/2000/svg" xmlns="http://www.w3.org/2000/svg" version="1.2" width="50" height="50" ><path d="M 5.5,44.5 44.5,44.5 44.5,5.5 5.5,5.5 5.5,44.5 z" style="fill:#ffffff;stroke:#3b4449;stroke-width:1.5;stroke-linecap:round;stroke-miterlimit:6"/><path d="M 2.5,30 5.2,30" style="fill:none;stroke:#3b4449;stroke-width:1.3;stroke-linecap:round;stroke-miterlimit:6"/><path d="M 2.5,40 5.2,40" style="fill:none;stroke:#3b4449;stroke-width:1.3;stroke-linecap:round;stroke-miterlimit:6"/><path d="M 2.5,10 5.2,10" style="fill:none;stroke:#3b4449;stroke-width:1.3;stroke-linecap:round;stroke-miterlimit:6"/><path d="M 2.5,20 5.2,20" style="fill:none;stroke:#3b4449;stroke-width:1.3;stroke-linecap:round;stroke-miterlimit:6"/><path d="M 44.8,30 47.5,30" style="fill:none;stroke:#3b4449;stroke-width:1.3;stroke-linecap:round;stroke-miterlimit:6"/><path d="M 44.8,40 47.5,40" style="fill:none;stroke:#3b4449;stroke-width:1.3;stroke-linecap:round;stroke-miterlimit:6"/><path d="M 44.8,10 47.5,10" style="fill:none;stroke:#3b4449;stroke-width:1.3;stroke-linecap:round;stroke-miterlimit:6"/><path d="M 44.8,20 47.5,20" style="fill:none;stroke:#3b4449;stroke-width:1.3;stroke-linecap:round;stroke-miterlimit:6"/><path d="M 12.631592,18.577392 C 12.297602,18.340093 11.926997,18.221441 11.519775,18.221435 10.860592,18.221441 10.306882,18.536382 9.858642,19.166259 9.413328,19.793217 9.190672,20.489017 9.190674,21.253662 9.190672,21.748781 9.312254,22.144288 9.55542,22.440185 9.798581,22.736085 10.13696,22.884034 10.570556,22.884033 11.244381,22.884034 11.773189,22.700928 12.156982,22.334716 L 12.13501,23.341064 C 11.71899,23.704345 11.119869,23.885986 10.337646,23.885986 9.640378,23.885986 9.077879,23.65747 8.650146,23.200439 8.222411,22.740479 8.008544,22.144288 8.008545,21.411865 8.008544,20.228275 8.336669,19.235112 8.99292,18.432373 9.652097,17.629644 10.51196,17.228278 11.57251,17.228271 12.09106,17.228278 12.55102,17.313239 12.952392,17.483154 L 12.631592,18.577392" style="text-anchor:middle;fill:#3b4449;stroke:none"/><path d="M 18.379638,21.794189 C 18.256586,22.4563 17.948969,22.970459 17.456787,23.33667 16.964595,23.702881 16.355221,23.885986 15.628662,23.885986 15.022215,23.885986 14.527098,23.740966 14.14331,23.450927 13.76245,23.157959 13.572021,22.755128 13.572021,22.242431 13.572021,22.08716 13.588134,21.921632 13.620361,21.745849 L 14.428955,17.338134 15.606689,17.338134 14.784912,21.723877 C 14.770262,21.80298 14.762937,21.886476 14.762939,21.974365 14.762937,22.264405 14.852293,22.488526 15.031006,22.646728 15.209714,22.804932 15.452878,22.884034 15.760498,22.884033 16.153073,22.884034 16.479733,22.7771 16.740478,22.563232 17.001216,22.349366 17.166744,22.049074 17.23706,21.662353 L 18.04126,17.338134 19.201416,17.338134 18.379638,21.794189" style="text-anchor:middle;fill:#3b4449;stroke:none"/><path d="M 23.121338,18.608154 C 22.78149,18.359136 22.435787,18.234624 22.084228,18.234619 21.378171,18.234624 21.025144,18.501226 21.025146,19.034423 21.025144,19.260014 21.212644,19.529545 21.587646,19.843017 L 22.25122,20.405517 C 22.456295,20.581302 22.598385,20.710208 22.67749,20.792236 22.756588,20.87134 22.840084,20.982668 22.927978,21.12622 23.015865,21.269778 23.081783,21.414797 23.125732,21.561279 23.169673,21.707765 23.191646,21.857179 23.19165,22.009521 23.191646,22.598389 22.970455,23.05835 22.528076,23.389404 22.08862,23.720459 21.517331,23.885986 20.814209,23.885986 20.237059,23.885986 19.692138,23.761474 19.179443,23.512451 L 19.548584,22.383056 C 19.941161,22.678956 20.396727,22.826905 20.915283,22.826904 21.228757,22.826905 21.488034,22.760987 21.693115,22.62915 21.90112,22.494386 22.005124,22.303956 22.005127,22.057861 22.005124,21.814699 21.817624,21.546633 21.442627,21.253662 L 20.752685,20.704345 C 20.541746,20.534427 20.398192,20.41138 20.322021,20.335205 20.248778,20.259036 20.171141,20.153568 20.089111,20.018798 20.007079,19.881107 19.945555,19.740482 19.904541,19.596923 19.863524,19.453373 19.843016,19.305424 19.843017,19.153076 19.843016,18.561284 20.039305,18.092535 20.431885,17.746826 20.824461,17.401129 21.33862,17.228278 21.974365,17.228271 22.185299,17.228278 22.45483,17.25318 22.782959,17.302978 23.11108,17.34986 23.34106,17.404059 23.4729,17.465576 L 23.121338,18.608154" style="text-anchor:middle;fill:#3b4449;stroke:none"/><path d="M 29.620849,18.340088 27.590576,18.340088 26.597412,23.776123 25.44165,23.776123 26.434814,18.340088 24.386963,18.340088 24.571533,17.338134 29.809814,17.338134 29.620849,18.340088" style="text-anchor:middle;fill:#3b4449;stroke:none"/><path d="M 29.515381,21.381103 C 29.51538,20.235599 29.827392,19.257084 30.451416,18.445556 31.078367,17.631109 31.892819,17.223883 32.894775,17.223877 33.665278,17.223883 34.25854,17.428961 34.67456,17.839111 35.09057,18.246343 35.298577,18.836674 35.298584,19.610107 35.298577,20.878665 34.979242,21.908449 34.340576,22.699463 33.701899,23.490478 32.827389,23.885986 31.717041,23.885986 31.037351,23.885986 30.499754,23.65747 30.104248,23.200439 29.711669,22.740479 29.51538,22.134034 29.515381,21.381103 M 30.701904,21.262451 C 30.701902,21.75757 30.800047,22.151613 30.996338,22.44458 31.192625,22.737549 31.479734,22.884034 31.857666,22.884033 32.554928,22.884034 33.105709,22.570557 33.51001,21.943603 33.914301,21.316652 34.11645,20.568118 34.116455,19.697998 34.11645,18.713628 33.682856,18.221441 32.815674,18.221435 32.206295,18.221441 31.700925,18.543706 31.29956,19.188232 30.901121,19.832767 30.701902,20.524173 30.701904,21.262451" style="text-anchor:middle;fill:#3b4449;stroke:none"/><path d="M 40.857666,23.776123 40.782959,20.291259 38.827392,23.864013 38.42749,23.864013 37.790283,20.256103 36.441162,23.776123 35.338135,23.776123 37.72876,17.338134 38.370361,17.338134 39.020752,21.420654 41.147705,17.338134 41.806885,17.338134 41.991455,23.776123 40.857666,23.776123" style="text-anchor:middle;fill:#3b4449;stroke:none"/><path d="M 16.35376,30.411865 15.918701,32.776123 14.749756,32.776123 15.962646,26.346923 C 16.574949,26.282477 17.042234,26.25025 17.364502,26.250244 19.066646,26.25025 19.917719,26.890386 19.917724,28.170654 19.917719,28.891361 19.658442,29.458255 19.139892,29.871338 18.624263,30.281496 17.95483,30.486574 17.131592,30.486572 16.867917,30.486574 16.60864,30.461672 16.35376,30.411865 M 16.91626,27.31372 16.533935,29.436279 C 16.683347,29.477298 16.873777,29.497806 17.105224,29.497802 17.603268,29.497806 17.998776,29.390872 18.291748,29.177002 18.584712,28.963138 18.731197,28.655521 18.731201,28.25415 18.731197,27.577397 18.347408,27.239019 17.579834,27.239013 17.374753,27.239019 17.153562,27.263921 16.91626,27.31372" style="text-anchor:middle;fill:#3b4449;stroke:none"/><path d="M 22.892822,32.776123 22.690674,31.466552 20.387939,31.466552 19.63208,32.776123 18.441162,32.776123 22.352295,26.250244 22.760986,26.250244 24.08374,32.776123 22.892822,32.776123 M 22.198486,28.20581 20.875732,30.609619 22.563232,30.609619 22.198486,28.20581" style="text-anchor:middle;fill:#3b4449;stroke:none"/><path d="M 28.091552,29.924072 29.528564,32.776123 28.240967,32.776123 27.010498,30.113037 C 26.811277,30.11011 26.566648,30.098391 26.276611,30.07788 L 25.780029,32.776123 24.602295,32.776123 25.780029,26.338134 C 26.635496,26.294196 27.19653,26.272223 27.463134,26.272216 28.157467,26.272223 28.705318,26.406988 29.106689,26.676513 29.510981,26.943121 29.713129,27.329839 29.713134,27.83667 29.713129,28.352299 29.56518,28.800541 29.269287,29.181396 28.976313,29.559329 28.583736,29.806887 28.091552,29.924072 M 26.777588,27.326904 26.447998,29.128662 C 26.620847,29.146243 26.774656,29.155033 26.909424,29.155029 28.016842,29.155033 28.570552,28.80347 28.570556,28.100341 28.570552,27.804448 28.463619,27.594976 28.249756,27.471923 28.038814,27.345952 27.687252,27.282964 27.195068,27.282959 27.15405,27.282964 27.01489,27.297613 26.777588,27.326904" style="text-anchor:middle;fill:#3b4449;stroke:none"/><path d="M 35.412841,27.340088 33.382568,27.340088 32.389404,32.776123 31.233642,32.776123 32.226806,27.340088 30.178955,27.340088 30.363525,26.338134 35.601806,26.338134 35.412841,27.340088" style="text-anchor:middle;fill:#3b4449;stroke:none"/></svg>