<?xml version="1.0" encoding="UTF-8" standalone="no"?><svg xmlns:svg="http://www.w3.org/2000/svg" xmlns="http://www.w3.org/2000/svg" version="1.2" width="50" height="100" ><path d="M 12.5,0 37.5,25 37.5,75 12.5,100 12.5,0" style="fill:#ffffff;stroke:#3b4449;stroke-width:2;stroke-linecap:round;stroke-miterlimit:5.9000001"/><path d="M 0,25 12.5,25" style="fill:none;stroke:#3b4449;stroke-width:2;stroke-linecap:round;stroke-miterlimit:5.9000001"/><path d="M 0,75 12.5,75" style="fill:none;stroke:#3b4449;stroke-width:2;stroke-linecap:round;stroke-miterlimit:5.9000001"/><path d="M 25,100 25,87.5" style="fill:none;stroke:#3b4449;stroke-width:2;stroke-linecap:round;stroke-miterlimit:5.9000001"/><path d="M 37.5,50 50,50" style="fill:none;stroke:#3b4449;stroke-width:2;stroke-linecap:round;stroke-miterlimit:5.9000001"/><path d="M 16.264,27.08832 C 16.264,25.00109 16.676434,23.2716 17.501305,21.89985 18.326172,20.52356 19.486002,19.8354 20.980797,19.83539 22.817379,19.8354 23.735672,20.82661 23.73568,22.80903 23.735672,25.07401 23.339188,26.8673 22.546227,28.18891 21.757809,29.50597 20.59798,30.1645 19.066735,30.1645 18.17806,30.1645 17.487631,29.89334 16.995446,29.35102 16.507815,28.80415 16.264,28.04991 16.264,27.08832 M 18.109703,26.84223 C 18.109701,28.01346 18.465169,28.59907 19.17611,28.59907 20.051105,28.59907 20.721026,28.05219 21.185875,26.95844 21.650713,25.8647 21.883135,24.52257 21.883141,22.93207 21.883135,21.91125 21.50488,21.40083 20.748375,21.40082 19.946288,21.40083 19.305989,21.98417 18.827477,23.15082 18.348959,24.31294 18.109701,25.54341 18.109703,26.84223" style="fill:#3b4449;stroke:none"/><path d="M 20.34864,80.02792 18.496101,80.02792 19.794929,73.02792 17.792,74.00552 18.065437,72.19402 C 19.687829,71.47392 20.79525,70.73342 21.387703,69.97232 L 22.208015,69.97232 20.34864,80.02792" style="fill:#3b4449;stroke:none"/></svg>