<?xml version="1.0" encoding="UTF-8" standalone="no"?><svg xmlns:svg="http://www.w3.org/2000/svg" xmlns="http://www.w3.org/2000/svg" version="1.2" width="150" height="100" ><path d="M 12.5,87.5 137.5,87.5 137.5,12.5 12.5,12.5 z" style="fill:#ffffff;stroke:#3b4449;stroke-width:2;stroke-linecap:round;stroke-miterlimit:6"/><path d="M 0,25 12.5,25" style="fill:none;stroke:#3b4449;stroke-width:2;stroke-linecap:round;stroke-miterlimit:6"/><path d="M 12.5,75 0,75" style="fill:none;stroke:#3b4449;stroke-width:2;stroke-linecap:round;stroke-miterlimit:6"/><path d="M 137.5,25 150,25" style="fill:none;stroke:#3b4449;stroke-width:2;stroke-linecap:round;stroke-miterlimit:6"/><path d="M 150,75 137.5,75" style="fill:none;stroke:#3b4449;stroke-width:2;stroke-linecap:round;stroke-miterlimit:6"/><path d="M 127.9369,30.130149 C 127.5951,30.21218 127.22368,30.253195 126.82264,30.253196 125.72433,30.253195 124.87668,29.906842 124.27967,29.214133 123.68722,28.516869 123.391,27.553003 123.391,26.322532 123.391,24.531522 123.87635,23.000273 124.84705,21.728782 125.81775,20.45275 127.08468,19.814729 128.64784,19.814719 129.84184,19.814729 130.76241,20.138297 131.40955,20.785422 132.06124,21.428009 132.38708,22.348581 132.38709,23.547141 132.38708,24.959907 132.1182,26.21316 131.58045,27.306907 131.04268,28.400658 130.27706,29.179954 129.28358,29.644797 129.47498,30.032167 129.80538,30.332948 130.27479,30.547141 130.74418,30.76589 131.24548,30.875265 131.7787,30.875266 132.33923,30.875265 132.86104,30.711203 133.34413,30.383079 L 134.00038,31.449485 C 133.41703,32.183207 132.55798,32.550068 131.42323,32.550071 130.65304,32.550068 129.94894,32.32904 129.31092,31.886985 128.67745,31.449483 128.21945,30.863872 127.9369,30.130149 M 125.2367,26.137961 C 125.2367,26.926376 125.38937,27.548446 125.69471,28.004172 126.0046,28.455346 126.4535,28.680931 127.04139,28.68093 128.12146,28.680931 128.97595,28.191023 129.60487,27.211204 130.23377,26.23139 130.54822,25.057888 130.54823,23.690696 130.54822,22.150339 129.87602,21.380157 128.53163,21.380149 127.5837,21.380157 126.79757,21.886016 126.17323,22.897727 125.54887,23.904895 125.2367,24.984972 125.2367,26.137961" style="fill:#3b4449;stroke:none"/><path d="M 127.9369,80.130078 C 127.5951,80.212109 127.22368,80.253124 126.82264,80.253125 125.72433,80.253124 124.87668,79.906771 124.27967,79.214062 123.68722,78.516798 123.391,77.552932 123.391,76.322461 123.391,74.531451 123.87635,73.000202 124.84705,71.728711 125.81775,70.452679 127.08468,69.814658 128.64784,69.814648 129.84184,69.814658 130.76241,70.138226 131.40955,70.785351 132.06124,71.427938 132.38708,72.34851 132.38709,73.54707 132.38708,74.959836 132.1182,76.213089 131.58045,77.306836 131.04268,78.400587 130.27706,79.179883 129.28358,79.644726 129.47498,80.032096 129.80538,80.332877 130.27479,80.54707 130.74418,80.765819 131.24548,80.875194 131.7787,80.875195 132.33923,80.875194 132.86104,80.711132 133.34413,80.383008 L 134.00038,81.449414 C 133.41703,82.183136 132.55798,82.549997 131.42323,82.55 130.65304,82.549997 129.94894,82.328969 129.31092,81.886914 128.67745,81.449412 128.21945,80.863801 127.9369,80.130078 M 125.2367,76.13789 C 125.2367,76.926305 125.38937,77.548375 125.69471,78.004101 126.0046,78.455275 126.4535,78.68086 127.04139,78.680859 128.12146,78.68086 128.97595,78.190952 129.60487,77.211133 130.23377,76.231319 130.54822,75.057817 130.54823,73.690625 130.54822,72.150268 129.87602,71.380086 128.53163,71.380078 127.5837,71.380086 126.79757,71.885945 126.17323,72.897656 125.54887,73.904824 125.2367,74.984901 125.2367,76.13789" style="fill:#3b4449;stroke:none"/><path d="M 124.86667,68.533499 124.86667,67.104788 133.17233,67.104788 133.17233,68.533499 124.86667,68.533499" style="fill:#3b4449;stroke:none"/><path d="M 87.5,87.5 75,75 62.5,87.5" style="fill:none;stroke:#3b4449;stroke-width:2;stroke-linecap:round;stroke-miterlimit:6"/><path d="M 75,100 75,87.5" style="fill:none;stroke:#3b4449;stroke-width:2;stroke-linecap:round;stroke-miterlimit:6"/><path d="M 71.693359,62.413086 C 71.173821,62.043954 70.597324,61.859384 69.963867,61.859375 68.938471,61.859384 68.077144,62.349292 67.379883,63.329102 66.687172,64.304368 66.340818,65.386724 66.34082,66.576172 66.340818,67.346357 66.529945,67.961591 66.908203,68.421875 67.286455,68.882163 67.812821,69.112306 68.487305,69.112305 69.535476,69.112306 70.358066,68.827476 70.955078,68.257812 L 70.920898,69.823242 C 70.273756,70.388346 69.341791,70.670898 68.125,70.670898 67.040361,70.670898 66.165362,70.31543 65.5,69.604492 64.834634,68.888999 64.501952,67.961591 64.501953,66.822266 64.501952,64.981125 65.012369,63.436205 66.033203,62.1875 67.05859,60.938812 68.396154,60.314463 70.045898,60.314453 70.852532,60.314463 71.568026,60.446625 72.192383,60.710937 L 71.693359,62.413086" style="fill:#3b4449;stroke:none"/><path d="M 78.973633,70.5 72.657227,70.5 74.496094,60.485352 76.287109,60.485352 74.735352,68.941406 79.260742,68.941406 78.973633,70.5" style="fill:#3b4449;stroke:none"/><path d="M 85.296875,64.887695 87.785156,70.5 85.782227,70.5 83.90918,66.220703 82.487305,67.786133 81.981445,70.5 80.204102,70.5 82.042969,60.485352 83.820312,60.485352 82.993164,65.038086 87.149414,60.485352 89.254883,60.485352 85.296875,64.887695" style="fill:#3b4449;stroke:none"/><path d="M 16.041015,27.64209 17.606445,27.64209 C 17.597329,28.225425 17.841144,28.517091 18.33789,28.51709 18.7207,28.517091 19.03971,28.453289 19.294921,28.325684 19.550126,28.198081 19.739254,28.006675 19.862304,27.751465 19.989904,27.491702 20.124344,26.967614 20.265625,26.179199 L 21.407226,19.924317 23.170898,19.924317 22.02246,26.186035 C 21.735345,27.753746 21.29101,28.795086 20.689453,29.310059 20.092443,29.820476 19.240231,30.075684 18.132812,30.075684 17.485675,30.075684 16.968423,29.904785 16.581054,29.562988 16.193684,29.216635 16,28.744956 16,28.147949 16,28.011233 16.013671,27.842613 16.041015,27.64209" style="font-size:14px;font-style:italic;font-variant:normal;font-weight:bold;font-stretch:normal;line-height:125%;letter-spacing:0px;word-spacing:0px;fill:#3b4449;stroke:none;font-family:Trebuchet MS;-inkscape-font-specification:Sans Italic"/><path d="M 21.092773,74.32666 23.581054,79.938965 21.578125,79.938965 19.705078,75.659668 18.283203,77.225098 17.777343,79.938965 16,79.938965 17.838867,69.924317 19.616211,69.924317 18.789062,74.477051 22.945312,69.924317 25.050781,69.924317 21.092773,74.32666" style="font-size:14px;font-style:italic;font-variant:normal;font-weight:bold;font-stretch:normal;line-height:125%;letter-spacing:0px;word-spacing:0px;fill:#3b4449;stroke:none;font-family:Trebuchet MS;-inkscape-font-specification:Sans Italic"/></svg>