<?xml version="1.0" encoding="UTF-8" standalone="no"?><svg xmlns:svg="http://www.w3.org/2000/svg" xmlns="http://www.w3.org/2000/svg" version="1.2" width="75" height="50" ><path d="M 45,25 C 45,13.95448 36.044999,5 25,5 13.954999,5 5,13.95448 5,25 5,36.04552 13.954999,45 25,45 36.044999,45 45,36.04552 45,25" style="fill:#ffffff;stroke:#3b4449;stroke-width:2;stroke-linecap:round;stroke-miterlimit:5.9000001"/><path d="M 75,25 45,25" style="fill:none;stroke:#3b4449;stroke-width:2;stroke-linecap:round;stroke-miterlimit:5.9000001"/><path d="M 17.5285,29.176758 C 17.528498,25.002289 18.353367,21.543308 20.003109,18.799805 21.652843,16.047219 23.972502,14.670919 26.962093,14.670898 30.635256,14.670919 32.471843,16.653339 32.471859,20.618164 32.471843,25.148122 31.678875,28.734707 30.092953,31.37793 28.516118,34.012045 26.196458,35.329101 23.133968,35.329101 21.35662,35.329101 19.975762,34.786784 18.99139,33.702148 18.016128,32.608401 17.528498,31.099939 17.5285,29.176758 M 21.219906,28.68457 C 21.219901,31.027022 21.930838,32.198245 23.352718,32.198242 25.10271,32.198245 26.442552,31.104496 27.37225,28.916992 28.301925,26.7295 28.766768,24.045258 28.766781,20.864258 28.766768,18.822607 28.010259,17.801775 26.49725,17.801758 24.893074,17.801775 23.612477,18.96844 22.655453,21.301758 21.698416,23.625988 21.219901,26.086923 21.219906,28.68457" style="fill:#3b4449;stroke:none"/></svg>