<?xml version="1.0" encoding="UTF-8" standalone="no"?><svg xmlns:svg="http://www.w3.org/2000/svg" xmlns="http://www.w3.org/2000/svg" version="1.1" width="125" height="100" ><path d="M 0,87.58682 C 8.1610901,76.75672 12.576823,63.56152 12.576823,50 12.576823,36.43842 8.1610901,23.24327 0,12.41317" style="fill:none;stroke:#3b4449;stroke-width:2;stroke-linecap:round;stroke-miterlimit:6"/><path d="M 6.958,75 0.0853583,75" style="fill:none;stroke:#3b4449;stroke-width:2;stroke-linecap:round;stroke-miterlimit:6"/><path d="M 6.958,25 0.0853583,25" style="fill:none;stroke:#3b4449;stroke-width:2;stroke-linecap:round;stroke-miterlimit:6"/><path d="M 125,50 100.22442,50" style="fill:none;stroke:#3b4449;stroke-width:2;stroke-linecap:round;stroke-miterlimit:6"/><path d="M 1.5550207,11.055022 104.44498,11.055022 104.44498,88.944979 1.5550207,88.944979" style="opacity:0;fill:#ffffff;stroke:#ffffff;stroke-width:2.11004138"/><path d="M 12.5,87.5 35.15625,87.5 C 61.95,87.5 86.710417,73.20422 100.10833,50 86.710417,26.79583 61.95,12.5 35.15625,12.5 L 12.5,12.5 C 20.58125,23.225 25,36.4292 25,50 25,63.57082 20.58125,76.77502 12.5,87.5" style="fill:#ffffff;stroke:#3b4449;stroke-width:2;stroke-linecap:round;stroke-miterlimit:6"/></svg>