<?xml version="1.0" encoding="UTF-8" standalone="no"?><svg xmlns:svg="http://www.w3.org/2000/svg" xmlns="http://www.w3.org/2000/svg" version="1.1" width="125" height="100" ><path d="M 62.5,12.5 12.5,12.5 12.5,87.5 62.5,87.5" style="fill:#ffffff;stroke:#3b4449;stroke-width:2;stroke-linecap:round;stroke-miterlimit:6"/><path d="M 112.5,50 C 112.5,46.548 109.70208,43.75 106.25,43.75 102.79792,43.75 100,46.548 100,50 100,53.45222 102.79792,56.25002 106.25,56.25002 109.70208,56.25002 112.5,53.45222 112.5,50" style="fill:#ffffff;stroke:#3b4449;stroke-width:2;stroke-linecap:round;stroke-miterlimit:6"/><path d="M 62.5,87.5 C 83.210417,87.5 100,70.71052 100,50 100,29.28967 83.210417,12.5 62.5,12.5" style="fill:#ffffff;stroke:#3b4449;stroke-width:2;stroke-linecap:round;stroke-miterlimit:6"/><path d="M 12.5,25 0,25" style="fill:none;stroke:#3b4449;stroke-width:2;stroke-linecap:round;stroke-miterlimit:6"/><path d="M 12.5,75 0,75" style="fill:none;stroke:#3b4449;stroke-width:2;stroke-linecap:round;stroke-miterlimit:6"/><path d="M 125,50 112.5,50" style="fill:none;stroke:#3b4449;stroke-width:2;stroke-linecap:round;stroke-miterlimit:6"/></svg>