<?xml version="1.0" encoding="UTF-8" standalone="no"?><svg xmlns:svg="http://www.w3.org/2000/svg" xmlns="http://www.w3.org/2000/svg" version="1.1" width="100" height="75" ><path d="M 12.5,62.5 87.5,62.5 87.5,0 12.5,0 12.5,62.5 z" style="fill:#ffffff;stroke:#3b4449;stroke-width:2;stroke-linecap:round;stroke-miterlimit:6"/><path d="M 0,25 12.5,25" style="fill:none;stroke:#3b4449;stroke-width:2;stroke-linecap:round;stroke-miterlimit:6"/><path d="M 100,25 87.5,25" style="fill:none;stroke:#3b4449;stroke-width:2;stroke-linecap:round;stroke-miterlimit:6"/><path d="M 62.5,62.5 50,50 37.5,62.5" style="fill:none;stroke:#3b4449;stroke-width:2;stroke-linecap:round;stroke-miterlimit:6"/><path d="M 50,75 50,62.5" style="fill:none;stroke:#3b4449;stroke-width:2;stroke-linecap:round;stroke-miterlimit:6"/><path d="M 46.693359,37.413086 C 46.173821,37.043954 45.597324,36.859384 44.963867,36.859375 43.938471,36.859384 43.077144,37.349292 42.379883,38.329102 41.687172,39.304368 41.340818,40.386724 41.34082,41.576172 41.340818,42.346357 41.529945,42.961591 41.908203,43.421875 42.286455,43.882163 42.812821,44.112306 43.487305,44.112305 44.535476,44.112306 45.358066,43.827476 45.955078,43.257812 L 45.920898,44.823242 C 45.273756,45.388346 44.341791,45.670898 43.125,45.670898 42.040361,45.670898 41.165362,45.31543 40.5,44.604492 39.834634,43.888999 39.501952,42.961591 39.501953,41.822266 39.501952,39.981125 40.012369,38.436205 41.033203,37.1875 42.05859,35.938812 43.396154,35.314463 45.045898,35.314453 45.852532,35.314463 46.568026,35.446625 47.192383,35.710937 L 46.693359,37.413086" style="fill:#3b4449;stroke:none"/><path d="M 53.973633,45.5 47.657227,45.5 49.496094,35.485352 51.287109,35.485352 49.735352,43.941406 54.260742,43.941406 53.973633,45.5" style="fill:#3b4449;stroke:none"/><path d="M 60.296875,39.887695 62.785156,45.5 60.782227,45.5 58.90918,41.220703 57.487305,42.786133 56.981445,45.5 55.204102,45.5 57.042969,35.485352 58.820312,35.485352 57.993164,40.038086 62.149414,35.485352 64.254883,35.485352 60.296875,39.887695" style="fill:#3b4449;stroke:none"/><path d="M 18.419922,30.086 16,30.086 17.825195,20.09186 C 18.490557,19.97338 19.114905,19.914136 19.698242,19.914125 21.224929,19.914136 22.405267,20.262768 23.239258,20.960024 24.073234,21.657298 24.490226,22.666737 24.490234,23.988344 24.490226,25.843166 23.938794,27.324284 22.835937,28.431704 21.733067,29.534569 20.261063,30.086 18.419922,30.086 M 19.308594,21.534243 18.091797,28.493227 C 18.292315,28.511458 18.474607,28.520572 18.638672,28.520571 19.860022,28.520572 20.830724,28.089909 21.550781,27.228579 22.270827,26.367254 22.630852,25.262112 22.630859,23.913149 22.630852,23.174875 22.38248,22.582427 21.885742,22.135805 21.388992,21.689199 20.750972,21.465892 19.97168,21.465883 19.752926,21.465892 19.531897,21.488678 19.308594,21.534243" style="fill:#3b4449;stroke:none"/><path d="M 77.936897,30.229078 C 77.595095,30.311109 77.223677,30.352125 76.822639,30.352125 75.724329,30.352125 74.876674,30.005771 74.279671,29.313063 73.687222,28.615799 73.390998,27.651932 73.390999,26.421461 73.390998,24.630451 73.876349,23.099202 74.847054,21.827711 75.817753,20.551679 77.084679,19.913659 78.647835,19.913649 79.841838,19.913659 80.76241,20.237226 81.409554,20.884352 82.061237,21.526938 82.387083,22.44751 82.387093,23.64607 82.387083,25.058836 82.118203,26.31209 81.580452,27.405836 81.042683,28.499588 80.277059,29.278884 79.283577,29.743727 79.474976,30.131096 79.80538,30.431877 80.274788,30.64607 80.744181,30.86482 81.245482,30.974195 81.778694,30.974195 82.339231,30.974195 82.861041,30.810132 83.344124,30.482008 L 84.000374,31.548414 C 83.41703,32.282136 82.557981,32.648998 81.423225,32.649 80.653035,32.648998 79.948934,32.427969 79.310921,31.985914 78.677451,31.548413 78.219444,30.962801 77.936897,30.229078 M 75.236702,26.236891 C 75.236699,27.025305 75.389368,27.647375 75.69471,28.103102 76.004602,28.554275 76.453495,28.779861 77.041389,28.77986 78.121462,28.779861 78.975953,28.289953 79.604866,27.310133 80.233765,26.330319 80.548217,25.156818 80.548225,23.789625 80.548217,22.249268 79.876018,21.479087 78.531624,21.479078 77.583702,21.479087 76.79757,21.984946 76.173225,22.996656 75.548873,24.003824 75.236699,25.083901 75.236702,26.236891" style="fill:#3b4449;stroke:none"/></svg>