<?xml version="1.0" encoding="UTF-8" standalone="no"?><svg xmlns:svg="http://www.w3.org/2000/svg" xmlns="http://www.w3.org/2000/svg" version="1.1" width="125" height="100" ><path d="M 112.5,50 C 112.5,46.54801 109.70208,43.75001 106.25,43.75001 102.79792,43.75001 100,46.54801 100,50 100,53.45212 102.79792,56.25002 106.25,56.25002 109.70208,56.25002 112.5,53.45212 112.5,50" style="fill:#ffffff;stroke:#3b4449;stroke-width:2;stroke-linecap:round;stroke-miterlimit:6"/><path d="M 125,50 112.5,50" style="fill:none;stroke:#3b4449;stroke-width:2;stroke-linecap:round;stroke-miterlimit:6"/><path d="M 0,25 19.57043,25" style="fill:none;stroke:#3b4449;stroke-width:2;stroke-linecap:round;stroke-miterlimit:6"/><path d="M 0,75 19.475728,75" style="fill:none;stroke:#3b4449;stroke-width:2;stroke-linecap:round;stroke-miterlimit:6"/><path d="M 10.503657,11.003658 103.49634,11.003658 103.49634,88.996343 10.503657,88.996343" style="opacity:0;fill:#ffffff;stroke:#ffffff;stroke-width:2.00731277"/><path d="M 12.5,87.5 35.15625,87.5 C 61.95,87.5 86.710417,73.20422 100.10833,50 86.710417,26.79583 61.95,12.5 35.15625,12.5 L 12.5,12.5 C 20.58125,23.225 25,36.4292 25,50 25,63.57082 20.58125,76.77502 12.5,87.5" style="fill:#ffffff;stroke:#3b4449;stroke-width:2;stroke-linecap:round;stroke-miterlimit:6"/></svg>