<?xml version="1.0" encoding="UTF-8" standalone="no"?><svg xmlns:svg="http://www.w3.org/2000/svg" xmlns="http://www.w3.org/2000/svg" version="1.2" width="125" height="100" ><path d="M 12.5,87.5 112.5,87.5 112.5,12.5 12.5,12.5 12.5,87.5 z" style="fill:#ffffff;stroke:#3b4449;stroke-width:2;stroke-linecap:round;stroke-miterlimit:6"/><path d="M 0,25 12.5,25" style="fill:none;stroke:#3b4449;stroke-width:2;stroke-linecap:round;stroke-miterlimit:6"/><path d="M 12.5,75 0,75" style="fill:none;stroke:#3b4449;stroke-width:2;stroke-linecap:round;stroke-miterlimit:6"/><path d="M 112.5,25 125,25" style="fill:none;stroke:#3b4449;stroke-width:2;stroke-linecap:round;stroke-miterlimit:6"/><path d="M 125,75 112.5,75" style="fill:none;stroke:#3b4449;stroke-width:2;stroke-linecap:round;stroke-miterlimit:6"/><path d="M 22.131836,21.968039 C 21.603185,21.580678 21.065425,21.386993 20.518555,21.386985 19.420244,21.386993 18.871091,21.801707 18.871094,22.631125 18.871091,22.982044 19.162757,23.401314 19.746094,23.888938 L 20.778321,24.763938 C 21.097326,25.03738 21.318354,25.237901 21.441407,25.3655 21.564448,25.488552 21.69433,25.661729 21.831055,25.885032 21.967767,26.108343 22.070306,26.333929 22.138672,26.561789 22.207025,26.789657 22.241205,27.022079 22.241211,27.259055 22.241205,28.175073 21.89713,28.890567 21.208985,29.405539 20.525386,29.920514 19.636715,30.178 18.542969,30.178 17.645181,30.178 16.797525,29.984316 16,29.596946 L 16.574219,27.84011 C 17.184895,28.300398 17.893553,28.530541 18.700196,28.530539 19.187822,28.530541 19.591142,28.428002 19.910157,28.222922 20.23372,28.013289 20.395503,27.717065 20.395508,27.33425 20.395503,26.955998 20.103837,26.539006 19.520508,26.083274 L 18.447266,25.228782 C 18.119139,24.964464 17.895831,24.773058 17.777344,24.654563 17.66341,24.536079 17.542642,24.372016 17.415039,24.162375 17.287434,23.948189 17.191731,23.729439 17.12793,23.506125 17.064127,23.282825 17.032226,23.052682 17.032227,22.815696 17.032226,21.895131 17.337564,21.165965 17.948242,20.628196 18.558917,20.090445 19.358721,19.821565 20.347657,19.821555 20.675777,19.821565 21.095047,19.860302 21.605469,19.937766 22.115879,20.010693 22.473626,20.095003 22.678711,20.190696 L 22.131836,21.968039" style="fill:#3b4449;stroke:none"/><path d="M 21.482422,75.570579 23.717774,80.007102 21.714844,80.007102 19.800782,75.864524 C 19.490882,75.859971 19.110348,75.841742 18.65918,75.809836 L 17.886719,80.007102 16.054688,80.007102 17.886719,69.992454 C 19.217445,69.924104 20.090165,69.889925 20.504883,69.889914 21.584955,69.889925 22.437168,70.09956 23.061524,70.518821 23.690422,70.933543 24.004875,71.535105 24.004883,72.323508 24.004875,73.125598 23.774732,73.822863 23.314453,74.415305 22.858717,75.003201 22.248041,75.388291 21.482422,75.570579 M 19.438477,71.530539 18.925782,74.333274 C 19.194658,74.360623 19.433916,74.374295 19.643555,74.374289 21.366206,74.374295 22.227533,73.827421 22.227539,72.733664 22.227533,72.273386 22.061192,71.94754 21.728516,71.756125 21.400385,71.56017 20.853511,71.462189 20.087891,71.46218 20.024085,71.462189 19.807613,71.484975 19.438477,71.530539" style="fill:#3b4449;stroke:none"/><path d="M 102.9369,30.130149 C 102.5951,30.21218 102.22368,30.253195 101.82264,30.253196 100.72433,30.253195 99.876675,29.906842 99.279672,29.214133 98.687223,28.516869 98.390999,27.553003 98.391,26.322532 98.390999,24.531522 98.87635,23.000273 99.847054,21.728782 100.81775,20.45275 102.08468,19.814729 103.64784,19.814719 104.84184,19.814729 105.76241,20.138297 106.40955,20.785422 107.06124,21.428009 107.38708,22.348581 107.38709,23.547141 107.38708,24.959907 107.1182,26.21316 106.58045,27.306907 106.04268,28.400658 105.27706,29.179954 104.28358,29.644797 104.47498,30.032167 104.80538,30.332948 105.27479,30.547141 105.74418,30.76589 106.24548,30.875265 106.7787,30.875266 107.33923,30.875265 107.86104,30.711203 108.34413,30.383079 L 109.00038,31.449485 C 108.41703,32.183207 107.55798,32.550068 106.42323,32.550071 105.65304,32.550068 104.94894,32.32904 104.31092,31.886985 103.67745,31.449483 103.21945,30.863872 102.9369,30.130149 M 100.2367,26.137961 C 100.2367,26.926376 100.38937,27.548446 100.69471,28.004172 101.0046,28.455346 101.4535,28.680931 102.04139,28.68093 103.12146,28.680931 103.97595,28.191023 104.60487,27.211204 105.23377,26.23139 105.54822,25.057888 105.54823,23.690696 105.54822,22.150339 104.87602,21.380157 103.53163,21.380149 102.5837,21.380157 101.79757,21.886016 101.17323,22.897727 100.54887,23.904895 100.2367,24.984972 100.2367,26.137961" style="fill:#3b4449;stroke:none"/><path d="M 102.9369,80.130078 C 102.5951,80.212109 102.22368,80.253124 101.82264,80.253125 100.72433,80.253124 99.876675,79.906771 99.279672,79.214062 98.687223,78.516798 98.390999,77.552932 98.391,76.322461 98.390999,74.531451 98.87635,73.000202 99.847054,71.728711 100.81775,70.452679 102.08468,69.814658 103.64784,69.814648 104.84184,69.814658 105.76241,70.138226 106.40955,70.785351 107.06124,71.427938 107.38708,72.34851 107.38709,73.54707 107.38708,74.959836 107.1182,76.213089 106.58045,77.306836 106.04268,78.400587 105.27706,79.179883 104.28358,79.644726 104.47498,80.032096 104.80538,80.332877 105.27479,80.54707 105.74418,80.765819 106.24548,80.875194 106.7787,80.875195 107.33923,80.875194 107.86104,80.711132 108.34413,80.383008 L 109.00038,81.449414 C 108.41703,82.183136 107.55798,82.549997 106.42323,82.55 105.65304,82.549997 104.94894,82.328969 104.31092,81.886914 103.67745,81.449412 103.21945,80.863801 102.9369,80.130078 M 100.2367,76.13789 C 100.2367,76.926305 100.38937,77.548375 100.69471,78.004101 101.0046,78.455275 101.4535,78.68086 102.04139,78.680859 103.12146,78.68086 103.97595,78.190952 104.60487,77.211133 105.23377,76.231319 105.54822,75.057817 105.54823,73.690625 105.54822,72.150268 104.87602,71.380086 103.53163,71.380078 102.5837,71.380086 101.79757,71.885945 101.17323,72.897656 100.54887,73.904824 100.2367,74.984901 100.2367,76.13789" style="fill:#3b4449;stroke:none"/><path d="M 99.866669,68.533499 99.866669,67.104788 108.17233,67.104788 108.17233,68.533499 99.866669,68.533499" style="fill:#3b4449;stroke:none"/></svg>