<?xml version="1.0" encoding="UTF-8" standalone="no"?><svg xmlns:svg="http://www.w3.org/2000/svg" xmlns="http://www.w3.org/2000/svg" version="1.1" width="50" height="75" ><path d="M 10.93749,25 25,50 39.06251,25" style="fill:#3b4449;fill-rule:evenodd;stroke:none"/><path d="M 25,25 25,0" style="fill:none;stroke:#3b4449;stroke-width:2;stroke-linecap:round;stroke-miterlimit:6"/><path d="M 25,50 25,75" style="fill:none;stroke:#3b4449;stroke-width:2;stroke-linecap:round;stroke-miterlimit:6"/><path d="M 10.93749,50 39.06251,50" style="fill:none;stroke:#3b4449;stroke-width:2;stroke-linecap:round;stroke-miterlimit:6"/><path d="M 11.930008,15.430008 71.069995,15.430008 71.069995,59.569992 11.930008,59.569992 z" style="opacity:0;fill:#ffffff;stroke:#ffffff;stroke-width:0.86001593"/><path d="M 66.94993,57.92282 C 58.66244,55.16032 57.00619,53.50422 47.06244,46.87502 53.6916,56.81872 55.34785,58.47502 58.11035,66.76252 60.32077,62.34372 62.53118,60.13332 66.94993,57.92282" style="fill:#3b4449;fill-rule:evenodd;stroke:none"/><path d="M 73.62493,71.09362 61.12493,58.59362" style="fill:none;stroke:#3b4449;stroke-width:2;stroke-linecap:round;stroke-miterlimit:6"/><path d="M 66.94993,39.17282 C 58.66244,36.41032 57.00619,34.75422 47.06244,28.12502 53.6916,38.06872 55.34785,39.72502 58.11035,48.01252 60.32077,43.59372 62.53118,41.38332 66.94993,39.17282" style="fill:#3b4449;fill-rule:evenodd;stroke:none"/><path d="M 59.56243,40.62502 72.06243,53.12502" style="fill:none;stroke:#3b4449;stroke-width:2;stroke-linecap:round;stroke-miterlimit:6"/></svg>