<?xml version="1.0" encoding="UTF-8" standalone="no"?><svg xmlns:svg="http://www.w3.org/2000/svg" xmlns="http://www.w3.org/2000/svg" version="1.1" width="50" height="75" ><path d="M 10.93749,25 25,50 39.06251,25" style="fill:#3b4449;fill-rule:evenodd;stroke:none"/><path d="M 25,25 25,0" style="fill:none;stroke:#3b4449;stroke-width:2;stroke-linecap:round;stroke-miterlimit:6"/><path d="M 25,50 25,75" style="fill:none;stroke:#3b4449;stroke-width:2;stroke-linecap:round;stroke-miterlimit:6"/><path d="M 10.93749,50 39.06251,50" style="fill:none;stroke:#3b4449;stroke-width:2;stroke-linecap:round;stroke-miterlimit:6"/><path d="M 11.930008,15.430008 71.069995,15.430008 71.069995,59.569992 11.930008,59.569992 z" style="opacity:0;fill:#ffffff;stroke:#ffffff;stroke-width:0.86001593"/><path d="M 54.17498,60.82702 C 62.462477,63.58952 64.118726,65.24582 74.062472,71.87502 67.433308,61.93122 65.777059,60.27502 63.01456,51.98752 60.804144,56.40622 58.593728,58.61672 54.17498,60.82702" style="fill:#3b4449;fill-rule:evenodd;stroke:none"/><path d="M 49.062482,46.87502 61.562476,59.37502" style="fill:none;stroke:#3b4449;stroke-width:2;stroke-linecap:round;stroke-miterlimit:6"/><path d="M 54.17498,42.07702 C 62.462477,44.83952 64.118726,46.49582 74.062472,53.12502 67.433308,43.18122 65.777059,41.52502 63.01456,33.23752 60.804144,37.65622 58.593728,39.86672 54.17498,42.07702" style="fill:#3b4449;fill-rule:evenodd;stroke:none"/><path d="M 49.062482,28.12502 61.562476,40.62502" style="fill:none;stroke:#3b4449;stroke-width:2;stroke-linecap:round;stroke-miterlimit:6"/></svg>