<?xml version="1.0" encoding="UTF-8" standalone="no"?><svg xmlns:svg="http://www.w3.org/2000/svg" xmlns="http://www.w3.org/2000/svg" version="1.2" width="50" height="50" ><path d="M 5,6.5128 5.75,6.5128 11.75,6.5128 12.5,6.5128 12.5,5.0128 11.75,5.0128 5.75,5.0128 5,5.0128 z M 17,6.5128 17.75,6.5128 23.75,6.5128 24.5,6.5128 24.5,5.0128 23.75,5.0128 17.75,5.0128 17,5.0128 z M 29,6.5128 29.75,6.5128 35.75,6.5128 36.5,6.5128 36.5,5.0128 35.75,5.0128 29.75,5.0128 29,5.0128 z M 41,6.5128 41.75,6.5128 43.5,6.5128 43.5,9.2628 43.5,10.0128 45,10.0128 45,9.2628 45,5.7628 45,5.0128 44.25,5.0128 41.75,5.0128 41,5.0128 z M 5,9.7628 5,15.7628 5,16.5128 6.5,16.5128 6.5,15.7628 6.5,9.7628 6.5,9.0128 5,9.0128 z M 43.5,15.2628 43.5,21.2628 43.5,22.0128 45,22.0128 45,21.2628 45,15.2628 45,14.5128 43.5,14.5128 z M 5,21.7628 5,27.7628 5,28.5128 6.5,28.5128 6.5,27.7628 6.5,21.7628 6.5,21.0128 5,21.0128 z M 43.5,27.2628 43.5,33.2628 43.5,34.0128 45,34.0128 45,33.2628 45,27.2628 45,26.5128 43.5,26.5128 z M 5,33.7628 5,39.7628 5,40.5128 6.5,40.5128 6.5,39.7628 6.5,33.7628 6.5,33.0128 5,33.0128 z M 43.5,39.2628 43.5,43.5128 43.25,43.5128 42.5,43.5128 42.5,45.0128 43.25,45.0128 44.25,45.0128 45,45.0128 45,44.2628 45,39.2628 45,38.5128 43.5,38.5128 z M 6.5,45.0128 7.25,45.0128 13.25,45.0128 14,45.0128 14,43.5128 13.25,43.5128 7.25,43.5128 6.5,43.5128 z M 18.5,45.0128 19.25,45.0128 25.25,45.0128 26,45.0128 26,43.5128 25.25,43.5128 19.25,43.5128 18.5,43.5128 z M 30.5,45.0128 31.25,45.0128 37.25,45.0128 38,45.0128 38,43.5128 37.25,43.5128 31.25,43.5128 30.5,43.5128 z" style="fill:#3b4449;stroke:none"/><path d="M 17.408692,24.4189 C 17.750482,24.5693 18.035312,24.8564 18.263184,25.2802 18.495598,25.7041 18.611809,26.1552 18.611817,26.6337 18.611809,27.7867 18.20621,28.6526 17.39502,29.2314 16.583816,29.8056 15.269039,30.0927 13.450684,30.0927 12.853677,30.0927 12.106282,30.0654 11.208496,30.0107 L 13.040528,20.0097 C 13.80615,19.9004 14.487464,19.8457 15.084473,19.8457 17.572747,19.8457 18.816887,20.666 18.816895,22.3066 18.816887,22.7441 18.682447,23.1565 18.413574,23.5439 18.149244,23.9267 17.814284,24.2184 17.408692,24.4189 M 14.585449,21.3974 14.154785,23.8447 C 14.423662,23.8584 14.669756,23.8652 14.893067,23.8652 15.544755,23.8652 16.064285,23.7285 16.45166,23.455 16.839024,23.177 17.032709,22.7783 17.032715,22.2587 17.032709,21.6572 16.504064,21.3564 15.446778,21.3564 15.228023,21.3564 14.940914,21.3701 14.585449,21.3974 M 13.922364,25.1298 13.279785,28.5546 C 13.489418,28.5774 13.689939,28.5888 13.881348,28.5888 14.792802,28.5888 15.508296,28.4339 16.027832,28.124 16.547358,27.8095 16.807123,27.3606 16.807129,26.7773 16.807123,25.6608 16.075679,25.1025 14.612793,25.1025 14.384925,25.1025 14.154782,25.1116 13.922364,25.1298" style="fill:#3b4449;stroke:none"/><path d="M 19.773926,26.2851 C 19.773925,24.5032 20.259276,22.9811 21.229981,21.7187 22.205238,20.4518 23.472164,19.8183 25.030762,19.8183 26.229323,19.8183 27.152173,20.1373 27.799317,20.7753 28.446443,21.4088 28.77001,22.3271 28.77002,23.5302 28.77001,25.5035 28.273266,27.1054 27.279785,28.3359 26.286289,29.5664 24.925938,30.1816 23.198731,30.1816 22.141436,30.1816 21.305174,29.8261 20.689942,29.1152 20.079264,28.3997 19.773925,27.4563 19.773926,26.2851 M 21.619629,26.1005 C 21.619627,26.8707 21.772296,27.4837 22.077637,27.9394 22.382972,28.3951 22.829586,28.623 23.417481,28.623 24.502111,28.623 25.358881,28.1354 25.987793,27.1601 26.616692,26.1849 26.931145,25.0205 26.931153,23.6669 26.931145,22.1357 26.256666,21.3701 24.907715,21.3701 23.959794,21.3701 23.173662,21.8714 22.549317,22.874 21.929522,23.8766 21.619627,24.9521 21.619629,26.1005" style="fill:#3b4449;stroke:none"/><path d="M 34.737793,24.9453 37.096192,30.0107 35.134278,30.0107 33.54834,26.4765 30.854981,30.0107 28.783692,30.0107 32.803223,24.7334 30.895996,19.9892 32.728028,19.996 34.02002,23.332 36.720215,19.996 38.791504,19.996 34.737793,24.9453" style="fill:#3b4449;stroke:none"/></svg>