<?xml version="1.0" encoding="UTF-8" standalone="no"?><svg xmlns:svg="http://www.w3.org/2000/svg" xmlns="http://www.w3.org/2000/svg" version="1.2" width="50" height="50" ><path d="M 15.375,36.789293 12.216797,36.789293 10.671875,45.245348 8.8740234,45.245348 10.418945,36.789293 7.2333984,36.789293 7.5205078,35.2307 15.668945,35.2307 15.375,36.789293" style="fill:#3b4449;stroke:none"/><path d="M 23.749023,36.789293 19.134766,36.789293 18.717773,39.093004 22.026367,39.093004 21.746094,40.583239 18.4375,40.583239 17.876953,43.686754 22.416016,43.686754 22.12207,45.245348 15.750977,45.245348 17.59668,35.2307 24.042969,35.2307 23.749023,36.789293" style="fill:#3b4449;stroke:none"/><path d="M 29.573242,40.179918 31.931641,45.245348 29.969727,45.245348 28.383789,41.711168 25.69043,45.245348 23.619141,45.245348 27.638672,39.968004 25.731445,35.223864 27.563477,35.2307 28.855469,38.566637 31.555664,35.2307 33.626953,35.2307 29.573242,40.179918" style="fill:#3b4449;stroke:none"/><path d="M 42.472656,36.789293 39.314453,36.789293 37.769531,45.245348 35.97168,45.245348 37.516602,36.789293 34.331055,36.789293 34.618164,35.2307 42.766602,35.2307 42.472656,36.789293" style="fill:#3b4449;stroke:none"/><path d="M 18.109375,32.33889 18.109375,30.211937 21.589844,30.211937 21.589844,8.5029529 14.400391,8.5029529 14.400391,12.65139 11.992188,12.65139 11.992188,6.0947499 38.007813,6.0947499 38.007813,12.65139 35.634766,12.65139 35.634766,8.5029529 28.392578,8.5029529 28.392578,30.211937 31.890625,30.211937 31.890625,32.33889 18.109375,32.33889" style="fill:#3b4449;stroke:none"/></svg>