<?xml version="1.0" encoding="UTF-8" standalone="no"?><svg xmlns:svg="http://www.w3.org/2000/svg" xmlns="http://www.w3.org/2000/svg" version="1.1" width="100" height="50" ><path d="M 85.9375,25 C 85.9375,22.4104 83.839583,20.3124 81.25,20.3124 78.660417,20.3124 76.5625,22.4104 76.5625,25 76.5625,27.5896 78.660417,29.6876 81.25,29.6876 83.839583,29.6876 85.9375,27.5896 85.9375,25" style="fill:none;stroke:#3b4449;stroke-width:2;stroke-linecap:round;stroke-miterlimit:4"/><path d="M 23.4375,25 C 23.4375,22.4104 21.339583,20.3124 18.75,20.3124 16.160417,20.3124 14.0625,22.4104 14.0625,25 14.0625,27.5896 16.160417,29.6876 18.75,29.6876 21.339583,29.6876 23.4375,27.5896 23.4375,25" style="fill:none;stroke:#3b4449;stroke-width:2;stroke-linecap:round;stroke-miterlimit:4"/><path d="M 71.875,25 C 50,62.5 50,-12.5 28.125,25" style="fill:none;stroke:#3b4449;stroke-width:1;stroke-linecap:round;stroke-miterlimit:3.79999995"/><path d="M 28.125,25 23.4375,25" style="fill:none;stroke:#3b4449;stroke-width:1;stroke-linecap:round;stroke-miterlimit:4"/><path d="M 76.5625,25 71.875,25" style="fill:none;stroke:#3b4449;stroke-width:1;stroke-linecap:round;stroke-miterlimit:4"/><path d="M 0,25 14,25" style="fill:none;stroke:#3b4449;stroke-width:2;stroke-linecap:round;stroke-miterlimit:4"/><path d="M 100,25 86,25" style="fill:none;stroke:#3b4449;stroke-width:2;stroke-linecap:round;stroke-miterlimit:4"/><path d="M 10.5,10.5 89.5,10.5 89.5,39.5 10.5,39.5 z" style="opacity:0;fill:#ffffff;stroke:#ffffff;stroke-width:0.99999994"/></svg>