<?xml version="1.0" encoding="UTF-8" standalone="no"?><svg xmlns:svg="http://www.w3.org/2000/svg" xmlns="http://www.w3.org/2000/svg" version="1.1" width="50" height="100" ><path d="M 25,64.06172 C 40.625333,67.18682 40.625333,79.68702 25,82.81202" style="fill:none;stroke:#3b4449;stroke-width:2;stroke-linecap:round;stroke-miterlimit:6"/><path d="M 25,64.06172 C 9.3746668,60.93652 9.3746668,70.31182 25,67.18682" style="fill:none;stroke:#3b4449;stroke-width:2;stroke-linecap:round;stroke-miterlimit:6"/><path d="M 25,17.18572 C 40.625333,20.31078 40.625333,32.81104 25,35.93611" style="fill:none;stroke:#3b4449;stroke-width:2;stroke-linecap:round;stroke-miterlimit:6"/><path d="M 25,32.81104 C 40.625333,35.93611 40.625333,48.43642 25,51.56152" style="fill:none;stroke:#3b4449;stroke-width:2;stroke-linecap:round;stroke-miterlimit:6"/><path d="M 25,48.43642 C 40.625333,51.56152 40.625333,64.06172 25,67.18682" style="fill:none;stroke:#3b4449;stroke-width:2;stroke-linecap:round;stroke-miterlimit:6"/><path d="M 25,32.81104 C 9.3746668,29.68599 9.3746668,39.06117 25,35.93611" style="fill:none;stroke:#3b4449;stroke-width:2;stroke-linecap:round;stroke-miterlimit:6"/><path d="M 25,48.43642 C 9.3746668,45.31131 9.3746668,54.68652 25,51.56152" style="fill:none;stroke:#3b4449;stroke-width:2;stroke-linecap:round;stroke-miterlimit:6"/><path d="M 25,100 25,82.81202" style="fill:none;stroke:#3b4449;stroke-width:2;stroke-linecap:round;stroke-miterlimit:6"/><path d="M 25,0 25,17.18572" style="fill:none;stroke:#3b4449;stroke-width:2;stroke-linecap:round;stroke-miterlimit:6"/><path d="M 12.038952,15.038952 37.961048,15.038952 37.961048,84.961048 12.038952,84.961048 z" style="opacity:0;fill:#ffffff;stroke:#ffffff;stroke-width:1.07790375"/></svg>