<?xml version="1.0" encoding="UTF-8" standalone="no"?><svg xmlns:svg="http://www.w3.org/2000/svg" xmlns="http://www.w3.org/2000/svg" version="1.1" width="250" height="250" ><path d="M 237.5,125 12.5,12.5 12.5,237.5 z" style="fill:#ffffff;stroke:#3b4449;stroke-width:2;stroke-linecap:round;stroke-miterlimit:6"/><path d="M 20.241317,199.1521 20.241317,200.8479 36.397536,200.8479 36.397536,199.1521 20.241317,199.1521" style="fill:#3b4449;fill-rule:nonzero;stroke:none"/><path d="M 29.136487,41.78316 27.440701,41.78316 27.440701,49.15214 20.133404,49.15214 20.133404,50.84794 27.440701,50.84794 27.440701,58.21684 29.136487,58.21684 29.136487,50.84794 36.443785,50.84794 36.443785,49.15214 29.136487,49.15214 29.136487,41.78316" style="fill:#3b4449;fill-rule:nonzero;stroke:none"/><path d="M 250,125 237.5,125" style="fill:none;stroke:#3b4449;stroke-width:2;stroke-linecap:round;stroke-miterlimit:6"/><path d="M 0,200 12.5,200" style="fill:none;stroke:#3b4449;stroke-width:2;stroke-linecap:round;stroke-miterlimit:6"/><path d="M 12.5,175 0,175" style="fill:none;stroke:#3b4449;stroke-width:2;stroke-linecap:round;stroke-miterlimit:6"/><path d="M 75,206.5 75,225" style="fill:none;stroke:#3b4449;stroke-width:2;stroke-linecap:round;stroke-miterlimit:6"/><path d="M 75,25 75,43.5" style="fill:none;stroke:#3b4449;stroke-width:2;stroke-linecap:round;stroke-miterlimit:6"/><path d="M 12.5,75 0,75" style="fill:none;stroke:#3b4449;stroke-width:2;stroke-linecap:round;stroke-miterlimit:6"/><path d="M 12.5,50 0,50" style="fill:none;stroke:#3b4449;stroke-width:2;stroke-linecap:round;stroke-miterlimit:6"/><path d="M 175,156.5 175,175" style="fill:none;stroke:#3b4449;stroke-width:2;stroke-linecap:round;stroke-miterlimit:6"/></svg>