<?xml version="1.0" encoding="UTF-8" standalone="no"?><svg xmlns:svg="http://www.w3.org/2000/svg" xmlns="http://www.w3.org/2000/svg" version="1.2" width="50" height="50" ><path d="M 11.346641,35.206214 5.7781746,46.166369 28.052038,35.206214 z" style="fill:#3b4449;stroke:#3b4449;stroke-width:1px;stroke-linecap:butt;stroke-linejoin:round"/><path d="m 11.433244,2.7996502 27.133512,0 c 4.432,0 7.999999,3.568 7.999999,7.9999998 l 0,16.4007 c 0,4.432 -3.567999,8 -7.999999,8 l -27.133512,0 c -4.4319997,0 -7.9999993,-3.568 -7.9999993,-8 l 0,-16.4007 c 0,-4.4319998 3.5679996,-7.9999998 7.9999993,-7.9999998 z" id="rect3861" style="fill:#ffffff;stroke:#3b4449;stroke-width:2;stroke-linecap:round;stroke-miterlimit:4"/><path d="m 14.827881,17.455742 -4.513184,-5.884277 0,5.763671 -1.5869138,0 0,-9.3056636 0.793457,0 4.3925778,5.6113276 0,-5.6113276 1.586914,0 0,9.4262696 z" style="fill:#3b4449;stroke:none"/><path d="m 22.838623,17.328789 -0.679199,-1.885254 -3.186524,0 -0.647461,1.885254 -1.834472,0 3.707031,-9.4262698 0.723633,0 3.738769,9.4262698 z m -2.278809,-6.58252 -1.117187,3.434082 2.234375,0 z" style="fill:#3b4449;stroke:none"/><path d="m 34.308838,17.335136 -1.599609,0 -0.964844,-5.014648 -1.872559,5.135254 -0.590332,0 -1.872558,-5.135254 -1.00293,5.014648 -1.593262,0 1.872559,-9.3056636 0.875976,0 2.012207,6.2651366 1.967774,-6.2651366 0.869629,0 z" style="fill:#3b4449;stroke:none"/><path d="m 36.987549,9.4957809 0,2.1772461 3.072265,0 0,1.402832 -3.072265,0 0,2.786621 4.214844,0 0,1.466309 -5.865235,0 0,-9.2993166 5.935059,0 0,1.4663085 z" style="fill:#3b4449;stroke:none"/><path d="m 15.043701,30.065742 -4.513183,-5.884277 0,5.763672 -1.5869145,0 0,-9.305664 0.793457,0 4.3925785,5.611328 0,-5.611328 1.586914,0 0,9.426269 z" style="fill:#3b4449;stroke:none"/><path d="m 17.182861,25.209785 c 0,-1.324538 0.362874,-2.444898 1.088623,-3.361084 0.725747,-0.916169 1.695879,-1.374258 2.910401,-1.374267 1.337234,9e-6 2.359205,0.414722 3.065918,1.24414 0.706697,0.829435 1.06005,1.993171 1.060058,3.491211 -8e-6,1.49805 -0.36923,2.687177 -1.107666,3.567383 -0.73845,0.880209 -1.786871,1.320312 -3.145263,1.320313 -1.248376,-10e-7 -2.205813,-0.435873 -2.872315,-1.307618 -0.666505,-0.871742 -0.999756,-2.065101 -0.999756,-3.580078 z m 1.713868,0 c -3e-6,1.087569 0.184079,1.929691 0.552246,2.526367 0.368161,0.596682 0.903479,0.895021 1.605957,0.89502 0.82519,1e-6 1.454665,-0.291991 1.888427,-0.875977 0.43375,-0.583981 0.650628,-1.43245 0.650635,-2.54541 -7e-6,-2.179355 -0.804042,-3.269035 -2.412109,-3.269043 -0.736332,8e-6 -1.301273,0.295174 -1.694824,0.885498 -0.393558,0.590339 -0.590335,1.384853 -0.590332,2.383545 z" style="fill:#3b4449;stroke:none"/><path d="m 28.830811,29.938789 -2.062989,0 0,-9.292969 c 1.316079,-0.04654 2.143389,-0.06981 2.481934,-0.06982 1.354162,10e-6 2.427973,0.396738 3.221435,1.190186 0.79345,0.793464 1.190178,1.846116 1.190186,3.157959 -8e-6,3.3431 -1.610195,5.014648 -4.830566,5.014648 z m -0.412598,-7.852051 0,6.347657 c 0.266599,0.02539 0.554359,0.03809 0.863281,0.03809 0.833655,1e-6 1.486405,-0.30257 1.958252,-0.907715 0.471837,-0.605141 0.707758,-1.451494 0.707764,-2.539063 -6e-6,-1.988925 -0.924647,-2.98339 -2.773926,-2.983398 -0.177738,8e-6 -0.429528,0.01482 -0.755371,0.04443 z" style="fill:#3b4449;stroke:none"/><path d="m 36.771729,22.105781 0,2.177246 3.072265,0 0,1.402832 -3.072265,0 0,2.786622 4.214843,0 0,1.466308 -5.865234,0 0,-9.299316 5.935058,0 0,1.466308 z" style="fill:#3b4449;stroke:none"/></svg>