<?xml version="1.0" encoding="UTF-8" standalone="no"?><svg xmlns:svg="http://www.w3.org/2000/svg" xmlns="http://www.w3.org/2000/svg" version="1.1" width="150" height="150" ><path d="M 137.5,75 12.5,12.5 12.5,137.5 137.5,75 z" style="fill:#ffffff;stroke:#3b4449;stroke-width:2;stroke-linecap:round;stroke-miterlimit:6"/><path d="M 20.241317,49.30424 20.241317,51.00004 36.397536,51.00004 36.397536,49.30424 20.241317,49.30424" style="fill:#3b4449;fill-rule:nonzero;stroke:none"/><path d="M 29.136487,91.78334 27.440701,91.78334 27.440701,99.15232 20.133404,99.15232 20.133404,100.84812 27.440701,100.84812 27.440701,108.21702 29.136487,108.21702 29.136487,100.84812 36.443785,100.84812 36.443785,99.15232 29.136487,99.15232 29.136487,91.78334" style="fill:#3b4449;fill-rule:nonzero;stroke:none"/><path d="M 150,75 137.5,75" style="fill:none;stroke:#3b4449;stroke-width:2;stroke-linecap:round;stroke-miterlimit:6"/><path d="M 0,100 12.5,100" style="fill:none;stroke:#3b4449;stroke-width:2;stroke-linecap:round;stroke-miterlimit:6"/><path d="M 12.5,50 0,50" style="fill:none;stroke:#3b4449;stroke-width:2;stroke-linecap:round;stroke-miterlimit:6"/><path d="M 75,106.5 75,125" style="fill:none;stroke:#3b4449;stroke-width:2;stroke-linecap:round;stroke-miterlimit:6"/><path d="M 75,25 75,43.5" style="fill:none;stroke:#3b4449;stroke-width:2;stroke-linecap:round;stroke-miterlimit:6"/></svg>