<?xml version="1.0" encoding="UTF-8" standalone="no"?><svg xmlns:svg="http://www.w3.org/2000/svg" xmlns="http://www.w3.org/2000/svg" version="1.1" width="75" height="50" ><path d="M 23.437501,25 C 23.437501,22.4105 21.338751,20.3125 18.750001,20.3125 16.161251,20.3125 14.0625,22.4105 14.0625,25 14.0625,27.5896 16.161251,29.6875 18.750001,29.6875 21.338751,29.6875 23.437501,27.5896 23.437501,25" style="fill:none;stroke:#3b4449;stroke-width:2;stroke-linecap:round;stroke-miterlimit:6"/><path d="M 14.0625,25 6.25,25" style="fill:none;stroke:#3b4449;stroke-width:2;stroke-linecap:round;stroke-miterlimit:6"/><path d="M 51.562501,25 C 51.562501,27.5896 53.661251,29.6875 56.250001,29.6875 58.838751,29.6875 60.937502,27.5896 60.937502,25 60.937502,22.4105 58.838751,20.3125 56.250001,20.3125 53.661251,20.3125 51.562501,22.4105 51.562501,25" style="fill:none;stroke:#3b4449;stroke-width:2;stroke-linecap:round;stroke-miterlimit:6"/><path d="M 60.937502,25 68.75,25" style="fill:none;stroke:#3b4449;stroke-width:2;stroke-linecap:round;stroke-miterlimit:6"/><path d="M 75,25 68.75,25" style="fill:none;stroke:#3b4449;stroke-width:2;stroke-linecap:round;stroke-miterlimit:6"/><path d="M 62.5,37.8815 12.5,37.8815" style="fill:none;stroke:#3b4449;stroke-width:3;stroke-linecap:round;stroke-miterlimit:6"/><path d="M 37.5,6.6315 37.5,37.8815" style="fill:none;stroke:#3b4449;stroke-width:2;stroke-linecap:round;stroke-miterlimit:6"/><path d="M 0,25 6.25,25" style="fill:none;stroke:#3b4449;stroke-width:2;stroke-linecap:round;stroke-miterlimit:6"/><path d="M 43.75,6.6315 31.25,6.6315" style="fill:none;stroke:#3b4449;stroke-width:2;stroke-linecap:round;stroke-miterlimit:6"/><path d="M 3,0.5 72,0.5 72,39.5 3,39.5 z" style="opacity:0;fill:#ffffff;stroke:none"/></svg>