<?xml version="1.0" encoding="UTF-8" standalone="no"?><svg xmlns:svg="http://www.w3.org/2000/svg" xmlns="http://www.w3.org/2000/svg" version="1.1" width="75" height="50" ><path d="M 23.437499,25 C 23.437499,22.4106 21.338749,20.3128 18.749999,20.3128 16.161249,20.3128 14.062499,22.4106 14.062499,25 14.062499,27.5899 16.161249,29.688 18.749999,29.688 21.338749,29.688 23.437499,27.5899 23.437499,25" style="fill:none;stroke:#3b4449;stroke-width:2;stroke-linecap:round;stroke-miterlimit:6"/><path d="M 14.062499,25 6.25,25" style="fill:none;stroke:#3b4449;stroke-width:2;stroke-linecap:round;stroke-miterlimit:6"/><path d="M 51.562498,25 C 51.562498,27.5899 53.661248,29.688 56.249998,29.688 58.838749,29.688 60.937499,27.5899 60.937499,25 60.937499,22.4106 58.838749,20.3128 56.249998,20.3128 53.661248,20.3128 51.562498,22.4106 51.562498,25" style="fill:none;stroke:#3b4449;stroke-width:2;stroke-linecap:round;stroke-miterlimit:6"/><path d="M 60.937499,25 68.75,25" style="fill:none;stroke:#3b4449;stroke-width:2;stroke-linecap:round;stroke-miterlimit:6"/><path d="M 75,25 68.75,25" style="fill:none;stroke:#3b4449;stroke-width:2;stroke-linecap:round;stroke-miterlimit:6"/><path d="M 62.5,12.1421 12.5,12.1421" style="fill:none;stroke:#3b4449;stroke-width:3;stroke-linecap:round;stroke-miterlimit:6"/><path d="M 37.5,-0.3581 37.5,12.1421" style="fill:none;stroke:#3b4449;stroke-width:2;stroke-linecap:round;stroke-miterlimit:6"/><path d="M 0,25 6.25,25" style="fill:none;stroke:#3b4449;stroke-width:2;stroke-linecap:round;stroke-miterlimit:6"/><path d="M 43.749998,-0.3581 31.249999,-0.3581" style="fill:none;stroke:#3b4449;stroke-width:2;stroke-linecap:round;stroke-miterlimit:6"/><path d="M 3,5.5 72,5.5 72,34.5 3,34.5 z" style="opacity:0;fill:#ffffff;stroke:none"/></svg>