<?xml version="1.0" encoding="UTF-8" standalone="no"?><svg xmlns:svg="http://www.w3.org/2000/svg" xmlns="http://www.w3.org/2000/svg" version="1.2" width="100" height="75" ><path d="M 12.5,62.5 87.5,62.5 87.5,0 12.5,0 12.5,62.5 z" style="fill:#ffffff;stroke:#3b4449;stroke-width:2;stroke-linecap:round;stroke-miterlimit:6"/><path d="M 0,25 12.5,25" style="fill:none;stroke:#3b4449;stroke-width:2;stroke-linecap:round;stroke-miterlimit:6"/><path d="M 100,25 87.5,25" style="fill:none;stroke:#3b4449;stroke-width:2;stroke-linecap:round;stroke-miterlimit:6"/><path d="M 24.007719,47.976625 22.22354,47.976625 24.062407,37.961977 25.853423,37.961977 24.007719,47.976625" style="fill:#3b4449;stroke:none"/><path d="M 33.277251,48.113344 32.586821,48.113344 28.895415,41.639711 27.787993,47.976625 26.024321,47.976625 27.863188,37.961977 28.683501,37.961977 32.299712,44.169008 33.386626,37.961977 35.143462,37.961977 33.277251,48.113344" style="fill:#3b4449;stroke:none"/><path d="M 52.435454,44.251038 C 52.435453,42.469144 52.920804,40.947009 53.891508,39.684632 54.866766,38.417714 56.133692,37.784251 57.69229,37.784241 58.89085,37.784251 59.813701,38.103261 60.460844,38.741272 61.107971,39.374745 61.431538,40.293039 61.431548,41.496155 61.431538,43.469467 60.934794,45.071353 59.941313,46.301819 58.947816,47.532288 57.587466,48.147522 55.860258,48.147522 54.802964,48.147522 53.966702,47.792054 53.351469,47.081116 52.740791,46.365623 52.435453,45.422265 52.435454,44.251038 M 54.281157,44.066468 C 54.281154,44.836653 54.433824,45.449608 54.739165,45.905335 55.0445,46.361066 55.491114,46.58893 56.079008,46.588929 57.163639,46.58893 58.020408,46.1013 58.649321,45.126038 59.27822,44.150781 59.592673,42.986395 59.59268,41.632874 59.592673,40.101632 58.918194,39.336008 57.569243,39.335999 56.621321,39.336008 55.835189,39.837309 55.210844,40.839905 54.59105,41.842516 54.281154,42.918035 54.281157,44.066468" style="fill:#3b4449;stroke:none"/><path d="M 69.921782,44.893616 C 69.730368,45.923566 69.251852,46.723371 68.486235,47.29303 67.720604,47.862693 66.772688,48.147522 65.642485,48.147522 64.699123,48.147522 63.928941,47.921937 63.331938,47.470765 62.739489,47.015036 62.443265,46.38841 62.443266,45.590882 62.443265,45.349349 62.468331,45.091861 62.518462,44.818421 L 63.776274,37.961976 65.608305,37.961976 64.329985,44.784241 C 64.307196,44.907291 64.295803,45.037174 64.295805,45.17389 64.295803,45.625064 64.4348,45.973697 64.712798,46.219788 64.990789,46.465883 65.369044,46.58893 65.847563,46.588929 66.458235,46.58893 66.966373,46.422589 67.371977,46.089905 67.77757,45.757225 68.035057,45.290103 68.144438,44.688538 L 69.395415,37.961976 71.200102,37.961976 69.921782,44.893616" style="fill:#3b4449;stroke:none"/><path d="M 80.380766,39.520569 77.222563,39.520569 75.677641,47.976624 73.87979,47.976624 75.424712,39.520569 72.239165,39.520569 72.526274,37.961976 80.674712,37.961976 80.380766,39.520569" style="fill:#3b4449;stroke:none"/><path d="M 42.5,24.9055 C 30,50.694004 30,-0.8830042 17.5,24.9055" style="fill:none;stroke:#3b4449;stroke-width:1.3;stroke-linecap:round;stroke-miterlimit:6"/><path d="M 82.222662,17.461004 77.217942,17.461004 77.217942,32.35 67.208492,32.35 67.208492,17.461004 57.19905,17.461004 57.19905,32.35 52.194328,32.35" style="fill:none;stroke:#3b4449;stroke-width:1.3;stroke-linecap:round;stroke-linejoin:round;stroke-miterlimit:5.9"/></svg>