<?xml version="1.0" encoding="UTF-8" standalone="no"?><svg xmlns:svg="http://www.w3.org/2000/svg" xmlns="http://www.w3.org/2000/svg" version="1.1" width="125" height="100" ><path d="M 6.25,93.75 112.5,93.75 112.5,6.25 6.25,6.25 6.25,93.75 z" style="fill:#ffffff;stroke:#3b4449;stroke-width:2;stroke-linecap:round;stroke-miterlimit:6"/><path d="M 25,64.06252 C 40.625,67.18752 40.625,79.68752 25,82.81252" style="fill:none;stroke:#3b4449;stroke-width:2;stroke-linecap:round;stroke-miterlimit:6"/><path d="M 25,64.06252 C 9.375,60.93752 9.375,70.31252 25,67.18752" style="fill:none;stroke:#3b4449;stroke-width:2;stroke-linecap:round;stroke-miterlimit:6"/><path d="M 25,17.18754 C 40.625,20.31254 40.625,32.81254 25,35.93754" style="fill:none;stroke:#3b4449;stroke-width:2;stroke-linecap:round;stroke-miterlimit:6"/><path d="M 25,32.81254 C 40.625,35.93754 40.625,48.43752 25,51.56252" style="fill:none;stroke:#3b4449;stroke-width:2;stroke-linecap:round;stroke-miterlimit:6"/><path d="M 25,48.43752 C 40.625,51.56252 40.625,64.06252 25,67.18752" style="fill:none;stroke:#3b4449;stroke-width:2;stroke-linecap:round;stroke-miterlimit:6"/><path d="M 25,32.81254 C 9.375,29.68754 9.375,39.06254 25,35.93754" style="fill:none;stroke:#3b4449;stroke-width:2;stroke-linecap:round;stroke-miterlimit:6"/><path d="M 25,48.43752 C 9.375,45.31254 9.375,54.68752 25,51.56252" style="fill:none;stroke:#3b4449;stroke-width:2;stroke-linecap:round;stroke-miterlimit:6"/><path d="M 25,100 25,82.81252" style="fill:none;stroke:#3b4449;stroke-width:2;stroke-linecap:round;stroke-miterlimit:6"/><path d="M 25,0 25,17.18754" style="fill:none;stroke:#3b4449;stroke-width:2;stroke-linecap:round;stroke-miterlimit:6"/><path d="M 76.562502,22.65629 93.5,81.25002" style="fill:none;stroke:#3b4449;stroke-width:3;stroke-linecap:round;stroke-miterlimit:6"/><path d="M 104.21542,52.35842 C 96.112502,59.40192 85.73646,63.28122 75,63.28122" style="fill:none;stroke:#3b4449;stroke-width:1;stroke-linecap:round;stroke-miterlimit:6"/><path d="M 75,23.43754 C 77.588752,23.43754 79.687502,21.33962 79.687502,18.75004 79.687502,16.16045 77.588752,14.06254 75,14.06254 72.411252,14.06254 70.312502,16.16045 70.312502,18.75004 70.312502,21.33962 72.411252,23.43754 75,23.43754" style="fill:none;stroke:#3b4449;stroke-width:2;stroke-linecap:round;stroke-miterlimit:6"/><path d="M 75,14.06254 75,6.25" style="fill:none;stroke:#3b4449;stroke-width:2;stroke-linecap:round;stroke-miterlimit:6"/><path d="M 78.75,66.25002 C 74.0625,63.90622 72.65625,63.90622 65.625,62.50002 72.65625,61.09372 74.0625,61.09372 78.75,58.75002 77.8125,61.56252 77.8125,63.43752 78.75,66.25002" style="fill:#3b4449;fill-rule:evenodd;stroke:none"/><path d="M 75,76.56252 C 77.588752,76.56252 79.687502,78.66122 79.687502,81.25002 79.687502,83.83872 77.588752,85.93752 75,85.93752 72.411252,85.93752 70.312502,83.83872 70.312502,81.25002 70.312502,78.66122 72.411252,76.56252 75,76.56252" style="fill:none;stroke:#3b4449;stroke-width:2;stroke-linecap:round;stroke-miterlimit:6"/><path d="M 75,85.93752 75,93.75" style="fill:none;stroke:#3b4449;stroke-width:2;stroke-linecap:round;stroke-miterlimit:6"/><path d="M 75,0 75,6.25" style="fill:none;stroke:#3b4449;stroke-width:2;stroke-linecap:round;stroke-miterlimit:6"/><path d="M 75,100 75,93.75" style="fill:none;stroke:#3b4449;stroke-width:2;stroke-linecap:round;stroke-miterlimit:6"/><path d="M 100,76.56252 C 97.411252,76.56252 95.312502,78.66122 95.312502,81.25002 95.312502,83.83872 97.411252,85.93752 100,85.93752 102.58875,85.93752 104.6875,83.83872 104.6875,81.25002 104.6875,78.66122 102.58875,76.56252 100,76.56252" style="fill:none;stroke:#3b4449;stroke-width:2;stroke-linecap:round;stroke-miterlimit:6"/><path d="M 100,85.93752 100,93.75" style="fill:none;stroke:#3b4449;stroke-width:2;stroke-linecap:round;stroke-miterlimit:6"/><path d="M 100,100 100,93.75" style="fill:none;stroke:#3b4449;stroke-width:2;stroke-linecap:round;stroke-miterlimit:6"/><path d="M 49.499887,50 40.5,50" style="fill:none;stroke:#3b4449;stroke-width:1;stroke-linecap:round;stroke-miterlimit:6;stroke-dashoffset:0"/><path d="M 64.499887,50 55.5,50" style="fill:none;stroke:#3b4449;stroke-width:1;stroke-linecap:round;stroke-miterlimit:6;stroke-dashoffset:0"/><path d="M 79.499887,50 70.5,50" style="fill:none;stroke:#3b4449;stroke-width:1;stroke-linecap:round;stroke-miterlimit:6;stroke-dashoffset:0"/></svg>