<?xml version="1.0" encoding="UTF-8" standalone="no"?><svg xmlns:svg="http://www.w3.org/2000/svg" xmlns="http://www.w3.org/2000/svg" version="1.1" width="125" height="100" ><path d="M 6.25,93.75 112.5,93.75 112.5,6.25 6.25,6.25 6.25,93.75 z" style="fill:#ffffff;stroke:#3b4449;stroke-width:2;stroke-linecap:round;stroke-miterlimit:6"/><path d="M 25,64.06252 C 40.624983,67.18752 40.624983,79.68752 25,82.81252" style="fill:none;stroke:#3b4449;stroke-width:2;stroke-linecap:round;stroke-miterlimit:6"/><path d="M 25,64.06252 C 9.3749986,60.93752 9.3749986,70.31252 25,67.18752" style="fill:none;stroke:#3b4449;stroke-width:2;stroke-linecap:round;stroke-miterlimit:6"/><path d="M 25,17.18746 C 40.624983,20.31251 40.624983,32.8125 25,35.9375" style="fill:none;stroke:#3b4449;stroke-width:2;stroke-linecap:round;stroke-miterlimit:6"/><path d="M 25,32.8125 C 40.624983,35.9375 40.624983,48.43752 25,51.56252" style="fill:none;stroke:#3b4449;stroke-width:2;stroke-linecap:round;stroke-miterlimit:6"/><path d="M 25,48.43752 C 40.624983,51.56252 40.624983,64.06252 25,67.18752" style="fill:none;stroke:#3b4449;stroke-width:2;stroke-linecap:round;stroke-miterlimit:6"/><path d="M 25,32.8125 C 9.3749986,29.6875 9.3749986,39.0625 25,35.9375" style="fill:none;stroke:#3b4449;stroke-width:2;stroke-linecap:round;stroke-miterlimit:6"/><path d="M 25,48.43752 C 9.3749986,45.3125 9.3749986,54.68752 25,51.56252" style="fill:none;stroke:#3b4449;stroke-width:2;stroke-linecap:round;stroke-miterlimit:6"/><path d="M 25,100 25,82.81252" style="fill:none;stroke:#3b4449;stroke-width:2;stroke-linecap:round;stroke-miterlimit:6"/><path d="M 25,0 25,17.18746" style="fill:none;stroke:#3b4449;stroke-width:2;stroke-linecap:round;stroke-miterlimit:6"/><path d="M 76.562464,22.65618 100,81.25" style="fill:none;stroke:#3b4449;stroke-width:3;stroke-linecap:round;stroke-miterlimit:6"/><path d="M 104.21537,52.35832 C 96.112454,59.40202 85.73641,63.28122 75,63.28122" style="fill:none;stroke:#3b4449;stroke-width:1;stroke-linecap:round;stroke-miterlimit:6"/><path d="M 75,23.43751 C 77.588714,23.43751 79.687463,21.33951 79.687463,18.74996 79.687463,16.16038 77.588714,14.06246 75,14.06246 72.411216,14.06246 70.312468,16.16038 70.312468,18.74996 70.312468,21.33951 72.411216,23.43751 75,23.43751" style="fill:none;stroke:#3b4449;stroke-width:2;stroke-linecap:round;stroke-miterlimit:6"/><path d="M 75,14.06246 75,6.25" style="fill:none;stroke:#3b4449;stroke-width:2;stroke-linecap:round;stroke-miterlimit:6"/><path d="M 78.750006,66.25002 C 74.062505,63.90622 72.656256,63.90622 65.625006,62.50002 72.656256,61.09372 74.062505,61.09372 78.750006,58.75002 77.812505,61.56252 77.812505,63.43752 78.750006,66.25002" style="fill:#3b4449;fill-rule:evenodd;stroke:none"/><path d="M 75,76.56252 C 77.588714,76.56252 79.687463,78.66032 79.687463,81.25 79.687463,83.83952 77.588714,85.93752 75,85.93752 72.411216,85.93752 70.312468,83.83952 70.312468,81.25 70.312468,78.66032 72.411216,76.56252 75,76.56252" style="fill:none;stroke:#3b4449;stroke-width:2;stroke-linecap:round;stroke-miterlimit:6"/><path d="M 75,85.93752 75,93.75" style="fill:none;stroke:#3b4449;stroke-width:2;stroke-linecap:round;stroke-miterlimit:6"/><path d="M 75,0 75,6.25" style="fill:none;stroke:#3b4449;stroke-width:2;stroke-linecap:round;stroke-miterlimit:6"/><path d="M 75,100 75,93.75" style="fill:none;stroke:#3b4449;stroke-width:2;stroke-linecap:round;stroke-miterlimit:6"/><path d="M 49.499887,50 40.5,50" style="fill:none;stroke:#3b4449;stroke-width:1;stroke-linecap:round;stroke-miterlimit:6;stroke-dashoffset:0"/><path d="M 64.499887,50 55.5,50" style="fill:none;stroke:#3b4449;stroke-width:1;stroke-linecap:round;stroke-miterlimit:6;stroke-dashoffset:0"/><path d="M 79.499887,50 70.5,50" style="fill:none;stroke:#3b4449;stroke-width:1;stroke-linecap:round;stroke-miterlimit:6;stroke-dashoffset:0"/></svg>