<?xml version="1.0" encoding="UTF-8" standalone="no"?><svg xmlns:svg="http://www.w3.org/2000/svg" xmlns="http://www.w3.org/2000/svg" version="1.1" width="175" height="100" ><path d="M 6.25,93.75 162.49997,93.75 162.49997,6.25 6.25,6.25 6.25,93.75 z" style="fill:#ffffff;stroke:#3b4449;stroke-width:2;stroke-linecap:round;stroke-miterlimit:6"/><path d="M 25,64.06252 C 40.624994,67.18752 40.624994,79.68762 25,82.81252" style="fill:none;stroke:#3b4449;stroke-width:2;stroke-linecap:round;stroke-miterlimit:6"/><path d="M 25,64.06252 C 9.3749996,60.93752 9.3749996,70.31252 25,67.18752" style="fill:none;stroke:#3b4449;stroke-width:2;stroke-linecap:round;stroke-miterlimit:6"/><path d="M 25,17.18751 C 40.624994,20.31251 40.624994,32.81251 25,35.93751" style="fill:none;stroke:#3b4449;stroke-width:2;stroke-linecap:round;stroke-miterlimit:6"/><path d="M 25,32.81251 C 40.624994,35.93751 40.624994,48.43752 25,51.56252" style="fill:none;stroke:#3b4449;stroke-width:2;stroke-linecap:round;stroke-miterlimit:6"/><path d="M 25,48.43752 C 40.624994,51.56252 40.624994,64.06252 25,67.18752" style="fill:none;stroke:#3b4449;stroke-width:2;stroke-linecap:round;stroke-miterlimit:6"/><path d="M 25,32.81251 C 9.3749996,29.68751 9.3749996,39.06251 25,35.93751" style="fill:none;stroke:#3b4449;stroke-width:2;stroke-linecap:round;stroke-miterlimit:6"/><path d="M 25,48.43752 C 9.3749996,45.31251 9.3749996,54.68752 25,51.56252" style="fill:none;stroke:#3b4449;stroke-width:2;stroke-linecap:round;stroke-miterlimit:6"/><path d="M 25,100 25,82.81252" style="fill:none;stroke:#3b4449;stroke-width:2;stroke-linecap:round;stroke-miterlimit:6"/><path d="M 25,0 25,17.18751" style="fill:none;stroke:#3b4449;stroke-width:2;stroke-linecap:round;stroke-miterlimit:6"/><path d="M 76.562489,22.65626 99.999986,81.25012" style="fill:none;stroke:#3b4449;stroke-width:3;stroke-linecap:round;stroke-miterlimit:6"/><path d="M 104.2154,52.35832 C 96.112486,59.40212 85.736446,63.28122 75,63.28122" style="fill:none;stroke:#3b4449;stroke-width:1;stroke-linecap:round;stroke-miterlimit:6"/><path d="M 75,23.43751 C 77.588739,23.43751 79.687488,21.33959 79.687488,18.75001 79.687488,16.16043 77.588739,14.06251 75,14.06251 72.411239,14.06251 70.31249,16.16043 70.31249,18.75001 70.31249,21.33959 72.411239,23.43751 75,23.43751" style="fill:none;stroke:#3b4449;stroke-width:2;stroke-linecap:round;stroke-miterlimit:6"/><path d="M 75,14.06251 75,6.25" style="fill:none;stroke:#3b4449;stroke-width:2;stroke-linecap:round;stroke-miterlimit:6"/><path d="M 78.749988,66.25002 C 74.062488,63.90622 72.656239,63.90622 65.62499,62.50002 72.656239,61.09372 74.062488,61.09372 78.749988,58.75002 77.812488,61.56252 77.812488,63.43752 78.749988,66.25002" style="fill:#3b4449;fill-rule:evenodd;stroke:none"/><path d="M 75,76.56252 C 77.588739,76.56252 79.687488,78.66042 79.687488,81.25012 79.687488,83.83952 77.588739,85.93752 75,85.93752 72.411239,85.93752 70.31249,83.83952 70.31249,81.25012 70.31249,78.66042 72.411239,76.56252 75,76.56252" style="fill:none;stroke:#3b4449;stroke-width:2;stroke-linecap:round;stroke-miterlimit:6"/><path d="M 75,85.93752 75,93.75" style="fill:none;stroke:#3b4449;stroke-width:2;stroke-linecap:round;stroke-miterlimit:6"/><path d="M 75,0 75,6.25" style="fill:none;stroke:#3b4449;stroke-width:2;stroke-linecap:round;stroke-miterlimit:6"/><path d="M 75,100 75,93.75" style="fill:none;stroke:#3b4449;stroke-width:2;stroke-linecap:round;stroke-miterlimit:6"/><path d="M 126.56248,22.65626 150,81.25012" style="fill:none;stroke:#3b4449;stroke-width:3;stroke-linecap:round;stroke-miterlimit:6"/><path d="M 154.2154,52.35832 C 146.11248,59.40212 135.73644,63.28122 125,63.28122" style="fill:none;stroke:#3b4449;stroke-width:1;stroke-linecap:round;stroke-miterlimit:6"/><path d="M 125,23.43751 C 127.58873,23.43751 129.68748,21.33959 129.68748,18.75001 129.68748,16.16043 127.58873,14.06251 125,14.06251 122.41124,14.06251 120.31249,16.16043 120.31249,18.75001 120.31249,21.33959 122.41124,23.43751 125,23.43751" style="fill:none;stroke:#3b4449;stroke-width:2;stroke-linecap:round;stroke-miterlimit:6"/><path d="M 125,14.06251 125,6.25" style="fill:none;stroke:#3b4449;stroke-width:2;stroke-linecap:round;stroke-miterlimit:6"/><path d="M 128.74998,66.25002 C 124.06248,63.90622 122.65623,63.90622 115.62499,62.50002 122.65623,61.09372 124.06248,61.09372 128.74998,58.75002 127.81248,61.56252 127.81248,63.43752 128.74998,66.25002" style="fill:#3b4449;fill-rule:evenodd;stroke:none"/><path d="M 125,76.56252 C 127.58873,76.56252 129.68748,78.66042 129.68748,81.25012 129.68748,83.83952 127.58873,85.93752 125,85.93752 122.41124,85.93752 120.31249,83.83952 120.31249,81.25012 120.31249,78.66042 122.41124,76.56252 125,76.56252" style="fill:none;stroke:#3b4449;stroke-width:2;stroke-linecap:round;stroke-miterlimit:6"/><path d="M 125,85.93752 125,93.75" style="fill:none;stroke:#3b4449;stroke-width:2;stroke-linecap:round;stroke-miterlimit:6"/><path d="M 125,0 125,6.25" style="fill:none;stroke:#3b4449;stroke-width:2;stroke-linecap:round;stroke-miterlimit:6"/><path d="M 125,100 125,93.75" style="fill:none;stroke:#3b4449;stroke-width:2;stroke-linecap:round;stroke-miterlimit:6"/><path d="M 49.499887,50 40.5,50" style="fill:none;stroke:#3b4449;stroke-width:1;stroke-linecap:round;stroke-miterlimit:6;stroke-dashoffset:0"/><path d="M 64.499887,50 55.5,50" style="fill:none;stroke:#3b4449;stroke-width:1;stroke-linecap:round;stroke-miterlimit:6;stroke-dashoffset:0"/><path d="M 79.499887,50 70.5,50" style="fill:none;stroke:#3b4449;stroke-width:1;stroke-linecap:round;stroke-miterlimit:6;stroke-dashoffset:0"/><path d="M 94.499887,50 85.5,50" style="fill:none;stroke:#3b4449;stroke-width:1;stroke-linecap:round;stroke-miterlimit:6;stroke-dashoffset:0"/><path d="M 109.49989,50 100.5,50" style="fill:none;stroke:#3b4449;stroke-width:1;stroke-linecap:round;stroke-miterlimit:6;stroke-dashoffset:0"/><path d="M 124.49989,50 115.5,50" style="fill:none;stroke:#3b4449;stroke-width:1;stroke-linecap:round;stroke-miterlimit:6;stroke-dashoffset:0"/></svg>