<?xml version="1.0" encoding="UTF-8" standalone="no"?><svg xmlns:svg="http://www.w3.org/2000/svg" xmlns="http://www.w3.org/2000/svg" version="1.1" width="175" height="100" ><path d="M 6.25,93.75 162.5,93.75 162.5,6.25 6.25,6.25 6.25,93.75 z" style="fill:#ffffff;stroke:#3b4449;stroke-width:2;stroke-linecap:round;stroke-miterlimit:6"/><path d="M 25,64.06252 C 40.624995,67.18752 40.624995,79.68752 25,82.81252" style="fill:none;stroke:#3b4449;stroke-width:2;stroke-linecap:round;stroke-miterlimit:6"/><path d="M 25,64.06252 C 9.3749995,60.93752 9.3749995,70.31252 25,67.18752" style="fill:none;stroke:#3b4449;stroke-width:2;stroke-linecap:round;stroke-miterlimit:6"/><path d="M 25,17.18752 C 40.624995,20.31252 40.624995,32.81252 25,35.93752" style="fill:none;stroke:#3b4449;stroke-width:2;stroke-linecap:round;stroke-miterlimit:6"/><path d="M 25,32.81252 C 40.624995,35.93752 40.624995,48.43752 25,51.56252" style="fill:none;stroke:#3b4449;stroke-width:2;stroke-linecap:round;stroke-miterlimit:6"/><path d="M 25,48.43752 C 40.624995,51.56252 40.624995,64.06252 25,67.18752" style="fill:none;stroke:#3b4449;stroke-width:2;stroke-linecap:round;stroke-miterlimit:6"/><path d="M 25,32.81252 C 9.3749995,29.68752 9.3749995,39.06252 25,35.93752" style="fill:none;stroke:#3b4449;stroke-width:2;stroke-linecap:round;stroke-miterlimit:6"/><path d="M 25,48.43752 C 9.3749995,45.31252 9.3749995,54.68752 25,51.56252" style="fill:none;stroke:#3b4449;stroke-width:2;stroke-linecap:round;stroke-miterlimit:6"/><path d="M 25,100 25,82.81252" style="fill:none;stroke:#3b4449;stroke-width:2;stroke-linecap:round;stroke-miterlimit:6"/><path d="M 25,0 25,17.18752" style="fill:none;stroke:#3b4449;stroke-width:2;stroke-linecap:round;stroke-miterlimit:6"/><path d="M 76.562489,22.65619 93.5,81.25" style="fill:none;stroke:#3b4449;stroke-width:3;stroke-linecap:round;stroke-miterlimit:6"/><path d="M 104.2154,52.35842 C 96.112486,59.40182 85.736437,63.28122 75,63.28122" style="fill:none;stroke:#3b4449;stroke-width:1;stroke-linecap:round;stroke-miterlimit:6"/><path d="M 75,23.43752 C 77.588739,23.43752 79.687488,21.33869 79.687488,18.75002 79.687488,16.16119 77.588739,14.06251 75,14.06251 72.41124,14.06251 70.31249,16.16119 70.31249,18.75002 70.31249,21.33869 72.41124,23.43752 75,23.43752" style="fill:none;stroke:#3b4449;stroke-width:2;stroke-linecap:round;stroke-miterlimit:6"/><path d="M 75,14.06251 75,6.25" style="fill:none;stroke:#3b4449;stroke-width:2;stroke-linecap:round;stroke-miterlimit:6"/><path d="M 78.749988,66.25002 C 74.062489,63.90622 72.656239,63.90622 65.62499,62.50002 72.656239,61.09372 74.062489,61.09372 78.749988,58.75002 77.812488,61.56252 77.812488,63.43752 78.749988,66.25002" style="fill:#3b4449;fill-rule:evenodd;stroke:none"/><path d="M 75,76.56252 C 77.588739,76.56252 79.687488,78.66122 79.687488,81.25 79.687488,83.83872 77.588739,85.93752 75,85.93752 72.41124,85.93752 70.31249,83.83872 70.31249,81.25 70.31249,78.66122 72.41124,76.56252 75,76.56252" style="fill:none;stroke:#3b4449;stroke-width:2;stroke-linecap:round;stroke-miterlimit:6"/><path d="M 75,85.93752 75,93.75" style="fill:none;stroke:#3b4449;stroke-width:2;stroke-linecap:round;stroke-miterlimit:6"/><path d="M 75,0 75,6.25" style="fill:none;stroke:#3b4449;stroke-width:2;stroke-linecap:round;stroke-miterlimit:6"/><path d="M 75,100 75,93.75" style="fill:none;stroke:#3b4449;stroke-width:2;stroke-linecap:round;stroke-miterlimit:6"/><path d="M 100,76.56252 C 97.411236,76.56252 95.312486,78.66122 95.312486,81.25 95.312486,83.83872 97.411236,85.93752 100,85.93752 102.58874,85.93752 104.68748,83.83872 104.68748,81.25 104.68748,78.66122 102.58874,76.56252 100,76.56252" style="fill:none;stroke:#3b4449;stroke-width:2;stroke-linecap:round;stroke-miterlimit:6"/><path d="M 100,85.93752 100,93.75" style="fill:none;stroke:#3b4449;stroke-width:2;stroke-linecap:round;stroke-miterlimit:6"/><path d="M 100,100 100,93.75" style="fill:none;stroke:#3b4449;stroke-width:2;stroke-linecap:round;stroke-miterlimit:6"/><path d="M 126.56248,22.65619 143.5,81.25" style="fill:none;stroke:#3b4449;stroke-width:3;stroke-linecap:round;stroke-miterlimit:6"/><path d="M 154.21539,52.35842 C 146.11248,59.40182 135.73643,63.28122 125,63.28122" style="fill:none;stroke:#3b4449;stroke-width:1;stroke-linecap:round;stroke-miterlimit:6"/><path d="M 125,23.43752 C 127.58873,23.43752 129.68748,21.33869 129.68748,18.75002 129.68748,16.16119 127.58873,14.06251 125,14.06251 122.41123,14.06251 120.31248,16.16119 120.31248,18.75002 120.31248,21.33869 122.41123,23.43752 125,23.43752" style="fill:none;stroke:#3b4449;stroke-width:2;stroke-linecap:round;stroke-miterlimit:6"/><path d="M 125,14.06251 125,6.25" style="fill:none;stroke:#3b4449;stroke-width:2;stroke-linecap:round;stroke-miterlimit:6"/><path d="M 128.74998,66.25002 C 124.06248,63.90622 122.65623,63.90622 115.62498,62.50002 122.65623,61.09372 124.06248,61.09372 128.74998,58.75002 127.81248,61.56252 127.81248,63.43752 128.74998,66.25002" style="fill:#3b4449;fill-rule:evenodd;stroke:none"/><path d="M 125,76.56252 C 127.58873,76.56252 129.68748,78.66122 129.68748,81.25 129.68748,83.83872 127.58873,85.93752 125,85.93752 122.41123,85.93752 120.31248,83.83872 120.31248,81.25 120.31248,78.66122 122.41123,76.56252 125,76.56252" style="fill:none;stroke:#3b4449;stroke-width:2;stroke-linecap:round;stroke-miterlimit:6"/><path d="M 125,85.93752 125,93.75" style="fill:none;stroke:#3b4449;stroke-width:2;stroke-linecap:round;stroke-miterlimit:6"/><path d="M 125,0 125,6.25" style="fill:none;stroke:#3b4449;stroke-width:2;stroke-linecap:round;stroke-miterlimit:6"/><path d="M 125,100 125,93.75" style="fill:none;stroke:#3b4449;stroke-width:2;stroke-linecap:round;stroke-miterlimit:6"/><path d="M 150,76.56252 C 147.41123,76.56252 145.31248,78.66122 145.31248,81.25 145.31248,83.83872 147.41123,85.93752 150,85.93752 152.58873,85.93752 154.68748,83.83872 154.68748,81.25 154.68748,78.66122 152.58873,76.56252 150,76.56252" style="fill:none;stroke:#3b4449;stroke-width:2;stroke-linecap:round;stroke-miterlimit:6"/><path d="M 150,85.93752 150,93.75" style="fill:none;stroke:#3b4449;stroke-width:2;stroke-linecap:round;stroke-miterlimit:6"/><path d="M 150,100 150,93.75" style="fill:none;stroke:#3b4449;stroke-width:2;stroke-linecap:round;stroke-miterlimit:6"/><path d="M 49.499887,50 40.5,50" style="fill:none;stroke:#3b4449;stroke-width:1;stroke-linecap:round;stroke-miterlimit:6;stroke-dashoffset:0"/><path d="M 64.499887,50 55.5,50" style="fill:none;stroke:#3b4449;stroke-width:1;stroke-linecap:round;stroke-miterlimit:6;stroke-dashoffset:0"/><path d="M 79.499887,50 70.5,50" style="fill:none;stroke:#3b4449;stroke-width:1;stroke-linecap:round;stroke-miterlimit:6;stroke-dashoffset:0"/><path d="M 94.499887,50 85.5,50" style="fill:none;stroke:#3b4449;stroke-width:1;stroke-linecap:round;stroke-miterlimit:6;stroke-dashoffset:0"/><path d="M 109.49989,50 100.5,50" style="fill:none;stroke:#3b4449;stroke-width:1;stroke-linecap:round;stroke-miterlimit:6;stroke-dashoffset:0"/><path d="M 124.49989,50 115.5,50" style="fill:none;stroke:#3b4449;stroke-width:1;stroke-linecap:round;stroke-miterlimit:6;stroke-dashoffset:0"/></svg>