<?xml version="1.0" encoding="UTF-8" standalone="no"?><svg xmlns:svg="http://www.w3.org/2000/svg" xmlns="http://www.w3.org/2000/svg" version="1.1" width="100" height="50" ><path d="M 22.65619,23.43752 81.24996,18" style="fill:none;stroke:#3b4449;stroke-width:3;stroke-linecap:round;stroke-miterlimit:6"/><path d="M 23.43752,25 C 23.43752,22.41132 21.33869,20.31252 18.75002,20.31252 16.16119,20.31252 14.06251,22.41132 14.06251,25 14.06251,27.58882 16.16119,29.68752 18.75002,29.68752 21.33869,29.68752 23.43752,27.58882 23.43752,25" style="fill:none;stroke:#3b4449;stroke-width:2;stroke-linecap:round;stroke-miterlimit:6"/><path d="M 14.06251,25 6.25,25" style="fill:none;stroke:#3b4449;stroke-width:2;stroke-linecap:round;stroke-miterlimit:6"/><path d="M 76.56256,25 C 76.56256,22.41132 78.66126,20.31252 81.24996,20.31252 83.83876,20.31252 85.93756,22.41132 85.93756,25 85.93756,27.58882 83.83876,29.68752 81.24996,29.68752 78.66126,29.68752 76.56256,27.58882 76.56256,25" style="fill:none;stroke:#3b4449;stroke-width:2;stroke-linecap:round;stroke-miterlimit:6"/><path d="M 85.93756,25 93.75,25" style="fill:none;stroke:#3b4449;stroke-width:2;stroke-linecap:round;stroke-miterlimit:6"/><path d="M 0,25 6.25,25" style="fill:none;stroke:#3b4449;stroke-width:2;stroke-linecap:round;stroke-miterlimit:6"/><path d="M 100,25 93.75,25" style="fill:none;stroke:#3b4449;stroke-width:2;stroke-linecap:round;stroke-miterlimit:6"/><path d="M 12,5 91,5 91,39 12,39 z" style="opacity:0;fill:#ffffff;stroke:#ffffff;stroke-width:1"/></svg>