<?xml version="1.0" encoding="UTF-8" standalone="no"?><svg xmlns:svg="http://www.w3.org/2000/svg" xmlns="http://www.w3.org/2000/svg" version="1.1" width="100" height="100" ><path d="M 22.65619,73.43752 81.24996,56.50002" style="fill:none;stroke:#3b4449;stroke-width:3;stroke-linecap:round;stroke-miterlimit:6"/><path d="M 23.43752,75 C 23.43752,72.41132 21.33869,70.31252 18.75002,70.31252 16.16119,70.31252 14.06251,72.41132 14.06251,75 14.06251,77.58882 16.16119,79.68752 18.75002,79.68752 21.33869,79.68752 23.43752,77.58882 23.43752,75" style="fill:none;stroke:#3b4449;stroke-width:2;stroke-linecap:round;stroke-miterlimit:6"/><path d="M 14.06251,75 6.25,75" style="fill:none;stroke:#3b4449;stroke-width:2;stroke-linecap:round;stroke-miterlimit:6"/><path d="M 76.56256,75 C 76.56256,72.41132 78.66126,70.31252 81.24996,70.31252 83.83876,70.31252 85.93756,72.41132 85.93756,75 85.93756,77.58882 83.83876,79.68752 81.24996,79.68752 78.66126,79.68752 76.56256,77.58882 76.56256,75" style="fill:none;stroke:#3b4449;stroke-width:2;stroke-linecap:round;stroke-miterlimit:6"/><path d="M 85.93756,75 93.75,75" style="fill:none;stroke:#3b4449;stroke-width:2;stroke-linecap:round;stroke-miterlimit:6"/><path d="M 0,75 6.25,75" style="fill:none;stroke:#3b4449;stroke-width:2;stroke-linecap:round;stroke-miterlimit:6"/><path d="M 100,75 93.75,75" style="fill:none;stroke:#3b4449;stroke-width:2;stroke-linecap:round;stroke-miterlimit:6"/><path d="M 22.65619,23.4375 81.24996,6.5" style="fill:none;stroke:#3b4449;stroke-width:3;stroke-linecap:round;stroke-miterlimit:6"/><path d="M 23.43752,25 C 23.43752,22.41125 21.33869,20.3125 18.75002,20.3125 16.16119,20.3125 14.06251,22.41125 14.06251,25 14.06251,27.58875 16.16119,29.6875 18.75002,29.6875 21.33869,29.6875 23.43752,27.58875 23.43752,25" style="fill:none;stroke:#3b4449;stroke-width:2;stroke-linecap:round;stroke-miterlimit:6"/><path d="M 14.06251,25 6.25,25" style="fill:none;stroke:#3b4449;stroke-width:2;stroke-linecap:round;stroke-miterlimit:6"/><path d="M 76.56256,25 C 76.56256,22.41125 78.66126,20.3125 81.24996,20.3125 83.83876,20.3125 85.93756,22.41125 85.93756,25 85.93756,27.58875 83.83876,29.6875 81.24996,29.6875 78.66126,29.6875 76.56256,27.58875 76.56256,25" style="fill:none;stroke:#3b4449;stroke-width:2;stroke-linecap:round;stroke-miterlimit:6"/><path d="M 85.93756,25 93.75,25" style="fill:none;stroke:#3b4449;stroke-width:2;stroke-linecap:round;stroke-miterlimit:6"/><path d="M 0,25 6.25,25" style="fill:none;stroke:#3b4449;stroke-width:2;stroke-linecap:round;stroke-miterlimit:6"/><path d="M 100,25 93.75,25" style="fill:none;stroke:#3b4449;stroke-width:2;stroke-linecap:round;stroke-miterlimit:6"/><path d="M 50,51.5 50,60.5" style="fill:none;stroke:#3b4449;stroke-width:1;stroke-linecap:round;stroke-miterlimit:6;stroke-dashoffset:0"/><path d="M 50,36.5 50,45.5" style="fill:none;stroke:#3b4449;stroke-width:1;stroke-linecap:round;stroke-miterlimit:6;stroke-dashoffset:0"/><path d="M 50,21.5 50,30.5" style="fill:none;stroke:#3b4449;stroke-width:1;stroke-linecap:round;stroke-miterlimit:6;stroke-dashoffset:0"/><path d="M 12,5 91,5 91,89 12,89 z" style="opacity:0;fill:#ffffff;stroke:#ffffff;stroke-width:1"/></svg>