<?xml version="1.0" encoding="UTF-8" standalone="no"?><svg xmlns:svg="http://www.w3.org/2000/svg" xmlns="http://www.w3.org/2000/svg" version="1.1" width="100" height="125" ><path d="M 22.65619,98.43752 81.24996,93" style="fill:none;stroke:#3b4449;stroke-width:3;stroke-linecap:round;stroke-miterlimit:6"/><path d="M 23.43752,100 C 23.43752,97.41132 21.33869,95.31252 18.75002,95.31252 16.16119,95.31252 14.06251,97.41132 14.06251,100 14.06251,102.58882 16.16119,104.68752 18.75002,104.68752 21.33869,104.68752 23.43752,102.58882 23.43752,100" style="fill:none;stroke:#3b4449;stroke-width:2;stroke-linecap:round;stroke-miterlimit:6"/><path d="M 14.06251,100 6.25,100" style="fill:none;stroke:#3b4449;stroke-width:2;stroke-linecap:round;stroke-miterlimit:6"/><path d="M 76.56256,100 C 76.56256,97.41132 78.66126,95.31252 81.24996,95.31252 83.83876,95.31252 85.93756,97.41132 85.93756,100 85.93756,102.58882 83.83876,104.68752 81.24996,104.68752 78.66126,104.68752 76.56256,102.58882 76.56256,100" style="fill:none;stroke:#3b4449;stroke-width:2;stroke-linecap:round;stroke-miterlimit:6"/><path d="M 85.93756,100 93.75,100" style="fill:none;stroke:#3b4449;stroke-width:2;stroke-linecap:round;stroke-miterlimit:6"/><path d="M 0,100 6.25,100" style="fill:none;stroke:#3b4449;stroke-width:2;stroke-linecap:round;stroke-miterlimit:6"/><path d="M 100,100 93.75,100" style="fill:none;stroke:#3b4449;stroke-width:2;stroke-linecap:round;stroke-miterlimit:6"/><path d="M 76.56256,75 C 76.56256,77.58882 78.66126,79.68752 81.24996,79.68752 83.83876,79.68752 85.93756,77.58882 85.93756,75 85.93756,72.41124 83.83876,70.3125 81.24996,70.3125 78.66126,70.3125 76.56256,72.41124 76.56256,75" style="fill:none;stroke:#3b4449;stroke-width:2;stroke-linecap:round;stroke-miterlimit:6"/><path d="M 85.93756,75 93.75,75" style="fill:none;stroke:#3b4449;stroke-width:2;stroke-linecap:round;stroke-miterlimit:6"/><path d="M 100,75 93.75,75" style="fill:none;stroke:#3b4449;stroke-width:2;stroke-linecap:round;stroke-miterlimit:6"/><path d="M 22.65619,48.4375 81.24996,43" style="fill:none;stroke:#3b4449;stroke-width:3;stroke-linecap:round;stroke-miterlimit:6"/><path d="M 23.43752,50 C 23.43752,47.41125 21.33869,45.3125 18.75002,45.3125 16.16119,45.3125 14.06251,47.41125 14.06251,50 14.06251,52.58875 16.16119,54.6875 18.75002,54.6875 21.33869,54.6875 23.43752,52.58875 23.43752,50" style="fill:none;stroke:#3b4449;stroke-width:2;stroke-linecap:round;stroke-miterlimit:6"/><path d="M 14.06251,50 6.25,50" style="fill:none;stroke:#3b4449;stroke-width:2;stroke-linecap:round;stroke-miterlimit:6"/><path d="M 76.56256,50 C 76.56256,47.41125 78.66126,45.3125 81.24996,45.3125 83.83876,45.3125 85.93756,47.41125 85.93756,50 85.93756,52.58875 83.83876,54.6875 81.24996,54.6875 78.66126,54.6875 76.56256,52.58875 76.56256,50" style="fill:none;stroke:#3b4449;stroke-width:2;stroke-linecap:round;stroke-miterlimit:6"/><path d="M 85.93756,50 93.75,50" style="fill:none;stroke:#3b4449;stroke-width:2;stroke-linecap:round;stroke-miterlimit:6"/><path d="M 0,50 6.25,50" style="fill:none;stroke:#3b4449;stroke-width:2;stroke-linecap:round;stroke-miterlimit:6"/><path d="M 100,50 93.75,50" style="fill:none;stroke:#3b4449;stroke-width:2;stroke-linecap:round;stroke-miterlimit:6"/><path d="M 76.56256,25 C 76.56256,27.58875 78.66126,29.6875 81.24996,29.6875 83.83876,29.6875 85.93756,27.58875 85.93756,25 85.93756,22.41125 83.83876,20.3125 81.24996,20.3125 78.66126,20.3125 76.56256,22.41125 76.56256,25" style="fill:none;stroke:#3b4449;stroke-width:2;stroke-linecap:round;stroke-miterlimit:6"/><path d="M 85.93756,25 93.75,25" style="fill:none;stroke:#3b4449;stroke-width:2;stroke-linecap:round;stroke-miterlimit:6"/><path d="M 100,25 93.75,25" style="fill:none;stroke:#3b4449;stroke-width:2;stroke-linecap:round;stroke-miterlimit:6"/><path d="M 50,80.5 50,89.5" style="fill:none;stroke:#3b4449;stroke-width:1;stroke-linecap:round;stroke-miterlimit:6;stroke-dashoffset:0"/><path d="M 50,65.5 50,74.5" style="fill:none;stroke:#3b4449;stroke-width:1;stroke-linecap:round;stroke-miterlimit:6;stroke-dashoffset:0"/><path d="M 50,50.5 50,59.5" style="fill:none;stroke:#3b4449;stroke-width:1;stroke-linecap:round;stroke-miterlimit:6;stroke-dashoffset:0"/><path d="M 12,15 91,15 91,114 12,114 z" style="opacity:0;fill:#ffffff;stroke:#ffffff;stroke-width:1"/></svg>