<?xml version="1.0" encoding="UTF-8" standalone="no"?><svg xmlns:svg="http://www.w3.org/2000/svg" xmlns="http://www.w3.org/2000/svg" version="1.1" width="100" height="75" ><path d="M 22.65619,48.43752 81.24996,31.50002" style="fill:none;stroke:#3b4449;stroke-width:3;stroke-linecap:round;stroke-miterlimit:6"/><path d="M 23.43752,50 C 23.43752,47.41132 21.33869,45.31252 18.75002,45.31252 16.16119,45.31252 14.06251,47.41132 14.06251,50 14.06251,52.58882 16.16119,54.68752 18.75002,54.68752 21.33869,54.68752 23.43752,52.58882 23.43752,50" style="fill:none;stroke:#3b4449;stroke-width:2;stroke-linecap:round;stroke-miterlimit:6"/><path d="M 14.06251,50 6.25,50" style="fill:none;stroke:#3b4449;stroke-width:2;stroke-linecap:round;stroke-miterlimit:6"/><path d="M 76.56256,50 C 76.56256,47.41132 78.66126,45.31252 81.24996,45.31252 83.83876,45.31252 85.93756,47.41132 85.93756,50 85.93756,52.58882 83.83876,54.68752 81.24996,54.68752 78.66126,54.68752 76.56256,52.58882 76.56256,50" style="fill:none;stroke:#3b4449;stroke-width:2;stroke-linecap:round;stroke-miterlimit:6"/><path d="M 85.93756,50 93.75,50" style="fill:none;stroke:#3b4449;stroke-width:2;stroke-linecap:round;stroke-miterlimit:6"/><path d="M 0,50 6.25,50" style="fill:none;stroke:#3b4449;stroke-width:2;stroke-linecap:round;stroke-miterlimit:6"/><path d="M 100,50 93.75,50" style="fill:none;stroke:#3b4449;stroke-width:2;stroke-linecap:round;stroke-miterlimit:6"/><path d="M 76.56256,25 C 76.56256,27.58882 78.66126,29.68752 81.24996,29.68752 83.83876,29.68752 85.93756,27.58882 85.93756,25 85.93756,22.41124 83.83876,20.3125 81.24996,20.3125 78.66126,20.3125 76.56256,22.41124 76.56256,25" style="fill:none;stroke:#3b4449;stroke-width:2;stroke-linecap:round;stroke-miterlimit:6"/><path d="M 85.93756,25 93.75,25" style="fill:none;stroke:#3b4449;stroke-width:2;stroke-linecap:round;stroke-miterlimit:6"/><path d="M 100,25 93.75,25" style="fill:none;stroke:#3b4449;stroke-width:2;stroke-linecap:round;stroke-miterlimit:6"/><path d="M 12,15 91,15 91,64 12,64 z" style="opacity:0;fill:#ffffff;stroke:#ffffff;stroke-width:1"/></svg>