<?xml version="1.0" encoding="UTF-8" standalone="no"?><svg xmlns:svg="http://www.w3.org/2000/svg" xmlns="http://www.w3.org/2000/svg" version="1.2" width="100" height="75" ><path d="M 12.5,62.5 87.5,62.5 87.5,0 12.5,0 12.5,62.5 z" style="fill:#ffffff;stroke:#3b4449;stroke-width:2;stroke-linecap:round;stroke-miterlimit:6"/><path d="M 0,25 12.5,25" style="fill:none;stroke:#3b4449;stroke-width:2;stroke-linecap:round;stroke-miterlimit:6"/><path d="M 100,25 87.5,25" style="fill:none;stroke:#3b4449;stroke-width:2;stroke-linecap:round;stroke-miterlimit:6"/><path d="M 50,75 50,62.5" style="fill:none;stroke:#3b4449;stroke-width:2;stroke-linecap:round;stroke-miterlimit:6"/><path d="M 18.007719,29.976625 16.22354,29.976625 18.062407,19.961977 19.853423,19.961977 18.007719,29.976625" style="fill:#3b4449;stroke:none"/><path d="M 27.277251,30.113344 26.586821,30.113344 22.895415,23.639711 21.787993,29.976625 20.024321,29.976625 21.863188,19.961977 22.683501,19.961977 26.299712,26.169008 27.386626,19.961977 29.143462,19.961977 27.277251,30.113344" style="fill:#3b4449;stroke:none"/><path d="M 56.435454,26.251038 C 56.435453,24.469144 56.920804,22.947009 57.891508,21.684632 58.866766,20.417714 60.133692,19.784251 61.69229,19.784241 62.89085,19.784251 63.813701,20.103261 64.460844,20.741272 65.107971,21.374745 65.431538,22.293039 65.431548,23.496155 65.431538,25.469467 64.934794,27.071353 63.941313,28.301819 62.947816,29.532288 61.587466,30.147522 59.860258,30.147522 58.802964,30.147522 57.966702,29.792054 57.351469,29.081116 56.740791,28.365623 56.435453,27.422265 56.435454,26.251038 M 58.281157,26.066468 C 58.281154,26.836653 58.433824,27.449608 58.739165,27.905335 59.0445,28.361066 59.491114,28.58893 60.079008,28.588929 61.163639,28.58893 62.020408,28.1013 62.649321,27.126038 63.27822,26.150781 63.592673,24.986395 63.59268,23.632874 63.592673,22.101632 62.918194,21.336008 61.569243,21.335999 60.621321,21.336008 59.835189,21.837309 59.210844,22.839905 58.59105,23.842516 58.281154,24.918035 58.281157,26.066468" style="fill:#3b4449;stroke:none"/><path d="M 73.921782,26.893616 C 73.730368,27.923566 73.251852,28.723371 72.486235,29.29303 71.720604,29.862693 70.772688,30.147522 69.642485,30.147522 68.699123,30.147522 67.928941,29.921937 67.331938,29.470765 66.739489,29.015036 66.443265,28.38841 66.443266,27.590882 66.443265,27.349349 66.468331,27.091861 66.518462,26.818421 L 67.776274,19.961976 69.608305,19.961976 68.329985,26.784241 C 68.307196,26.907291 68.295803,27.037174 68.295805,27.17389 68.295803,27.625064 68.4348,27.973697 68.712798,28.219788 68.990789,28.465883 69.369044,28.58893 69.847563,28.588929 70.458235,28.58893 70.966373,28.422589 71.371977,28.089905 71.77757,27.757225 72.035057,27.290103 72.144438,26.688538 L 73.395415,19.961976 75.200102,19.961976 73.921782,26.893616" style="fill:#3b4449;stroke:none"/><path d="M 84.380766,21.520569 81.222563,21.520569 79.677641,29.976624 77.87979,29.976624 79.424712,21.520569 76.239165,21.520569 76.526274,19.961976 84.674712,19.961976 84.380766,21.520569" style="fill:#3b4449;stroke:none"/><path d="M 44.199707,58.215976 C 43.169752,58.936029 41.909662,59.296054 40.419433,59.296054 39.270993,59.296054 38.336749,58.929193 37.616699,58.195468 36.901203,57.457189 36.543456,56.522945 36.543457,55.392734 36.543456,53.410318 37.088052,51.840333 38.177246,50.682773 39.270993,49.520673 40.758947,48.939619 42.641113,48.939609 43.661939,48.939619 44.420727,49.167484 44.91748,49.623203 L 44.384277,51.106601 C 43.714347,50.701011 43.046705,50.498211 42.381347,50.498203 41.178217,50.498211 40.212072,50.940268 39.48291,51.824375 38.75374,52.703938 38.389157,53.806802 38.38916,55.132968 38.389157,55.953284 38.614743,56.593583 39.065918,57.053867 39.517086,57.509598 40.134598,57.737462 40.918457,57.737461 41.570144,57.737462 42.139805,57.557449 42.627441,57.197422 L 42.989746,55.215 41.60205,55.215 41.875488,53.724765 45.026855,53.724765 44.199707,58.215976" style="fill:#3b4449;stroke:none"/><path d="M 53.038574,59.261875 52.348144,59.261875 48.656738,52.788242 47.549316,59.125156 45.785644,59.125156 47.624511,49.110508 48.444824,49.110508 52.061035,55.317539 53.147949,49.110508 54.904785,49.110508 53.038574,59.261875" style="fill:#3b4449;stroke:none"/><path d="M 57.38623,59.125156 54.966308,59.125156 56.791504,49.131015 C 57.456865,49.012536 58.081214,48.953291 58.66455,48.953281 60.191238,48.953291 61.371575,49.301924 62.205566,49.999179 63.039542,50.696453 63.456534,51.705893 63.456543,53.0275 63.456534,54.882322 62.905102,56.36344 61.802246,57.470859 60.699375,58.573724 59.227371,59.125156 57.38623,59.125156 M 58.274902,50.573398 57.058105,57.532383 C 57.258623,57.550613 57.440915,57.559728 57.60498,57.559726 58.82633,57.559728 59.797032,57.129064 60.51709,56.267734 61.237135,55.40641 61.597161,54.301268 61.597168,52.952304 61.597161,52.21403 61.348789,51.621583 60.85205,51.174961 60.3553,50.728354 59.71728,50.505047 58.937988,50.505039 58.719234,50.505047 58.498206,50.527834 58.274902,50.573398" style="fill:#3b4449;stroke:none"/></svg>