<?xml version="1.0" encoding="UTF-8" standalone="no"?><svg xmlns:svg="http://www.w3.org/2000/svg" xmlns="http://www.w3.org/2000/svg" version="1.2" width="100" height="75" ><path d="M 12.5,62.5 87.5,62.5 87.5,0 12.5,0 12.5,62.5 z" style="fill:#ffffff;stroke:#3b4449;stroke-width:2;stroke-linecap:round;stroke-miterlimit:6"/><path d="M 0,25 12.5,25" style="fill:none;stroke:#3b4449;stroke-width:2;stroke-linecap:round;stroke-miterlimit:6"/><path d="M 100,25 87.5,25" style="fill:none;stroke:#3b4449;stroke-width:2;stroke-linecap:round;stroke-miterlimit:6"/><path d="M 50,75 50,62.5" style="fill:none;stroke:#3b4449;stroke-width:2;stroke-linecap:round;stroke-miterlimit:6"/><path d="M 18.007719,29.976625 16.22354,29.976625 18.062407,19.961977 19.853423,19.961977 18.007719,29.976625" style="fill:#3b4449;stroke:none"/><path d="M 27.277251,30.113344 26.586821,30.113344 22.895415,23.639711 21.787993,29.976625 20.024321,29.976625 21.863188,19.961977 22.683501,19.961977 26.299712,26.169008 27.386626,19.961977 29.143462,19.961977 27.277251,30.113344" style="fill:#3b4449;stroke:none"/><path d="M 56.435454,26.251038 C 56.435453,24.469144 56.920804,22.947009 57.891508,21.684632 58.866766,20.417714 60.133692,19.784251 61.69229,19.784241 62.89085,19.784251 63.813701,20.103261 64.460844,20.741272 65.107971,21.374745 65.431538,22.293039 65.431548,23.496155 65.431538,25.469467 64.934794,27.071353 63.941313,28.301819 62.947816,29.532288 61.587466,30.147522 59.860258,30.147522 58.802964,30.147522 57.966702,29.792054 57.351469,29.081116 56.740791,28.365623 56.435453,27.422265 56.435454,26.251038 M 58.281157,26.066468 C 58.281154,26.836653 58.433824,27.449608 58.739165,27.905335 59.0445,28.361066 59.491114,28.58893 60.079008,28.588929 61.163639,28.58893 62.020408,28.1013 62.649321,27.126038 63.27822,26.150781 63.592673,24.986395 63.59268,23.632874 63.592673,22.101632 62.918194,21.336008 61.569243,21.335999 60.621321,21.336008 59.835189,21.837309 59.210844,22.839905 58.59105,23.842516 58.281154,24.918035 58.281157,26.066468" style="fill:#3b4449;stroke:none"/><path d="M 73.921782,26.893616 C 73.730368,27.923566 73.251852,28.723371 72.486235,29.29303 71.720604,29.862693 70.772688,30.147522 69.642485,30.147522 68.699123,30.147522 67.928941,29.921937 67.331938,29.470765 66.739489,29.015036 66.443265,28.38841 66.443266,27.590882 66.443265,27.349349 66.468331,27.091861 66.518462,26.818421 L 67.776274,19.961976 69.608305,19.961976 68.329985,26.784241 C 68.307196,26.907291 68.295803,27.037174 68.295805,27.17389 68.295803,27.625064 68.4348,27.973697 68.712798,28.219788 68.990789,28.465883 69.369044,28.58893 69.847563,28.588929 70.458235,28.58893 70.966373,28.422589 71.371977,28.089905 71.77757,27.757225 72.035057,27.290103 72.144438,26.688538 L 73.395415,19.961976 75.200102,19.961976 73.921782,26.893616" style="fill:#3b4449;stroke:none"/><path d="M 84.380766,21.520569 81.222563,21.520569 79.677641,29.976624 77.87979,29.976624 79.424712,21.520569 76.239165,21.520569 76.526274,19.961976 84.674712,19.961976 84.380766,21.520569" style="fill:#3b4449;stroke:none"/><path d="M 44.322754,59.070155 44.0083,57.033046 40.426269,57.033046 39.250488,59.070155 37.397949,59.070155 43.481933,48.918788 44.117675,48.918788 46.175293,59.070155 44.322754,59.070155 M 43.242675,51.96078 41.185058,55.700038 43.810058,55.700038 43.242675,51.96078" style="fill:#3b4449;stroke:none"/><path d="M 49.347168,59.070155 46.927246,59.070155 48.752441,49.076014 C 49.417803,48.957535 50.042151,48.89829 50.625488,48.89828 52.152175,48.89829 53.332513,49.246923 54.166504,49.944178 55.00048,50.641452 55.417471,51.650892 55.41748,52.972499 55.417471,54.827321 54.86604,56.308439 53.763183,57.415858 52.660313,58.518723 51.188309,59.070155 49.347168,59.070155 M 50.23584,50.518397 49.019043,57.477382 C 49.219561,57.495612 49.401852,57.504727 49.565918,57.504725 50.787268,57.504727 51.75797,57.074063 52.478027,56.212733 53.198073,55.351409 53.558098,54.246267 53.558105,52.897303 53.558098,52.159029 53.309726,51.566582 52.812988,51.11996 52.316238,50.673353 51.678217,50.450046 50.898925,50.450038 50.680171,50.450046 50.459143,50.472833 50.23584,50.518397" style="fill:#3b4449;stroke:none"/><path d="M 55.472168,56.77328 57.037597,56.77328 C 57.028481,57.356615 57.272296,57.648281 57.769043,57.64828 58.151853,57.648281 58.470863,57.584479 58.726074,57.456874 58.981279,57.329271 59.170406,57.137865 59.293457,56.882655 59.421057,56.622892 59.555497,56.098804 59.696777,55.310389 L 60.838379,49.055507 62.60205,49.055507 61.453613,55.317225 C 61.166498,56.884936 60.722162,57.926276 60.120605,58.441249 59.523596,58.951666 58.671383,59.206874 57.563965,59.206874 56.916828,59.206874 56.399576,59.035975 56.012207,58.694178 55.624837,58.347825 55.431152,57.876146 55.431152,57.279139 55.431152,57.142423 55.444824,56.973803 55.472168,56.77328" style="fill:#3b4449;stroke:none"/></svg>