<?xml version="1.0" encoding="UTF-8" standalone="no"?><svg xmlns:svg="http://www.w3.org/2000/svg" xmlns="http://www.w3.org/2000/svg" version="1.1" width="100" height="75" ><path d="M 76.450893,48.0804 18.75,25" style="fill:none;stroke:#3b4449;stroke-width:3;stroke-linecap:round;stroke-miterlimit:6"/><path d="M 47.641667,20.7854 C 40.597917,28.8875 36.71875,39.2625 36.71875,50" style="fill:none;stroke:#3b4449;stroke-width:2;stroke-linecap:round;stroke-miterlimit:6"/><path d="M 76.5625,50 C 76.5625,47.4104 78.660417,45.3125 81.25,45.3125 83.839583,45.3125 85.937498,47.4104 85.937498,50 85.937498,52.5896 83.839583,54.6875 81.25,54.6875 78.660417,54.6875 76.5625,52.5896 76.5625,50" style="fill:none;stroke:#3b4449;stroke-width:2;stroke-linecap:round;stroke-miterlimit:6"/><path d="M 85.937498,50 93.75,50" style="fill:none;stroke:#3b4449;stroke-width:2;stroke-linecap:round;stroke-miterlimit:6"/><path d="M 33.055515,46.25 C 35.399265,50.9375 35.399265,52.3438 36.805515,59.375 38.211765,52.3438 38.211765,50.9375 40.555515,46.25 37.743015,47.1875 35.868015,47.1875 33.055515,46.25" style="fill:#3b4449;fill-rule:evenodd;stroke:none"/><path d="M 23.4375,50 C 23.4375,47.4104 21.339583,45.3125 18.75,45.3125 16.160417,45.3125 14.0625,47.4104 14.0625,50 14.0625,52.5896 16.160417,54.6875 18.75,54.6875 21.339583,54.6875 23.4375,52.5896 23.4375,50" style="fill:none;stroke:#3b4449;stroke-width:2;stroke-linecap:round;stroke-miterlimit:6"/><path d="M 14.0625,50 6.25,50" style="fill:none;stroke:#3b4449;stroke-width:2;stroke-linecap:round;stroke-miterlimit:6"/><path d="M 25,26.5625 C 27.589583,26.5625 29.6875,24.4646 29.6875,21.875 29.6875,19.2854 27.589583,17.1875 25,17.1875 22.410417,17.1875 20.3125,19.2854 20.3125,21.875 20.3125,24.4646 22.410417,26.5625 25,26.5625" style="fill:none;stroke:#3b4449;stroke-width:2;stroke-linecap:round;stroke-miterlimit:6"/><path d="M 25,17.1875 25,9.375" style="fill:none;stroke:#3b4449;stroke-width:2;stroke-linecap:round;stroke-miterlimit:6"/><path d="M 0,50 6.25,50" style="fill:none;stroke:#3b4449;stroke-width:2;stroke-linecap:round;stroke-miterlimit:6"/><path d="M 100,50 93.75,50" style="fill:none;stroke:#3b4449;stroke-width:2;stroke-linecap:round;stroke-miterlimit:6"/><path d="M 25,0 25,9.375" style="fill:none;stroke:#3b4449;stroke-width:2;stroke-linecap:round;stroke-miterlimit:6"/><path d="M 13.973029,16.888284 86.662565,16.888284 86.662565,55.675276 13.973029,55.675276 z" style="opacity:0;fill:#ffffff;stroke:#ffffff;stroke-width:1.34436333"/></svg>