<?xml version="1.0" encoding="UTF-8" standalone="no"?><svg xmlns:svg="http://www.w3.org/2000/svg" xmlns="http://www.w3.org/2000/svg" version="1.1" width="100" height="100" ><path d="M 25,25 C 40.625,25 40.625,37.5 25,37.5" style="fill:none;stroke:#3b4449;stroke-width:3;stroke-linecap:round;stroke-miterlimit:6"/><path d="M 25,37.5 C 40.625,37.5 40.625,50 25,50" style="fill:none;stroke:#3b4449;stroke-width:3;stroke-linecap:round;stroke-miterlimit:6"/><path d="M 25,50 C 40.625,50 40.625,62.5 25,62.5" style="fill:none;stroke:#3b4449;stroke-width:3;stroke-linecap:round;stroke-miterlimit:6"/><path d="M 25,62.5 C 40.625,62.5 40.625,75 25,75" style="fill:none;stroke:#3b4449;stroke-width:3;stroke-linecap:round;stroke-miterlimit:6"/><path d="M 22.031251,31.25 C 22.031251,29.4375 20.562501,27.96883 18.75,27.96883 16.9375,27.96883 15.468751,29.4375 15.468751,31.25 15.468751,33.0625 16.9375,34.53133 18.75,34.53133 20.562501,34.53133 22.031251,33.0625 22.031251,31.25" style="fill:#3b4449;fill-rule:evenodd;stroke:none"/><path d="M 46.875,75 46.875,25" style="fill:none;stroke:#3b4449;stroke-width:2;stroke-linecap:round;stroke-miterlimit:6"/><path d="M 53.125,75 53.125,25" style="fill:none;stroke:#3b4449;stroke-width:2;stroke-linecap:round;stroke-miterlimit:6"/><path d="M 75,75 C 59.375,75 59.375,62.5 75,62.5" style="fill:none;stroke:#3b4449;stroke-width:3;stroke-linecap:round;stroke-miterlimit:6"/><path d="M 75,62.5 C 59.375,62.5 59.375,50 75,50" style="fill:none;stroke:#3b4449;stroke-width:3;stroke-linecap:round;stroke-miterlimit:6"/><path d="M 75,50 C 59.375,50 59.375,37.5 75,37.5" style="fill:none;stroke:#3b4449;stroke-width:3;stroke-linecap:round;stroke-miterlimit:6"/><path d="M 75,37.5 C 59.375,37.5 59.375,25 75,25" style="fill:none;stroke:#3b4449;stroke-width:3;stroke-linecap:round;stroke-miterlimit:6"/><path d="M 84.531251,31.25 C 84.531251,29.4375 83.062501,27.96883 81.25,27.96883 79.437501,27.96883 77.968751,29.4375 77.968751,31.25 77.968751,33.0625 79.437501,34.53133 81.25,34.53133 83.062501,34.53133 84.531251,33.0625 84.531251,31.25" style="fill:#3b4449;fill-rule:evenodd;stroke:none"/><path d="M 0,0 25,0 25,25" style="fill:none;stroke:#3b4449;stroke-width:2;stroke-linecap:round;stroke-miterlimit:6"/><path d="M 0,100 25,100 25,75" style="fill:none;stroke:#3b4449;stroke-width:2;stroke-linecap:round;stroke-miterlimit:6"/><path d="M 100,0 75,0 75,25" style="fill:none;stroke:#3b4449;stroke-width:2;stroke-linecap:round;stroke-miterlimit:6"/><path d="M 100,100 75,100 75,75" style="fill:none;stroke:#3b4449;stroke-width:2;stroke-linecap:round;stroke-miterlimit:6"/><path d="M 100,50 75,50" style="fill:none;stroke:#3b4449;stroke-width:2;stroke-linecap:round;stroke-miterlimit:6"/><path d="M 5.5,5.5 94.5,5.5 94.5,94.5 5.5,94.5 z" style="opacity:0;fill:#ffffff;stroke:#ffffff;stroke-width:1"/></svg>