<?xml version="1.0" encoding="UTF-8" standalone="no"?><svg xmlns:svg="http://www.w3.org/2000/svg" xmlns="http://www.w3.org/2000/svg" version="1.2" width="150" height="175" ><path d="M 12.5,162.5 137.5,162.5 137.5,12.5 12.5,12.5 12.5,162.5 z" style="fill:#ffffff;stroke:#3b4449;stroke-width:2;stroke-linecap:round;stroke-miterlimit:6"/><path d="M 0,50 12.5,50" style="fill:none;stroke:#3b4449;stroke-width:2;stroke-linecap:round;stroke-miterlimit:6"/><path d="M 12.5,150 0,150" style="fill:none;stroke:#3b4449;stroke-width:2;stroke-linecap:round;stroke-miterlimit:6"/><path d="M 137.5,100 150,100" style="fill:none;stroke:#3b4449;stroke-width:2;stroke-linecap:round;stroke-miterlimit:6"/><path d="M 150,150 137.5,150" style="fill:none;stroke:#3b4449;stroke-width:2;stroke-linecap:round;stroke-miterlimit:6"/><path d="M 33.999573,17.290234 33.999573,15.861523 64.048768,15.861523 64.048768,17.290234 33.999573,17.290234" style="fill:#3b4449;stroke:none"/><path d="M 137.5,50 150,50" style="fill:none;stroke:#3b4449;stroke-width:2;stroke-linecap:round;stroke-miterlimit:6"/><path d="M 75,162.5 75,175" style="fill:none;stroke:#3b4449;stroke-width:2;stroke-linecap:round;stroke-miterlimit:6"/><path d="M 50,0 50,12.5" style="fill:none;stroke:#3b4449;stroke-width:2;stroke-linecap:round;stroke-miterlimit:6"/><path d="M 100,0 100,12.5" style="fill:none;stroke:#3b4449;stroke-width:2;stroke-linecap:round;stroke-miterlimit:6"/><path d="M 70.856934,158.22852 C 70.121251,158.74284 69.221187,159 68.156738,159 67.336423,159 66.669106,158.73796 66.154785,158.21387 65.643717,157.68652 65.388183,157.01921 65.388184,156.21191 65.388183,154.7959 65.77718,153.67448 66.555176,152.84766 67.336423,152.01758 68.399248,151.60255 69.743652,151.60254 70.472814,151.60255 71.014805,151.76531 71.369629,152.09082 L 70.98877,153.15039 C 70.510248,152.86068 70.033361,152.71583 69.558105,152.71582 68.698727,152.71583 68.008623,153.03158 67.487793,153.66309 66.966958,154.29135 66.706541,155.07911 66.706543,156.02637 66.706541,156.61231 66.867674,157.06966 67.189941,157.39844 67.512204,157.72396 67.953285,157.88672 68.513184,157.88672 68.978674,157.88672 69.385575,157.75814 69.733887,157.50098 L 69.992676,156.08496 69.001465,156.08496 69.196777,155.02051 71.447754,155.02051 70.856934,158.22852" style="fill:#3b4449;stroke:none"/><path d="M 77.17041,158.97559 76.677246,158.97559 74.040527,154.35156 73.249512,158.87793 71.989746,158.87793 73.303223,151.72461 73.88916,151.72461 76.472168,156.1582 77.248535,151.72461 78.503418,151.72461 77.17041,158.97559" style="fill:#3b4449;stroke:none"/><path d="M 80.275879,158.87793 78.547363,158.87793 79.851074,151.73926 C 80.326333,151.65463 80.772296,151.61231 81.188965,151.6123 82.279456,151.61231 83.122554,151.86134 83.718262,152.35937 84.313959,152.85743 84.61181,153.57846 84.611816,154.52246 84.61181,155.84733 84.21793,156.90528 83.430176,157.69629 82.642411,158.48405 81.59098,158.87793 80.275879,158.87793 M 80.910645,152.76953 80.041504,157.74023 C 80.184731,157.75326 80.314939,157.75977 80.432129,157.75977 81.304522,157.75977 81.99788,157.45215 82.512207,156.83691 83.026525,156.22168 83.283686,155.4323 83.283691,154.46875 83.283686,153.94141 83.106278,153.51823 82.751465,153.19922 82.396643,152.88021 81.940914,152.72071 81.384277,152.7207 81.228024,152.72071 81.070147,152.73699 80.910645,152.76953" style="fill:#3b4449;stroke:none"/><path d="M 93.388547,25.372585 92.69519,25.372585 91.259651,18.121609 92.617066,18.121609 93.471553,22.867703 95.981305,18.121609 97.402196,18.121609 93.388547,25.372585" style="fill:#3b4449;stroke:none"/><path d="M 102.62189,19.498562 C 102.25079,19.234896 101.83901,19.10306 101.38655,19.103054 100.65413,19.10306 100.0389,19.452994 99.540855,20.152858 99.046065,20.849477 98.79867,21.622589 98.798672,22.472195 98.79867,23.022327 98.933761,23.46178 99.203943,23.790555 99.474121,24.119332 99.850095,24.283719 100.33187,24.283718 101.08056,24.283719 101.66812,24.080269 102.09455,23.673366 L 102.07013,24.79153 C 101.6079,25.195177 100.94221,25.396999 100.07308,25.396999 99.298342,25.396999 98.673346,25.143093 98.19809,24.635281 97.722831,24.124215 97.485202,23.46178 97.485203,22.647976 97.485202,21.332876 97.849783,20.229362 98.578947,19.337429 99.311362,18.445509 100.26676,17.999545 101.44515,17.999538 102.0213,17.999545 102.53237,18.093947 102.97833,18.282741 L 102.62189,19.498562" style="fill:#3b4449;stroke:none"/><path d="M 108.75468,19.498562 C 108.38358,19.234896 107.9718,19.10306 107.51933,19.103054 106.7869,19.10306 106.17167,19.452994 105.67363,20.152858 105.17885,20.849477 104.93145,21.622589 104.93145,22.472195 104.93145,23.022327 105.06654,23.46178 105.33673,23.790555 105.6069,24.119332 105.98287,24.283719 106.46464,24.283718 107.21333,24.283719 107.8009,24.080269 108.22733,23.673366 L 108.20292,24.79153 C 107.74068,25.195177 107.07499,25.396999 106.20585,25.396999 105.43111,25.396999 104.80613,25.143093 104.33087,24.635281 103.85561,24.124215 103.61798,23.46178 103.61798,22.647976 103.61798,21.332876 103.98256,20.229362 104.71173,19.337429 105.44414,18.445509 106.39954,17.999545 107.57792,17.999538 108.15409,17.999545 108.66515,18.093947 109.11111,18.282741 L 108.75468,19.498562" style="fill:#3b4449;stroke:none"/><path d="M 37.759042,22.105984 39.355713,25.274929 37.925057,25.274929 36.557877,22.315944 C 36.336521,22.312692 36.064713,22.299671 35.742452,22.276882 L 35.190696,25.274929 33.88211,25.274929 35.190696,18.121609 C 36.14121,18.072788 36.764578,18.048374 37.060803,18.048367 37.832279,18.048374 38.440999,18.198113 38.886965,18.497585 39.336176,18.793816 39.560784,19.223503 39.56079,19.786647 39.560784,20.359569 39.396397,20.857615 39.067629,21.280789 38.742105,21.700714 38.305909,21.975779 37.759042,22.105984 M 36.299089,19.220242 35.93288,21.222194 C 36.124934,21.24173 36.295831,21.251496 36.445573,21.251492 37.676031,21.251496 38.291261,20.860871 38.291266,20.079616 38.291261,19.750846 38.172446,19.518099 37.934822,19.381374 37.700444,19.241407 37.309822,19.17142 36.762954,19.171414 36.717378,19.17142 36.562757,19.187696 36.299089,19.220242" style="fill:#3b4449;stroke:none"/><path d="M 45.781458,19.23489 42.485578,19.23489 42.187728,20.880397 44.550996,20.880397 44.350802,21.944851 41.987534,21.944851 41.587146,24.161648 44.829315,24.161648 44.619355,25.274929 40.0686,25.274929 41.386951,18.121609 45.991418,18.121609 45.781458,19.23489" style="fill:#3b4449;stroke:none"/><path d="M 50.390808,19.532742 C 50.013202,19.256055 49.629089,19.117709 49.23847,19.117703 48.453967,19.117709 48.061717,19.413932 48.061719,20.006374 48.061717,20.257031 48.270049,20.55651 48.686716,20.904812 L 49.424017,21.529812 C 49.651876,21.725128 49.809753,21.868357 49.897646,21.959499 49.985532,22.047394 50.078306,22.171091 50.175966,22.330594 50.273616,22.490101 50.346858,22.651233 50.395691,22.813992 50.444514,22.976754 50.468928,23.14277 50.468933,23.312038 50.468928,23.966337 50.223161,24.477404 49.731632,24.845242 49.24335,25.213081 48.608589,25.396999 47.827345,25.396999 47.186072,25.396999 46.580607,25.258653 46.010949,24.981961 L 46.421103,23.727077 C 46.857298,24.055855 47.363479,24.220243 47.93965,24.220242 48.287953,24.220243 48.576037,24.147001 48.803902,24.000515 49.035018,23.850777 49.150577,23.639188 49.15058,23.365749 49.150577,23.09557 48.942245,22.797718 48.525584,22.472195 L 47.758986,21.861843 C 47.524611,21.673045 47.365107,21.536326 47.280474,21.451687 47.199093,21.367056 47.11283,21.249868 47.021686,21.100124 46.93054,20.947134 46.862181,20.790884 46.816609,20.631375 46.771035,20.471874 46.748249,20.307486 46.74825,20.13821 46.748249,19.480664 46.966346,18.959831 47.402543,18.57571 47.838737,18.191603 48.410022,17.999545 49.1164,17.999538 49.350771,17.999545 49.650248,18.027214 50.014833,18.082547 50.37941,18.134637 50.634942,18.194858 50.781431,18.26321 L 50.390808,19.532742" style="fill:#3b4449;stroke:none"/><path d="M 56.738428,19.23489 53.442548,19.23489 53.144698,20.880397 55.507967,20.880397 55.307772,21.944851 52.944504,21.944851 52.544116,24.161648 55.786285,24.161648 55.576325,25.274929 51.025569,25.274929 52.343921,18.121609 56.948389,18.121609 56.738428,19.23489" style="fill:#3b4449;stroke:none"/><path d="M 63.549915,19.23489 61.294068,19.23489 60.190558,25.274929 58.906386,25.274929 60.009896,19.23489 57.734517,19.23489 57.939595,18.121609 63.759874,18.121609 63.549915,19.23489" style="fill:#3b4449;stroke:none"/><path d="M 21.815431,47.60989 19.559571,47.60989 18.456056,53.649929 17.171876,53.649929 18.275392,47.60989 16.000001,47.60989 16.205079,46.496609 22.025392,46.496609 21.815431,47.60989" style="fill:#3b4449;stroke:none"/><path d="M 26.004884,50.480984 27.601563,53.649929 26.170899,53.649929 24.803712,50.690945 C 24.582355,50.687692 24.310545,50.674672 23.988282,50.651882 L 23.436524,53.649929 22.127931,53.649929 23.436524,46.496609 C 24.387043,46.447788 25.010414,46.423374 25.306642,46.423367 26.078122,46.423374 26.686845,46.573113 27.132813,46.872585 27.582027,47.168816 27.806636,47.598503 27.806642,48.161648 27.806636,48.734569 27.642248,49.232616 27.313478,49.655788 26.987952,50.075714 26.551754,50.350779 26.004884,50.480984 M 24.544923,47.595242 24.178712,49.597195 C 24.370767,49.61673 24.541665,49.626496 24.691407,49.626492 25.921872,49.626496 26.537106,49.235871 26.53711,48.454617 26.537106,48.125846 26.418291,47.893099 26.180665,47.756374 25.946286,47.616406 25.555661,47.54642 25.00879,47.546413 24.963214,47.54642 24.808592,47.562696 24.544923,47.595242" style="fill:#3b4449;stroke:none"/><path d="M 29.715821,53.649929 28.441407,53.649929 29.754884,46.496609 31.034181,46.496609 29.715821,53.649929" style="fill:#3b4449;stroke:none"/><path d="M 36.781251,53.000515 C 36.045569,53.514838 35.145505,53.771999 34.081056,53.771999 33.260741,53.771999 32.593424,53.509955 32.079103,52.985867 31.568034,52.458524 31.312501,51.791207 31.312501,50.983913 31.312501,49.567902 31.701498,48.446484 32.479493,47.619656 33.260741,46.789584 34.323565,46.374546 35.66797,46.374538 36.397131,46.374546 36.939123,46.537306 37.293946,46.86282 L 36.913087,47.92239 C 36.434566,47.632682 35.957678,47.487826 35.482423,47.48782 34.623044,47.487826 33.932941,47.803581 33.41211,48.435085 32.891275,49.063345 32.630859,49.851105 32.63086,50.798367 32.630859,51.384306 32.791991,51.841663 33.114259,52.170437 33.436522,52.495959 33.877602,52.658719 34.437501,52.658718 34.902992,52.658719 35.309892,52.530138 35.658204,52.272976 L 35.916993,50.85696 34.925782,50.85696 35.121095,49.792507 37.372071,49.792507 36.781251,53.000515" style="fill:#3b4449;stroke:none"/><path d="M 43.539063,53.000515 C 42.803381,53.514838 41.903317,53.771999 40.838868,53.771999 40.018553,53.771999 39.351236,53.509955 38.836915,52.985867 38.325847,52.458524 38.070313,51.791207 38.070313,50.983913 38.070313,49.567902 38.45931,48.446484 39.237306,47.619656 40.018553,46.789584 41.081378,46.374546 42.425782,46.374538 43.154943,46.374546 43.696935,46.537306 44.051759,46.86282 L 43.670899,47.92239 C 43.192378,47.632682 42.715491,47.487826 42.240235,47.48782 41.380857,47.487826 40.690753,47.803581 40.169923,48.435085 39.649088,49.063345 39.388671,49.851105 39.388673,50.798367 39.388671,51.384306 39.549804,51.841663 39.872071,52.170437 40.194334,52.495959 40.635415,52.658719 41.195313,52.658718 41.660804,52.658719 42.067705,52.530138 42.416017,52.272976 L 42.674806,50.85696 41.683595,50.85696 41.878907,49.792507 44.129884,49.792507 43.539063,53.000515" style="fill:#3b4449;stroke:none"/><path d="M 50.335938,47.60989 47.04004,47.60989 46.742188,49.255398 49.10547,49.255398 48.905274,50.319851 46.541993,50.319851 46.141603,52.536648 49.38379,52.536648 49.173829,53.649929 44.623048,53.649929 45.941407,46.496609 50.545899,46.496609 50.335938,47.60989" style="fill:#3b4449;stroke:none"/><path d="M 54.481446,50.480984 56.078126,53.649929 54.647462,53.649929 53.280274,50.690945 C 53.058918,50.687692 52.787108,50.674672 52.464845,50.651882 L 51.913087,53.649929 50.604493,53.649929 51.913087,46.496609 C 52.863605,46.447788 53.486977,46.423374 53.783204,46.423367 54.554684,46.423374 55.163408,46.573113 55.609376,46.872585 56.058589,47.168816 56.283198,47.598503 56.283204,48.161648 56.283198,48.734569 56.11881,49.232616 55.79004,49.655788 55.464514,50.075714 55.028317,50.350779 54.481446,50.480984 M 53.021485,47.595242 52.655274,49.597195 C 52.847329,49.61673 53.018227,49.626496 53.16797,49.626492 54.398434,49.626496 55.013668,49.235871 55.013673,48.454617 55.013668,48.125846 54.894853,47.893099 54.657228,47.756374 54.422848,47.616406 54.032224,47.54642 53.485353,47.546413 53.439777,47.54642 53.285154,47.562696 53.021485,47.595242" style="fill:#3b4449;stroke:none"/><path d="M 16,150.7988 C 16,149.52602 16.346679,148.43878 17.040039,147.53708 17.736651,146.63214 18.641598,146.17966 19.754883,146.17966 20.610998,146.17966 21.270177,146.40753 21.732422,146.86325 22.194655,147.31573 22.425774,147.97165 22.425781,148.83102 22.425774,150.24053 22.070957,151.38474 21.361328,152.26364 20.651688,153.14255 19.680009,153.582 18.446289,153.582 17.691079,153.582 17.093748,153.32809 16.654297,152.82028 16.218098,152.30922 16,151.63539 16,150.7988 M 17.318359,150.66696 C 17.318358,151.21709 17.427407,151.65492 17.645508,151.98044 17.863604,152.30596 18.182615,152.46872 18.602539,152.46872 19.377275,152.46872 19.989253,152.12041 20.438477,151.4238 20.88769,150.72719 21.112299,149.89548 21.112305,148.92868 21.112299,147.83494 20.630529,147.28806 19.666992,147.28806 18.989905,147.28806 18.428383,147.64613 17.982422,148.36227 17.539712,149.07842 17.318358,149.84665 17.318359,150.66696" style="fill:#3b4449;stroke:none"/><path d="M 28.490234,151.25778 C 28.35351,151.99346 28.011713,152.56475 27.464844,152.97165 26.917964,153.37855 26.240882,153.582 25.433594,153.582 24.759763,153.582 24.209634,153.42087 23.783203,153.0986 23.360025,152.77308 23.148437,152.32549 23.148437,151.75583 23.148437,151.5833 23.166341,151.39939 23.202148,151.20407 L 24.100586,146.30661 25.40918,146.30661 24.496094,151.17966 C 24.479816,151.26755 24.471678,151.36032 24.47168,151.45798 24.471678,151.78024 24.570962,152.02927 24.769531,152.20505 24.968097,152.38083 25.238279,152.46872 25.580078,152.46872 26.016273,152.46872 26.379228,152.34991 26.668945,152.11227 26.958654,151.87465 27.142574,151.54099 27.220703,151.1113 L 28.114258,146.30661 29.40332,146.30661 28.490234,151.25778" style="fill:#3b4449;stroke:none"/><path d="M 35.960937,147.41989 33.705078,147.41989 32.601562,153.45993 31.317383,153.45993 32.420898,147.41989 30.145508,147.41989 30.350586,146.30661 36.170898,146.30661 35.960937,147.41989" style="fill:#3b4449;stroke:none"/><path d="M 38.045898,150.83298 37.5625,153.45993 36.263672,153.45993 37.611328,146.31638 C 38.291664,146.24477 38.81087,146.20896 39.168945,146.20895 41.060216,146.20896 42.005853,146.92022 42.005859,148.34274 42.005853,149.14353 41.717768,149.77341 41.141602,150.23239 40.56868,150.68812 39.824866,150.91599 38.910156,150.91599 38.617185,150.91599 38.329099,150.88832 38.045898,150.83298 M 38.670898,147.39059 38.246094,149.74899 C 38.412107,149.79457 38.623695,149.81736 38.880859,149.81735 39.434241,149.81736 39.873694,149.69854 40.199219,149.46091 40.524735,149.22328 40.687495,148.88148 40.6875,148.43552 40.687495,147.68357 40.261063,147.30759 39.408203,147.30759 39.180335,147.30759 38.934567,147.33526 38.670898,147.39059" style="fill:#3b4449;stroke:none"/><path d="M 47.806641,151.25778 C 47.669916,151.99346 47.32812,152.56475 46.78125,152.97165 46.234371,153.37855 45.557288,153.582 44.75,153.582 44.07617,153.582 43.52604,153.42087 43.099609,153.0986 42.676431,152.77308 42.464843,152.32549 42.464844,151.75583 42.464843,151.5833 42.482747,151.39939 42.518555,151.20407 L 43.416992,146.30661 44.725586,146.30661 43.8125,151.17966 C 43.796222,151.26755 43.788084,151.36032 43.788086,151.45798 43.788084,151.78024 43.887368,152.02927 44.085937,152.20505 44.284503,152.38083 44.554685,152.46872 44.896484,152.46872 45.332679,152.46872 45.695634,152.34991 45.985352,152.11227 46.275061,151.87465 46.45898,151.54099 46.537109,151.1113 L 47.430664,146.30661 48.719727,146.30661 47.806641,151.25778" style="fill:#3b4449;stroke:none"/><path d="M 55.277344,147.41989 53.021484,147.41989 51.917969,153.45993 50.633789,153.45993 51.737305,147.41989 49.461914,147.41989 49.666992,146.30661 55.487305,146.30661 55.277344,147.41989" style="fill:#3b4449;stroke:none"/><path d="M 94.844452,147.65077 C 94.473353,147.38711 94.061569,147.25527 93.6091,147.25526 92.876675,147.25527 92.261441,147.6052 91.763397,148.30507 91.268603,149.00169 91.021208,149.7748 91.02121,150.6244 91.021208,151.17454 91.156299,151.61399 91.426483,151.94276 91.696663,152.27154 92.072639,152.43593 92.554413,152.43593 93.303107,152.43593 93.890671,152.23248 94.317108,151.82558 L 94.292694,152.94374 C 93.83045,153.34739 93.16476,153.54921 92.295624,153.54921 91.520882,153.54921 90.895882,153.2953 90.420624,152.78749 89.945363,152.27642 89.707733,151.61399 89.707733,150.80019 89.707733,149.48509 90.072316,148.38157 90.801483,147.48964 91.533903,146.59772 92.489305,146.15176 93.667694,146.15175 94.243861,146.15176 94.754928,146.24616 95.200897,146.43495 L 94.844452,147.65077" style="fill:#3b4449;stroke:none"/><path d="M 95.772186,150.76601 C 95.772186,149.49322 96.118865,148.40599 96.812225,147.50429 97.508838,146.59935 98.413785,146.14687 99.527069,146.14687 100.38318,146.14687 101.04236,146.37474 101.50461,146.83046 101.96684,147.28294 102.19796,147.93886 102.19797,148.79823 102.19796,150.20774 101.84314,151.35195 101.13351,152.23085 100.42387,153.10976 99.452195,153.54921 98.218475,153.54921 97.463265,153.54921 96.865935,153.2953 96.426483,152.78749 95.990285,152.27642 95.772186,151.6026 95.772186,150.76601 M 97.090546,150.63417 C 97.090544,151.1843 97.199593,151.62213 97.417694,151.94765 97.635791,152.27317 97.954801,152.43593 98.374725,152.43593 99.149461,152.43593 99.76144,152.08762 100.21066,151.39101 100.65988,150.69439 100.88449,149.86269 100.88449,148.89589 100.88449,147.80214 100.40272,147.25527 99.439178,147.25526 98.762092,147.25527 98.200569,147.61334 97.754608,148.32948 97.311898,149.04563 97.090544,149.81386 97.090546,150.63417" style="fill:#3b4449;stroke:none"/><path d="M 107.75461,153.5248 107.26144,153.5248 104.62473,148.90077 103.83371,153.42714 102.57394,153.42714 103.88742,146.27382 104.47336,146.27382 107.05637,150.70741 107.83273,146.27382 109.08762,146.27382 107.75461,153.5248" style="fill:#3b4449;stroke:none"/><path d="M 115.71359,147.3871 113.45773,147.3871 112.35422,153.42714 111.07004,153.42714 112.17355,147.3871 109.89816,147.3871 110.10324,146.27382 115.92355,146.27382 115.71359,147.3871" style="fill:#3b4449;stroke:none"/><path d="M 119.90305,150.25819 121.49973,153.42714 120.06906,153.42714 118.70187,150.46815 C 118.48052,150.4649 118.20871,150.45188 117.88644,150.42909 L 117.33469,153.42714 116.02609,153.42714 117.33469,146.27382 C 118.2852,146.225 118.90858,146.20058 119.2048,146.20058 119.97628,146.20058 120.58501,146.35032 121.03098,146.6498 121.48019,146.94603 121.7048,147.37571 121.7048,147.93886 121.7048,148.51178 121.54041,149.00983 121.21164,149.433 120.88611,149.85292 120.44992,150.12799 119.90305,150.25819 M 118.44308,147.37245 118.07687,149.3744 C 118.26893,149.39394 118.43983,149.40371 118.58957,149.4037 119.82003,149.40371 120.43527,149.01308 120.43527,148.23183 120.43527,147.90306 120.31645,147.67031 120.07883,147.53358 119.84445,147.39362 119.45382,147.32363 118.90695,147.32362 118.86138,147.32363 118.70675,147.33991 118.44308,147.37245" style="fill:#3b4449;stroke:none"/><path d="M 122.49094,150.76601 C 122.49094,149.49322 122.83762,148.40599 123.53098,147.50429 124.22759,146.59935 125.13253,146.14687 126.24582,146.14687 127.10193,146.14687 127.76111,146.37474 128.22336,146.83046 128.68559,147.28294 128.91671,147.93886 128.91672,148.79823 128.91671,150.20774 128.56189,151.35195 127.85226,152.23085 127.14262,153.10976 126.17095,153.54921 124.93723,153.54921 124.18201,153.54921 123.58468,153.2953 123.14523,152.78749 122.70903,152.27642 122.49094,151.6026 122.49094,150.76601 M 123.8093,150.63417 C 123.80929,151.1843 123.91834,151.62213 124.13644,151.94765 124.35454,152.27317 124.67355,152.43593 125.09348,152.43593 125.86821,152.43593 126.48019,152.08762 126.92941,151.39101 127.37863,150.69439 127.60324,149.86269 127.60324,148.89589 127.60324,147.80214 127.12147,147.25527 126.15793,147.25526 125.48084,147.25527 124.91932,147.61334 124.47336,148.32948 124.03065,149.04563 123.80929,149.81386 123.8093,150.63417" style="fill:#3b4449;stroke:none"/><path d="M 133.79465,153.42714 129.28293,153.42714 130.59641,146.27382 131.8757,146.27382 130.7673,152.31386 133.99973,152.31386 133.79465,153.42714" style="fill:#3b4449;stroke:none"/><path d="M 84.595428,97.539062 82.339569,97.539062 81.236053,103.5791 79.951874,103.5791 81.055389,97.539062 78.779999,97.539062 78.985077,96.425781 84.805389,96.425781 84.595428,97.539062" style="fill:#3b4449;stroke:none"/><path d="M 90.332733,103.5791 89.048553,103.5791 89.658905,100.24902 86.817108,100.24902 86.206757,103.5791 84.917694,103.5791 86.231171,96.425781 87.520233,96.425781 87.012421,99.18457 89.854218,99.18457 90.36203,96.425781 91.655975,96.425781 90.332733,103.5791" style="fill:#3b4449;stroke:none"/><path d="M 95.562225,100.41016 97.158905,103.5791 95.728241,103.5791 94.361053,100.62012 C 94.139697,100.61686 93.867887,100.60384 93.545624,100.58105 L 92.993866,103.5791 91.685272,103.5791 92.993866,96.425781 C 93.944384,96.37696 94.567756,96.352546 94.863983,96.352539 95.635463,96.352546 96.244187,96.502286 96.690155,96.801758 97.139368,97.097988 97.363977,97.527675 97.363983,98.09082 97.363977,98.663742 97.199589,99.161788 96.870819,99.584961 96.545293,100.00489 96.109096,100.27995 95.562225,100.41016 M 94.102264,97.524414 93.736053,99.526367 C 93.928108,99.545902 94.099007,99.555668 94.248749,99.555664 95.479213,99.555668 96.094447,99.165043 96.094452,98.383789 96.094447,98.055019 95.975632,97.822271 95.738007,97.685547 95.503628,97.545579 95.113003,97.475592 94.566132,97.475586 94.520556,97.475592 94.365933,97.491868 94.102264,97.524414" style="fill:#3b4449;stroke:none"/><path d="M 103.58469,97.539062 100.28879,97.539062 99.990936,99.18457 102.35422,99.18457 102.15402,100.24902 99.790741,100.24902 99.39035,102.46582 102.63254,102.46582 102.42258,103.5791 97.871796,103.5791 99.190155,96.425781 103.79465,96.425781 103.58469,97.539062" style="fill:#3b4449;stroke:none"/><path d="M 108.19406,97.836914 C 107.81645,97.560227 107.43234,97.421881 107.04172,97.421875 106.25721,97.421881 105.86496,97.718105 105.86496,98.310547 105.86496,98.561203 106.07329,98.860682 106.48996,99.208984 L 107.22726,99.833984 C 107.45513,100.0293 107.613,100.17253 107.7009,100.26367 107.78878,100.35157 107.88156,100.47526 107.97922,100.63477 108.07687,100.79427 108.15011,100.95541 108.19894,101.11816 108.24777,101.28093 108.27218,101.44694 108.27219,101.61621 108.27218,102.27051 108.02641,102.78158 107.53488,103.14941 107.0466,103.51725 106.41183,103.70117 105.63058,103.70117 104.98931,103.70117 104.38384,103.56283 103.81418,103.28613 L 104.22433,102.03125 C 104.66053,102.36003 105.16672,102.52442 105.74289,102.52441 106.09119,102.52442 106.37928,102.45117 106.60715,102.30469 106.83826,102.15495 106.95382,101.94336 106.95383,101.66992 106.95382,101.39974 106.74549,101.10189 106.32883,100.77637 L 105.56223,100.16602 C 105.32785,99.977217 105.16834,99.840499 105.08371,99.755859 105.00233,99.671228 104.91607,99.55404 104.82492,99.404297 104.73377,99.251306 104.66541,99.095057 104.61984,98.935547 104.57427,98.776046 104.55148,98.611659 104.55148,98.442383 104.55148,97.784837 104.76958,97.264004 105.20578,96.879883 105.64198,96.495775 106.21326,96.303718 106.91965,96.303711 107.15402,96.303718 107.4535,96.331387 107.81808,96.386719 108.18266,96.438809 108.4382,96.499031 108.58469,96.567383 L 108.19406,97.836914" style="fill:#3b4449;stroke:none"/><path d="M 114.29758,103.5791 113.0134,103.5791 113.62375,100.24902 110.78195,100.24902 110.1716,103.5791 108.88254,103.5791 110.19601,96.425781 111.48508,96.425781 110.97726,99.18457 113.81906,99.18457 114.32687,96.425781 115.62082,96.425781 114.29758,103.5791" style="fill:#3b4449;stroke:none"/><path d="M 115.88449,100.91797 C 115.88449,99.645186 116.23117,98.557948 116.92453,97.65625 117.62114,96.751309 118.52609,96.298835 119.63937,96.298828 120.49549,96.298835 121.15467,96.5267 121.61691,96.982422 122.07915,97.434902 122.31027,98.090826 122.31027,98.950195 122.31027,100.3597 121.95545,101.50391 121.24582,102.38281 120.53618,103.26172 119.5645,103.70117 118.33078,103.70117 117.57557,103.70117 116.97824,103.44727 116.53879,102.93945 116.10259,102.42839 115.88449,101.75456 115.88449,100.91797 M 117.20285,100.78613 C 117.20285,101.33627 117.3119,101.77409 117.53,102.09961 117.7481,102.42513 118.06711,102.58789 118.48703,102.58789 119.26177,102.58789 119.87374,102.23958 120.32297,101.54297 120.77218,100.84636 120.99679,100.01465 120.9968,99.047852 120.99679,97.954107 120.51502,97.407233 119.55148,97.407227 118.8744,97.407233 118.31287,97.765305 117.86691,98.481445 117.4242,99.197596 117.20285,99.965824 117.20285,100.78613" style="fill:#3b4449;stroke:none"/><path d="M 127.1882,103.5791 122.67648,103.5791 123.98996,96.425781 125.26926,96.425781 124.16086,102.46582 127.39328,102.46582 127.1882,103.5791" style="fill:#3b4449;stroke:none"/><path d="M 129.66379,103.5791 127.93527,103.5791 129.23898,96.44043 C 129.71424,96.355801 130.1602,96.313484 130.57687,96.313477 131.66736,96.313484 132.51046,96.562507 133.10617,97.060547 133.70187,97.5586 133.99972,98.279628 133.99973,99.223633 133.99972,100.54851 133.60584,101.60645 132.81808,102.39746 132.03032,103.18522 130.97889,103.5791 129.66379,103.5791 M 130.29855,97.470703 129.42941,102.44141 C 129.57264,102.45443 129.70285,102.46094 129.82004,102.46094 130.69243,102.46094 131.38579,102.15332 131.90012,101.53809 132.41443,100.92285 132.6716,100.13347 132.6716,99.169922 132.6716,98.642583 132.49419,98.219406 132.13937,97.900391 131.78455,97.581386 131.32882,97.421881 130.77219,97.421875 130.61593,97.421881 130.45806,97.438157 130.29855,97.470703" style="fill:#3b4449;stroke:none"/><path d="M 83.638397,53.698299 81.909882,53.698299 83.213593,46.559628 C 83.688851,46.474999 84.134814,46.432682 84.551483,46.432674 85.641974,46.432682 86.485072,46.681705 87.08078,47.179745 87.676477,47.677798 87.974328,48.398826 87.974335,49.342831 87.974328,50.667703 87.580449,51.725645 86.792694,52.516659 86.004929,53.30442 84.953498,53.698299 83.638397,53.698299 M 84.273163,47.589901 83.404022,52.560604 C 83.54725,52.573626 83.677458,52.580136 83.794647,52.580135 84.66704,52.580136 85.360399,52.27252 85.874725,51.657284 86.389044,51.042052 86.646205,50.252665 86.64621,49.28912 86.646205,48.761781 86.468796,48.338604 86.113983,48.019588 85.759161,47.700584 85.303433,47.541079 84.746796,47.541073 84.590543,47.541079 84.432665,47.557355 84.273163,47.589901" style="fill:#3b4449;stroke:none"/><path d="M 89.634491,53.698299 88.360077,53.698299 89.673553,46.544979 90.95285,46.544979 89.634491,53.698299" style="fill:#3b4449;stroke:none"/><path d="M 95.410858,47.956112 C 95.03325,47.679425 94.649136,47.541079 94.258514,47.541073 93.474007,47.541079 93.081754,47.837303 93.081757,48.429745 93.081754,48.680401 93.290087,48.97988 93.706757,49.328182 L 94.444061,49.953182 C 94.671922,50.148498 94.829799,50.291727 94.917694,50.38287 95.005581,50.470764 95.098354,50.594461 95.196014,50.753963 95.293666,50.913471 95.366908,51.074604 95.415741,51.237362 95.464564,51.400125 95.488978,51.56614 95.488983,51.735409 95.488978,52.389707 95.243211,52.900774 94.751678,53.268612 94.263394,53.636451 93.628629,53.82037 92.847382,53.82037 92.206104,53.82037 91.600636,53.682023 91.030975,53.405331 L 91.441132,52.150448 C 91.877328,52.479225 92.383513,52.643613 92.959686,52.643612 93.307991,52.643613 93.596077,52.570371 93.823944,52.423885 94.055061,52.274147 94.17062,52.062559 94.170624,51.78912 94.17062,51.51894 93.962287,51.221088 93.545624,50.895565 L 92.779022,50.285213 C 92.544645,50.096415 92.38514,49.959696 92.300507,49.875057 92.219125,49.790426 92.132862,49.673238 92.041718,49.523495 91.950571,49.370504 91.882211,49.214254 91.836639,49.054745 91.791066,48.895244 91.768279,48.730856 91.76828,48.561581 91.768279,47.904034 91.986378,47.383202 92.422577,46.999081 92.858773,46.614973 93.430061,46.422916 94.136444,46.422909 94.370816,46.422916 94.670294,46.450585 95.034882,46.505917 95.39946,46.558007 95.654994,46.618228 95.801483,46.686581 L 95.410858,47.956112" style="fill:#3b4449;stroke:none"/><path d="M 101.52902,47.921932 C 101.15792,47.658266 100.74614,47.526431 100.29367,47.526424 99.561245,47.526431 98.946011,47.876365 98.447968,48.576229 97.953174,49.272848 97.705778,50.045959 97.70578,50.895565 97.705778,51.445697 97.840869,51.88515 98.111053,52.213924 98.381233,52.542702 98.757209,52.707089 99.238983,52.707088 99.987677,52.707089 100.57524,52.503639 101.00168,52.096737 L 100.97726,53.214901 C 100.51502,53.618547 99.849331,53.82037 98.980194,53.82037 98.205452,53.82037 97.580453,53.566464 97.105194,53.058651 96.629933,52.547584 96.392303,51.88515 96.392303,51.071346 96.392303,49.756246 96.756886,48.652732 97.486053,47.760799 98.218473,46.868879 99.173876,46.422916 100.35226,46.422909 100.92843,46.422916 101.4395,46.517317 101.88547,46.706112 L 101.52902,47.921932" style="fill:#3b4449;stroke:none"/><path d="M 107.64719,53.698299 106.36301,53.698299 106.97336,50.368221 104.13156,50.368221 103.52121,53.698299 102.23215,53.698299 103.54562,46.544979 104.83469,46.544979 104.32687,49.303768 107.16867,49.303768 107.67648,46.544979 108.97043,46.544979 107.64719,53.698299" style="fill:#3b4449;stroke:none"/><path d="M 113.23312,53.698299 113.00851,52.243221 110.44992,52.243221 109.61008,53.698299 108.28683,53.698299 112.63254,46.447323 113.08664,46.447323 114.55637,53.698299 113.23312,53.698299 M 112.46164,48.620174 110.99191,51.291073 112.86691,51.291073 112.46164,48.620174" style="fill:#3b4449;stroke:none"/><path d="M 119.00949,50.529354 120.60617,53.698299 119.17551,53.698299 117.80832,50.739315 C 117.58696,50.736063 117.31515,50.723042 116.99289,50.700253 L 116.44113,53.698299 115.13254,53.698299 116.44113,46.544979 C 117.39165,46.496158 118.01502,46.471744 118.31125,46.471737 119.08273,46.471744 119.69145,46.621484 120.13742,46.920956 120.58663,47.217186 120.81124,47.646873 120.81125,48.210018 120.81124,48.78294 120.64685,49.280986 120.31808,49.704159 119.99256,50.124084 119.55636,50.399149 119.00949,50.529354 M 117.54953,47.643612 117.18332,49.645565 C 117.37537,49.6651 117.54627,49.674866 117.69601,49.674862 118.92648,49.674866 119.54171,49.284241 119.54172,48.502987 119.54171,48.174216 119.4229,47.941469 119.18527,47.804745 118.95089,47.664777 118.56027,47.59479 118.0134,47.594784 117.96782,47.59479 117.8132,47.611066 117.54953,47.643612" style="fill:#3b4449;stroke:none"/><path d="M 126.99289,53.048885 C 126.25721,53.563208 125.35714,53.82037 124.29269,53.82037 123.47238,53.82037 122.80506,53.558326 122.29074,53.034237 121.77967,52.506894 121.52414,51.839577 121.52414,51.032284 121.52414,49.616272 121.91314,48.494854 122.69113,47.668026 123.47238,46.837955 124.5352,46.422916 125.87961,46.422909 126.60877,46.422916 127.15076,46.585676 127.50558,46.91119 L 127.12473,47.97076 C 126.6462,47.681053 126.16932,47.536196 125.69406,47.53619 124.83468,47.536196 124.14458,47.851951 123.62375,48.483456 123.10291,49.111715 122.8425,49.899475 122.8425,50.846737 122.8425,51.432677 123.00363,51.890033 123.3259,52.218807 123.64816,52.544329 124.08924,52.707089 124.64914,52.707088 125.11463,52.707089 125.52153,52.578509 125.86984,52.321346 L 126.12863,50.905331 125.13742,50.905331 125.33273,49.840878 127.58371,49.840878 126.99289,53.048885" style="fill:#3b4449;stroke:none"/><path d="M 133.78976,47.65826 130.49387,47.65826 130.19601,49.303768 132.5593,49.303768 132.3591,50.368221 129.99582,50.368221 129.59543,52.585018 132.83762,52.585018 132.62766,53.698299 128.07687,53.698299 129.39523,46.544979 133.99973,46.544979 133.78976,47.65826" style="fill:#3b4449;stroke:none"/><path d="M 70.146484,73.969239 66.461914,73.969239 66.154296,75.650879 C 66.464188,75.536954 66.805985,75.479988 67.179687,75.479981 67.890619,75.479988 68.505853,75.710131 69.02539,76.17041 69.544914,76.630703 69.80468,77.211757 69.804687,77.913575 69.80468,81.035321 68.357741,82.596192 65.463867,82.596192 64.525063,82.596192 63.754881,82.309083 63.15332,81.734864 L 63.925781,80.148926 C 64.135415,80.395022 64.404295,80.604657 64.732421,80.777832 65.060544,80.946454 65.370439,81.030763 65.662109,81.030762 66.368485,81.030763 66.93131,80.761884 67.350585,80.224121 67.774408,79.686364 67.986322,79.021 67.986328,78.228028 67.986322,77.822433 67.847325,77.501145 67.569335,77.26416 67.295893,77.027187 66.940425,76.908697 66.502929,76.908692 65.901363,76.908697 65.361325,77.168463 64.882812,77.687989 L 64.117187,77.33252 64.971679,72.403809 70.440429,72.403809 70.146484,73.969239" style="fill:#3b4449;stroke:none"/><path d="M 78.349609,73.969239 74.665039,73.969239 74.357421,75.650879 C 74.667313,75.536954 75.00911,75.479988 75.382812,75.479981 76.093744,75.479988 76.708978,75.710131 77.228515,76.17041 77.748039,76.630703 78.007805,77.211757 78.007812,77.913575 78.007805,81.035321 76.560866,82.596192 73.666992,82.596192 72.728188,82.596192 71.958006,82.309083 71.356445,81.734864 L 72.128906,80.148926 C 72.33854,80.395022 72.60742,80.604657 72.935546,80.777832 73.263669,80.946454 73.573564,81.030763 73.865234,81.030762 74.57161,81.030763 75.134435,80.761884 75.55371,80.224121 75.977533,79.686364 76.189447,79.021 76.189453,78.228028 76.189447,77.822433 76.05045,77.501145 75.77246,77.26416 75.499018,77.027187 75.14355,76.908697 74.706054,76.908692 74.104488,76.908697 73.56445,77.168463 73.085937,77.687989 L 72.320312,77.33252 73.174804,72.403809 78.643554,72.403809 78.349609,73.969239" style="fill:#3b4449;stroke:none"/><path d="M 86.552734,73.969239 82.868164,73.969239 82.560546,75.650879 C 82.870438,75.536954 83.212235,75.479988 83.585937,75.479981 84.296869,75.479988 84.912103,75.710131 85.43164,76.17041 85.951164,76.630703 86.21093,77.211757 86.210937,77.913575 86.21093,81.035321 84.763991,82.596192 81.870117,82.596192 80.931313,82.596192 80.161131,82.309083 79.55957,81.734864 L 80.332031,80.148926 C 80.541665,80.395022 80.810545,80.604657 81.138671,80.777832 81.466794,80.946454 81.776689,81.030763 82.068359,81.030762 82.774735,81.030763 83.33756,80.761884 83.756835,80.224121 84.180658,79.686364 84.392572,79.021 84.392578,78.228028 84.392572,77.822433 84.253575,77.501145 83.975585,77.26416 83.702143,77.027187 83.346675,76.908697 82.909179,76.908692 82.307613,76.908697 81.767575,77.168463 81.289062,77.687989 L 80.523437,77.33252 81.377929,72.403809 86.846679,72.403809 86.552734,73.969239" style="fill:#3b4449;stroke:none"/></svg>