<?xml version="1.0" encoding="UTF-8" standalone="no"?><svg xmlns:svg="http://www.w3.org/2000/svg" xmlns="http://www.w3.org/2000/svg" version="1.1" width="75" height="100" ><path d="M 50,18.75 68.750011,50 50,81.25002 31.250005,50 50,18.75" style="fill:#ffffff;stroke:#3b4449;stroke-width:2;stroke-linecap:round;stroke-miterlimit:6"/><path d="M 50,0 50,18.75" style="fill:none;stroke:#3b4449;stroke-width:2;stroke-linecap:round;stroke-miterlimit:6"/><path d="M 50,100.00002 50,81.25002" style="fill:none;stroke:#3b4449;stroke-width:2;stroke-linecap:round;stroke-miterlimit:6"/><path d="M 45.000008,48.12502 C 48.125008,54.37502 48.125008,56.25002 50,65.62502 51.875009,56.25002 51.875009,54.37502 55.000009,48.12502 51.250009,49.37502 48.750008,49.37502 45.000008,48.12502" style="fill:#3b4449;fill-rule:evenodd;stroke:none"/><path d="M 50,56.25002 50,34.375" style="fill:none;stroke:#3b4449;stroke-width:2;stroke-linecap:round;stroke-miterlimit:6"/><path d="M 17.187503,25 C 17.187503,22.41049 15.089586,20.31249 12.500002,20.31249 9.910418,20.31249 7.8125013,22.41049 7.8125013,25 7.8125013,27.58965 9.910418,29.68749 12.500002,29.68749 15.089586,29.68749 17.187503,27.58965 17.187503,25" style="fill:none;stroke:#3b4449;stroke-width:2;stroke-linecap:round;stroke-miterlimit:6"/><path d="M 7.8125013,25 0,25" style="fill:none;stroke:#3b4449;stroke-width:2;stroke-linecap:round;stroke-miterlimit:6"/><path d="M 17.187503,75 C 17.187503,72.41052 15.089586,70.31252 12.500002,70.31252 9.910418,70.31252 7.8125013,72.41052 7.8125013,75 7.8125013,77.58972 9.910418,79.68752 12.500002,79.68752 15.089586,79.68752 17.187503,77.58972 17.187503,75" style="fill:none;stroke:#3b4449;stroke-width:2;stroke-linecap:round;stroke-miterlimit:6"/><path d="M 7.8125013,75 0,75" style="fill:none;stroke:#3b4449;stroke-width:2;stroke-linecap:round;stroke-miterlimit:6"/><path d="M 6.7649691,19.425987 67.811303,19.425987 67.811303,80.574014 6.7649691,80.574014 z" style="opacity:0;fill:#ffffff;stroke:#ffffff;stroke-width:1.5468874"/><path d="M 13.153497,32.684383 11.90586,32.684383 11.90586,38.105933 6.5296797,38.105933 6.5296797,39.35357 11.90586,39.35357 11.90586,44.77512 13.153497,44.77512 13.153497,39.35357 18.529679,39.35357 18.529679,38.105933 13.153497,38.105933 13.153497,32.684383" style="font-size:15px;font-variant:normal;font-weight:normal;writing-mode:lr-tb;fill:#3b4449;fill-rule:nonzero;stroke:none"/><path d="M 6.6090747,61.81149 6.6090747,63.059127 18.495653,63.059127 18.495653,61.81149 6.6090747,61.81149" style="font-size:15px;font-variant:normal;font-weight:normal;writing-mode:lr-tb;fill:#3b4449;fill-rule:nonzero;stroke:none"/></svg>