<?xml version="1.0" encoding="UTF-8" standalone="no"?><svg xmlns:svg="http://www.w3.org/2000/svg" xmlns="http://www.w3.org/2000/svg" version="1.1" width="75" height="100" ><path d="M 50,18.74993 68.749931,50 50,81.25002 31.249969,50 50,18.74993" style="fill:#ffffff;stroke:#3b4449;stroke-width:2;stroke-linecap:round;stroke-miterlimit:6"/><path d="M 50.779772,31.896462 49.220226,31.896462 49.220226,38.6734 42.5,38.6734 42.5,40.232946 49.220226,40.232946 49.220226,47.009883 50.779772,47.009883 50.779772,40.232946 57.5,40.232946 57.5,38.6734 50.779772,38.6734 50.779772,31.896462" style="font-size:15px;font-variant:normal;font-weight:normal;writing-mode:lr-tb;fill:#3b4449;fill-rule:nonzero;stroke:none"/><path d="M 42.599244,60.805346 42.599244,62.364892 57.457467,62.364892 57.457467,60.805346 42.599244,60.805346" style="font-size:15px;font-variant:normal;font-weight:normal;writing-mode:lr-tb;fill:#3b4449;fill-rule:nonzero;stroke:none"/><path d="M 50,18.74993 50,2e-5" style="fill:none;stroke:#3b4449;stroke-width:2;stroke-linecap:round;stroke-miterlimit:6"/><path d="M 50,100.00002 50,81.25002" style="fill:none;stroke:#3b4449;stroke-width:2;stroke-linecap:round;stroke-miterlimit:6"/><path d="M 17.187483,25 C 17.187483,22.41043 15.089568,20.31243 12.499988,20.31243 9.9104068,20.31243 7.8124922,22.41043 7.8124922,25 7.8124922,27.58959 9.9104068,29.68742 12.499988,29.68742 15.089568,29.68742 17.187483,27.58959 17.187483,25" style="fill:none;stroke:#3b4449;stroke-width:2;stroke-linecap:round;stroke-miterlimit:6"/><path d="M 7.8124922,25 0,25" style="fill:none;stroke:#3b4449;stroke-width:2;stroke-linecap:round;stroke-miterlimit:6"/><path d="M 17.187483,75 C 17.187483,72.41122 15.089568,70.31252 12.499988,70.31252 9.9104068,70.31252 7.8124922,72.41122 7.8124922,75 7.8124922,77.58872 9.9104068,79.68752 12.499988,79.68752 15.089568,79.68752 17.187483,77.58872 17.187483,75" style="fill:none;stroke:#3b4449;stroke-width:2;stroke-linecap:round;stroke-miterlimit:6"/><path d="M 7.8124922,75 0,75" style="fill:none;stroke:#3b4449;stroke-width:2;stroke-linecap:round;stroke-miterlimit:6"/><path d="M 6.7649691,19.425987 67.811303,19.425987 67.811303,80.574014 6.7649691,80.574014 z" style="opacity:0;fill:#ffffff;stroke:#ffffff;stroke-width:1.5468874"/><path d="M 13.153497,32.684383 11.90586,32.684383 11.90586,38.105933 6.5296797,38.105933 6.5296797,39.35357 11.90586,39.35357 11.90586,44.77512 13.153497,44.77512 13.153497,39.35357 18.529679,39.35357 18.529679,38.105933 13.153497,38.105933 13.153497,32.684383" style="font-size:15px;font-variant:normal;font-weight:normal;writing-mode:lr-tb;fill:#3b4449;fill-rule:nonzero;stroke:none"/><path d="M 6.6090747,61.81149 6.6090747,63.059127 18.495653,63.059127 18.495653,61.81149 6.6090747,61.81149" style="font-size:15px;font-variant:normal;font-weight:normal;writing-mode:lr-tb;fill:#3b4449;fill-rule:nonzero;stroke:none"/></svg>