<?xml version="1.0" encoding="UTF-8" standalone="no"?><svg xmlns:svg="http://www.w3.org/2000/svg" xmlns="http://www.w3.org/2000/svg" version="1.1" width="100" height="75" ><path d="M 75,25 C 75,11.19367 63.80625,0 50,0 36.19375,0 25,11.19367 25,25 25,38.80682 36.19375,50 50,50 63.80625,50 75,38.80682 75,25" style="fill:#ffffff;stroke:#3b4449;stroke-width:2;stroke-linecap:round;stroke-miterlimit:6"/><path d="M 100,25 75,25" style="fill:none;stroke:#3b4449;stroke-width:2;stroke-linecap:round;stroke-miterlimit:6"/><path d="M 50,75 50,50" style="fill:none;stroke:#3b4449;stroke-width:2;stroke-linecap:round;stroke-miterlimit:6"/><path d="M 0,25 25,25" style="fill:none;stroke:#3b4449;stroke-width:2;stroke-linecap:round;stroke-miterlimit:6"/><path d="M 3.125,31.25 C 10.9375,27.34372 13.28125,27.34372 25,25 13.28125,22.65622 10.9375,22.65622 3.125,18.75 c 1.5625,4.68752 1.5625,7.81252 0,12.5" style="fill:#3b4449;fill-rule:evenodd;stroke:none"/><path d="M 56.25,71.87502 C 52.34375,64.06252 52.34375,61.71872 50,50 c -2.34375,11.71872 -2.34375,14.06252 -6.25,21.87502 4.6875,-1.5625 7.8125,-1.5625 12.5,0" style="fill:#3b4449;fill-rule:evenodd;stroke:none"/><path d="M 56.875,17.1875 42.1875,31.875 43.125,32.8125 57.8125,18.125 56.875,17.1875 z" style="fill:#3b4449;fill-rule:evenodd;stroke:none"/><path d="M 43.125,17.1875 42.1875,18.125 56.875,32.8125 57.8125,31.875 43.125,17.1875 z" style="fill:#3b4449;fill-rule:evenodd;stroke:none"/></svg>