<?xml version="1.0" encoding="UTF-8" standalone="no"?><svg xmlns:svg="http://www.w3.org/2000/svg" xmlns="http://www.w3.org/2000/svg" version="1.1" width="50" height="100" ><path d="M 50,50 C 50,36.19374 38.806255,25 25,25 11.193755,25 0,36.19374 0,50 0,63.80632 11.193755,75 25,75 38.806255,75 50,63.80632 50,50" style="fill:#ffffff;stroke:#3b4449;stroke-width:2;stroke-linecap:round;stroke-miterlimit:6"/><path d="M 25,0 25,25" style="fill:none;stroke:#3b4449;stroke-width:2;stroke-linecap:round;stroke-miterlimit:6"/><path d="M 25,100.00002 25,75" style="fill:none;stroke:#3b4449;stroke-width:2;stroke-linecap:round;stroke-miterlimit:6"/><path d="M 25.84227,33.168 24.157737,33.168 24.157737,40.48806 16.898932,40.48806 16.898932,42.17259 24.157737,42.17259 24.157737,49.49262 25.84227,49.49262 25.84227,42.17259 33.101076,42.17259 33.101076,40.48806 25.84227,40.48806 25.84227,33.168" style="font-size:15px;font-variant:normal;font-weight:normal;writing-mode:lr-tb;fill:#3b4449;fill-rule:nonzero;stroke:none"/><path d="M 17.006089,60.39372 17.006089,62.07822 33.055093,62.07822 33.055093,60.39372 17.006089,60.39372" style="font-size:15px;font-variant:normal;font-weight:normal;writing-mode:lr-tb;fill:#3b4449;fill-rule:nonzero;stroke:none"/></svg>