<?xml version="1.0" encoding="UTF-8" standalone="no"?><svg xmlns:svg="http://www.w3.org/2000/svg" xmlns="http://www.w3.org/2000/svg" version="1.1" width="100" height="100" ><path d="M 51.652057,76.22762 75,18.74958" style="fill:none;stroke:#3b4449;stroke-width:3;stroke-linecap:round;stroke-miterlimit:6"/><path d="M 79.215,47.64132 C 71.112874,40.59769 60.737819,36.7185 50,36.7185" style="fill:none;stroke:#3b4449;stroke-width:2;stroke-linecap:round;stroke-miterlimit:6"/><path d="M 50,76.56242 C 52.58986,76.56242 54.687787,78.66042 54.687787,81.24992 54.687787,83.83962 52.58986,85.93742 50,85.93742 47.410666,85.93742 45.312739,83.83962 45.312739,81.24992 45.312739,78.66042 47.410666,76.56242 50,76.56242" style="fill:none;stroke:#3b4449;stroke-width:2;stroke-linecap:round;stroke-miterlimit:6"/><path d="M 50,85.93742 50,93.75" style="fill:none;stroke:#3b4449;stroke-width:2;stroke-linecap:round;stroke-miterlimit:6"/><path d="M 53.750282,33.21397 C 49.062758,35.55781 47.6565,35.55781 40.625214,36.96399 47.6565,38.37033 49.062758,38.37033 53.750282,40.71401 52.812778,37.9015 52.812778,36.02649 53.750282,33.21397" style="fill:#3b4449;fill-rule:evenodd;stroke:none"/><path d="M 50,23.4371 C 52.58986,23.4371 54.687787,21.33925 54.687787,18.74958 54.687787,16.16006 52.58986,14.06205 50,14.06205 47.410666,14.06205 45.312739,16.16006 45.312739,18.74958 45.312739,21.33925 47.410666,23.4371 50,23.4371" style="fill:none;stroke:#3b4449;stroke-width:2;stroke-linecap:round;stroke-miterlimit:6"/><path d="M 50,14.06205 50,6.24952" style="fill:none;stroke:#3b4449;stroke-width:2;stroke-linecap:round;stroke-miterlimit:6"/><path d="M 17.18759,25 C 17.18759,22.4101 15.089663,20.31208 12.500066,20.31208 9.9104684,20.31208 7.812541,22.4101 7.812541,25 7.812541,27.58928 9.9104684,29.68713 12.500066,29.68713 15.089663,29.68713 17.18759,27.58928 17.18759,25" style="fill:none;stroke:#3b4449;stroke-width:2;stroke-linecap:round;stroke-miterlimit:6"/><path d="M 7.812541,25 0,25" style="fill:none;stroke:#3b4449;stroke-width:2;stroke-linecap:round;stroke-miterlimit:6"/><path d="M 17.18759,75 C 17.18759,72.41042 15.089663,70.31232 12.500066,70.31232 9.9104684,70.31232 7.812541,72.41042 7.812541,75 7.812541,77.58962 9.9104684,79.68742 12.500066,79.68742 15.089663,79.68742 17.18759,77.58962 17.18759,75" style="fill:none;stroke:#3b4449;stroke-width:2;stroke-linecap:round;stroke-miterlimit:6"/><path d="M 7.812541,75 0,75" style="fill:none;stroke:#3b4449;stroke-width:2;stroke-linecap:round;stroke-miterlimit:6"/><path d="M 50,0 50,6.24952" style="fill:none;stroke:#3b4449;stroke-width:2;stroke-linecap:round;stroke-miterlimit:6"/><path d="M 50,100 50,93.75" style="fill:none;stroke:#3b4449;stroke-width:2;stroke-linecap:round;stroke-miterlimit:6"/><path d="M 6.9957911,14.572063 77.538108,14.572063 77.538108,85.957598 6.9957911,85.957598 z" style="opacity:0;fill:#ffffff;stroke:#ffffff;stroke-width:1.7966671"/><path d="M 13.153497,32.684383 11.90586,32.684383 11.90586,38.105933 6.5296797,38.105933 6.5296797,39.35357 11.90586,39.35357 11.90586,44.77512 13.153497,44.77512 13.153497,39.35357 18.529679,39.35357 18.529679,38.105933 13.153497,38.105933 13.153497,32.684383" style="font-size:15px;font-variant:normal;font-weight:normal;writing-mode:lr-tb;fill:#3b4449;fill-rule:nonzero;stroke:none"/><path d="M 6.6090747,61.81149 6.6090747,63.059127 18.495653,63.059127 18.495653,61.81149 6.6090747,61.81149" style="font-size:15px;font-variant:normal;font-weight:normal;writing-mode:lr-tb;fill:#3b4449;fill-rule:nonzero;stroke:none"/></svg>