<?xml version="1.0" encoding="UTF-8" standalone="no"?><svg xmlns:svg="http://www.w3.org/2000/svg" xmlns="http://www.w3.org/2000/svg" version="1.1" width="50" height="100" ><path d="M 50,50 C 50,36.1937 38.806847,25 25,25 11.193111,25 0,36.1937 0,50 0,63.80622 11.193111,75 25,75 38.806847,75 50,63.80622 50,50" style="fill:#ffffff;stroke:#3b4449;stroke-width:2;stroke-linecap:round;stroke-miterlimit:6"/><path d="M 25,0 25,25" style="fill:none;stroke:#3b4449;stroke-width:2;stroke-linecap:round;stroke-miterlimit:6"/><path d="M 25,100 25,75" style="fill:none;stroke:#3b4449;stroke-width:2;stroke-linecap:round;stroke-miterlimit:6"/><path d="M 37.5,50 C 25,87.5 25,12.5 12.5,50" style="fill:none;stroke:#3b4449;stroke-width:2;stroke-linecap:round;stroke-miterlimit:6"/><path d="M 25.623818,28.684383 24.376181,28.684383 24.376181,34.105933 19,34.105933 19,35.35357 24.376181,35.35357 24.376181,40.77512 25.623818,40.77512 25.623818,35.35357 31,35.35357 31,34.105933 25.623818,34.105933 25.623818,28.684383" style="font-size:15px;font-variant:normal;font-weight:normal;writing-mode:lr-tb;fill:#3b4449;fill-rule:nonzero;stroke:none"/><path d="M 19.079395,65.81149 19.079395,67.059127 30.965974,67.059127 30.965974,65.81149 19.079395,65.81149" style="font-size:15px;font-variant:normal;font-weight:normal;writing-mode:lr-tb;fill:#3b4449;fill-rule:nonzero;stroke:none"/></svg>