<?xml version="1.0" encoding="UTF-8" standalone="no"?><svg xmlns:svg="http://www.w3.org/2000/svg" xmlns="http://www.w3.org/2000/svg" version="1.2" width="50" height="100" ><path d="M 50,50 C 50,36.19375 38.806876,25 25,25 11.193126,25 0,36.19375 0,50 0,63.80622 11.193126,75 25,75 38.806876,75 50,63.80622 50,50" style="fill:#ffffff;stroke:#3b4449;stroke-width:2;stroke-linecap:round;stroke-miterlimit:6"/><path d="M 25,0 25,25" style="fill:none;stroke:#3b4449;stroke-width:2;stroke-linecap:round;stroke-miterlimit:6"/><path d="M 25,100 25,75" style="fill:none;stroke:#3b4449;stroke-width:2;stroke-linecap:round;stroke-miterlimit:6"/><path d="M 38.867085,66.69792 C 34.760834,63.96252 29.935001,62.5 25,62.5 20.065001,62.5 15.239167,63.96252 11.132917,66.69792" style="fill:none;stroke:#3b4449;stroke-width:1.20000005;stroke-linecap:round;stroke-miterlimit:6"/><path d="M 45.801668,56.29792 C 39.641876,52.19162 32.403126,50 25,50 17.596876,50 10.358126,52.19162 4.1983338,56.29792" style="fill:none;stroke:#3b4449;stroke-width:1.20000005;stroke-linecap:round;stroke-miterlimit:6"/><path d="M 12.5,50 25,71.87502" style="fill:none;stroke:#3b4449;stroke-width:1.20000005;stroke-linecap:round;stroke-miterlimit:6"/><path d="M 25.581055,45.416001 24.184571,45.416001 18.833008,30.914048 21.625977,30.914048 24.936524,40.582017 28.432617,30.914048 31.166992,30.914048 25.581055,45.416001" style="fill:#3b4449;stroke:none"/></svg>