<?xml version="1.0" encoding="UTF-8" standalone="no"?><svg xmlns:svg="http://www.w3.org/2000/svg" xmlns="http://www.w3.org/2000/svg" version="1.1" width="100" height="75" ><path d="M 75,25 C 75,11.19367 63.80625,0 50,0 36.19375,0 25,11.19367 25,25 25,38.80682 36.19375,50 50,50 63.80625,50 75,38.80682 75,25" style="fill:#ffffff;stroke:#3b4449;stroke-width:2;stroke-linecap:round;stroke-miterlimit:6"/><path d="M 100,25 75,25" style="fill:none;stroke:#3b4449;stroke-width:2;stroke-linecap:round;stroke-miterlimit:6"/><path d="M 50,75.00002 50,50" style="fill:none;stroke:#3b4449;stroke-width:2;stroke-linecap:round;stroke-miterlimit:6"/><path d="M 0,25 25,25" style="fill:none;stroke:#3b4449;stroke-width:2;stroke-linecap:round;stroke-miterlimit:6"/><path d="M 3.125,31.25002 C 10.9375,27.34372 13.28125,27.34372 25,25 13.28125,22.65622 10.9375,22.65622 3.125,18.75 4.6875002,23.43752 4.6875002,26.56252 3.125,31.25002" style="fill:#3b4449;fill-rule:evenodd;stroke:none"/><path d="M 56.25,71.87502 C 52.34375,64.06252 52.34375,61.71872 50,50 47.65625,61.71872 47.65625,64.06252 43.75,71.87502 48.4375,70.31252 51.5625,70.31252 56.25,71.87502" style="fill:#3b4449;fill-rule:evenodd;stroke:none"/><path d="M 35.976607,18.9542 34.72897,18.9542 34.72897,24.37582 29.352789,24.37582 29.352789,25.62342 34.72897,25.62342 34.72897,31.04502 35.976607,31.04502 35.976607,25.62342 41.352789,25.62342 41.352789,24.37582 35.976607,24.37582 35.976607,18.9542" style="font-size:15px;font-variant:normal;font-weight:normal;writing-mode:lr-tb;fill:#3b4449;fill-rule:nonzero;stroke:none"/><path d="M 44.05671,39.60332 44.05671,40.85092 55.943289,40.85092 55.943289,39.60332 44.05671,39.60332" style="font-size:15px;font-variant:normal;font-weight:normal;writing-mode:lr-tb;fill:#3b4449;fill-rule:nonzero;stroke:none"/></svg>