<?xml version="1.0" encoding="UTF-8" standalone="no"?><svg xmlns:svg="http://www.w3.org/2000/svg" xmlns="http://www.w3.org/2000/svg" version="1.2" width="50" height="50" ><path d="m 44.433523,32.078 c 0,2.4486 -1.984956,4.4336 -4.433523,4.4336 -2.448567,0 -4.433522,-1.985 -4.433522,-4.4336 0,-2.4485 1.984955,-4.4335 4.433522,-4.4335 2.448567,0 4.433523,1.985 4.433523,4.4335 z" style="fill:none;stroke:#3b4449;stroke-width:1.3;stroke-miterlimit:4"/><path d="m 14.433522,32.078 c 0,2.4486 -1.984955,4.4336 -4.433522,4.4336 -2.4485668,0 -4.4335225,-1.985 -4.4335225,-4.4336 0,-2.4485 1.9849557,-4.4335 4.4335225,-4.4335 2.448567,0 4.433522,1.985 4.433522,4.4335 z" style="fill:none;stroke:#3b4449;stroke-width:1.3;stroke-miterlimit:4"/><path d="m 14.6,32.0781 20.8,0" style="fill:none;stroke:#3b4449;stroke-width:1.3;stroke-linecap:round;stroke-miterlimit:4"/><path d="m 18.449218,22.3599 -0.679199,0 -2.03125,-5.8652 -1.974121,5.8652 -0.679199,0 -3.053223,-9.4262 1.720215,0 1.745606,5.6113 1.885253,-5.6113 0.723633,0 1.891602,5.6113 1.739258,-5.6113 1.720215,0 z" style="fill:#3b4449;stroke:none"/><path d="m 22.486328,22.233 0,-9.2993 1.65039,0 0,9.2993 z" style="fill:#3b4449;stroke:none"/><path d="m 31.328613,22.233 -2.481934,-3.8404 c -0.249678,0 -0.598798,-0.019 -1.047363,-0.044 l 0,3.8848 -1.713867,0 0,-9.2993 c 0.0931,0 0.450682,-0.016 1.072754,-0.048 0.622068,-0.032 1.123532,-0.048 1.504394,-0.048 2.361323,0 3.541985,0.9141 3.541993,2.7422 -8e-6,0.5502 -0.162931,1.0516 -0.48877,1.5044 -0.325853,0.4528 -0.736334,0.7723 -1.231445,0.9585 l 2.748535,4.1895 z m -3.529297,-7.8648 0,2.5835 c 0.304685,0.025 0.537432,0.038 0.698242,0.038 0.689775,0 1.194413,-0.097 1.513916,-0.292 0.319494,-0.1946 0.479243,-0.5734 0.479248,-1.1362 -5e-6,-0.457 -0.171392,-0.7765 -0.51416,-0.9585 -0.342778,-0.182 -0.882328,-0.2729 -1.618652,-0.273 -0.177738,10e-5 -0.363935,0.013 -0.558594,0.038 z" style="fill:#3b4449;stroke:none"/><path d="m 35.683105,14.4 0,2.1772 3.072266,0 0,1.4028 -3.072266,0 0,2.7867 4.214844,0 0,1.4663 -5.865234,0 0,-9.2993 5.935058,0 0,1.4663 z" style="fill:#3b4449;stroke:none"/></svg>